<?xml version="1.0" encoding="utf-8"?>
<!-- Generator: Adobe Illustrator 16.0.0, SVG Export Plug-In . SVG Version: 6.00 Build 0)  -->
<!DOCTYPE svg PUBLIC "-//W3C//DTD SVG 1.1//EN" "http://www.w3.org/Graphics/SVG/1.1/DTD/svg11.dtd">
<svg version="1.1" id="Layer_1" xmlns="http://www.w3.org/2000/svg" xmlns:xlink="http://www.w3.org/1999/xlink" x="0px" y="0px"
	 width="100px" height="100px" viewBox="0 0 100 100" enable-background="new 0 0 100 100" xml:space="preserve">
<g>
	<path fill="#37B34A" d="M71.062,36.771h-0.019c-1.172-3.879-3.936-7.072-7.523-8.826c0,0-2.143-1.16-5.513-1.413v-0.021
		c-0.263-0.016-0.528-0.023-0.793-0.023h-0.077c-0.297-0.009-0.597-0.009-0.906,0H21.694v-5.475c0-0.047,0.006-0.095,0.006-0.143
		c0-2.014-1.634-3.648-3.648-3.648c-2.017,0-3.647,1.631-3.651,3.645v7.078c-4.814,2.352-8.14,7.299-8.14,13.008v6.557v9.989v2.327
		c0,5.708,3.326,10.653,8.14,13.005c2.476,1.396,7.293,1.459,7.293,1.459H56.23c0.31,0.008,0.609,0.008,0.906,0h0.077
		c0.265,0,0.53-0.009,0.793-0.021v-0.021c3.37-0.257,5.513-1.416,5.513-1.416c3.588-1.753,6.352-4.948,7.523-8.826h0.019
		c0.402-1.324,0.62-2.729,0.62-4.179v-2.327V47.311v-6.357C71.682,39.5,71.464,38.096,71.062,36.771z M66.222,59.826
		c0,4.975-4.049,9.024-9.028,9.024H20.727c-4.975,0-9.027-4.05-9.027-9.024v-2.327V46.072v-5.118c0-4.976,4.052-9.028,9.027-9.028
		h36.467c4.979,0,9.028,4.052,9.028,9.028v4.29v12.256V59.826z"/>
	<path fill="#14BDEF" d="M28.921,50.586v6.356v10.188v2.323c0,1.454,0.218,2.858,0.619,4.184h0.019
		c1.176,3.878,3.936,7.07,7.524,8.821c0,0,2.143,1.164,5.513,1.416v0.023c0.259,0.015,0.525,0.021,0.79,0.021h0.079
		c0.294,0.009,0.595,0.009,0.908,0h34.539c0,0,4.814-0.06,7.29-1.461c4.814-2.349,8.14-7.295,8.14-13.005v-2.323v-9.992v-6.553
		c0-5.712-3.325-10.656-8.14-13.008v-7.081c-0.003-2.011-1.638-3.645-3.65-3.645c-2.016,0-3.649,1.634-3.649,3.651
		c0,0.044,0.007,0.095,0.01,0.139v5.476H44.373c-0.313-0.01-0.613-0.007-0.908,0h-0.079c-0.265,0-0.531,0.009-0.79,0.021v0.023
		c-3.37,0.253-5.513,1.416-5.513,1.416c-3.588,1.751-6.348,4.947-7.524,8.822H29.54C29.139,47.725,28.921,49.128,28.921,50.586z
		 M34.38,67.131V54.875v-4.289c0-4.979,4.049-9.032,9.028-9.032h36.467c4.976,0,9.029,4.053,9.029,9.032v5.117v11.428v2.323
		c0,4.979-4.054,9.028-9.029,9.028H43.408c-4.979,0-9.028-4.049-9.028-9.028V67.131z"/>
	<g>
		<path fill="#0C86AA" d="M34.38,69.454v-0.604h-5.458v0.604c0,1.454,0.218,2.858,0.619,4.184h0.019
			c0.066,0.22,0.139,0.438,0.219,0.652h6.018C34.902,72.891,34.38,71.234,34.38,69.454z"/>
		<path fill="#0C86AA" d="M66.222,40.954v0.601h5.46v-0.601c0-1.454-0.218-2.857-0.62-4.182h-0.019
			c-0.066-0.222-0.139-0.439-0.218-0.654h-6.019C65.698,37.517,66.222,39.173,66.222,40.954z"/>
	</g>
	<g>
		<path fill="#14BDEF" d="M63.055,56.171H38.537c-0.392,0-0.711-0.319-0.711-0.711c0-0.393,0.319-0.71,0.711-0.71h24.518
			c0.393,0,0.709,0.317,0.709,0.71C63.764,55.852,63.447,56.171,63.055,56.171z"/>
	</g>
	<g>
		<path fill="#14BDEF" d="M63.055,60.503H38.537c-0.392,0-0.711-0.316-0.711-0.709c0-0.392,0.319-0.711,0.711-0.711h24.518
			c0.393,0,0.709,0.319,0.709,0.711C63.764,60.187,63.447,60.503,63.055,60.503z"/>
	</g>
	<g>
		<path fill="#14BDEF" d="M63.055,47.898H47.104c-0.395,0-0.711-0.319-0.711-0.711s0.316-0.708,0.711-0.708h15.951
			c0.393,0,0.709,0.315,0.709,0.708S63.447,47.898,63.055,47.898z"/>
	</g>
	<g>
		<path fill="#14BDEF" d="M63.055,52.233H47.104c-0.395,0-0.711-0.319-0.711-0.712c0-0.392,0.316-0.711,0.711-0.711h15.951
			c0.393,0,0.709,0.319,0.709,0.711C63.764,51.914,63.447,52.233,63.055,52.233z"/>
	</g>
	<g>
		<path fill="#14BDEF" d="M63.055,64.836H38.537c-0.392,0-0.711-0.319-0.711-0.712c0-0.391,0.319-0.707,0.711-0.707h24.518
			c0.393,0,0.709,0.316,0.709,0.707C63.764,64.517,63.447,64.836,63.055,64.836z"/>
	</g>
</g>
</svg>
