<?xml version="1.0" encoding="utf-8"?>
<!-- Generator: Adobe Illustrator 16.0.0, SVG Export Plug-In . SVG Version: 6.00 Build 0)  -->
<!DOCTYPE svg PUBLIC "-//W3C//DTD SVG 1.1//EN" "http://www.w3.org/Graphics/SVG/1.1/DTD/svg11.dtd">
<svg version="1.1" id="Layer_1" xmlns="http://www.w3.org/2000/svg" xmlns:xlink="http://www.w3.org/1999/xlink" x="0px" y="0px"
	 width="100px" height="100px" viewBox="0 0 100 100" enable-background="new 0 0 100 100" xml:space="preserve">
<g>
	<radialGradient id="SVGID_1_" cx="51.1504" cy="11.9355" r="93.3828" gradientUnits="userSpaceOnUse">
		<stop  offset="0" style="stop-color:#00ADEE"/>
		<stop  offset="0.0016" style="stop-color:#01ADEE"/>
		<stop  offset="0.0526" style="stop-color:#15ABE6"/>
		<stop  offset="0.1029" style="stop-color:#22A9E2"/>
		<stop  offset="0.1515" style="stop-color:#26A9E0"/>
		<stop  offset="0.3273" style="stop-color:#1B75BB"/>
		<stop  offset="0.5212" style="stop-color:#2B388F"/>
		<stop  offset="0.7576" style="stop-color:#1C1651"/>
		<stop  offset="1" style="stop-color:#120742"/>
	</radialGradient>
	<path fill="url(#SVGID_1_)" d="M89.973,49.397c0,21.933-17.783,39.718-39.715,39.718c-21.936,0-39.718-17.785-39.718-39.718
		S28.322,9.683,50.258,9.683C72.189,9.683,89.973,27.465,89.973,49.397z"/>
	<g>
		<g>
			<g>
				<path fill="#89D2F0" d="M41.098,12.316c0.236-2.098,3.58-2.741,9.268-2.819l0,0c5.743,0.114,8.915,1.116,9.194,2.747l0,0
					c-0.371,1.684-4.443,2.522-9.488,2.663l0,0v-0.409v-0.42c3.649,0.006,6.88-0.744,8.15-1.452l0,0
					c0.438-0.222,0.517-0.365,0.507-0.382l0,0c0.016-0.055-0.514-0.714-1.968-1.122l0,0c-1.433-0.45-3.59-0.796-6.395-0.796l0,0
					c-2.819,0-5.002,0.239-6.448,0.64l0,0c-1.475,0.408-2.032,0.979-1.99,1.351l0,0c-0.065,0.31,0.602,0.887,2.104,1.223l0,0
					c1.468,0.353,3.585,0.539,6.039,0.539l0,0v0.42v0.409C45.114,14.809,41.383,14.45,41.098,12.316L41.098,12.316z"/>
			</g>
			<g>
				<path fill="#89D2F0" d="M48.286,64.433c0-2.447,0.013-5.125,0.042-8.033l0,0c0.18-20.161,1.558-45.121,1.564-45.144l0,0
					l0.139-1.442V9.82l0.824,0.078l-0.13,1.423c0,0.042-1.385,24.954-1.565,45.085l0,0c-0.027,2.907-0.035,5.579-0.042,8.026l0,0
					c0,18.393,0.647,24.415,0.654,24.445l0,0l-0.833,0.084C48.938,88.939,48.286,82.848,48.286,64.433L48.286,64.433z"/>
			</g>
			<g>
				<path fill="#89D2F0" d="M38.257,69.188c0-4.158,0.208-9.202,0.697-15.326l0,0c2.447-29.949,10.227-42.07,11.072-42.873l0,0
					c0.718-0.64,2.023-1.423,2.041-1.429l0,0l0.43,0.711c0,0.006-1.308,0.79-1.914,1.341l0,0
					c-0.484,0.372-8.427,12.559-10.796,42.315l0,0c-0.488,6.107-0.689,11.133-0.689,15.261l0,0
					c-0.014,15.105,2.713,18.199,3.387,18.643l0,0l-0.481,0.683C40.905,87.692,38.272,84.371,38.257,69.188L38.257,69.188z"/>
			</g>
			<g>
				<path fill="#89D2F0" d="M32.442,83.469c-1.149-2.024-3.532-5.626-3.51-15.58l0,0c0-0.953,0.021-1.952,0.064-3.021l0,0
					c0.517-12.271,2.225-24.076,8.676-37.346l0,0c6.423-13.247,10.901-15.688,12.416-16.582l0,0
					c1.557-0.933,3.315-1.301,3.339-1.315l0,0l0.006,0.007l0.17,0.813c0,0.006-1.684,0.372-3.083,1.21l0,0
					c-1.444,0.871-5.684,3.057-12.094,16.226l0,0c-6.394,13.149-8.081,24.803-8.598,37.023l0,0
					c-0.043,1.057-0.063,2.055-0.063,2.985l0,0c0.014,9.853,2.261,13.126,3.408,15.164l0,0c0.703,1.24,1.558,2.147,2.017,2.49l0,0
					l-0.495,0.659C34.099,85.765,33.208,84.812,32.442,83.469L32.442,83.469z"/>
			</g>
			<g>
				<path fill="#89D2F0" d="M21.317,63.884c0-3.115,0.28-6.724,0.969-10.871l0,0c3.351-20.285,15.426-33.094,17.4-34.915l0,0
					c1.945-1.788,6.729-5.958,10.49-7.197l0,0c3.644-1.185,3.837-1.185,4.02-1.198l0,0v0.832c0,0.02,0-0.006-0.476,0.127l0,0
					c-0.51,0.144-1.477,0.441-3.286,1.035l0,0c-3.472,1.119-8.294,5.26-10.188,7.019l0,0c-1.858,1.712-13.843,14.428-17.134,34.436
					l0,0c-0.682,4.104-0.955,7.668-0.955,10.733l0,0c0.006,13.842,5.511,17.516,5.518,17.535l0,0l-0.473,0.688
					C27.101,82.045,21.31,77.953,21.317,63.884L21.317,63.884z"/>
			</g>
			<g>
				<path fill="#89D2F0" d="M15.798,59.75c0-1.8,0.108-3.765,0.367-5.905l0,0c2.015-17.129,12.984-29.564,17.26-33.179l0,0
					c4.24-3.556,11.329-8.702,16.803-9.779l0,0c3.989-0.773,4.921-0.956,5.221-1.005l0,0c0.045-0.016,0.098-0.026,0.149-0.026l0,0
					c0.111,0,0.216,0.042,0.294,0.121l0,0c0.032,0.033,0.06,0.069,0.078,0.107l0,0c0.007,0.014,0.02,0.033,0.025,0.063l0,0
					c0.005,0.013,0.008,0.026,0.011,0.039l0,0c0.023,0.108,0.007,0.222-0.049,0.316l0,0c-0.079,0.121-0.215,0.193-0.359,0.193l0,0
					c0,0.019-0.192,0.029-5.213,1.011l0,0c-5.152,0.989-12.254,6.076-16.422,9.599l0,0c-4.14,3.478-15.009,15.824-16.975,32.64l0,0
					c-0.251,2.102-0.351,4.041-0.357,5.805l0,0c0.006,12.334,5.156,16.487,5.165,16.5l0,0v0.008l-0.532,0.639
					C21.187,76.838,15.792,72.326,15.798,59.75L15.798,59.75z"/>
			</g>
			<g>
				<path fill="#89D2F0" d="M12.341,55.587c0-3.883,0.616-8.528,2.439-13.778l0,0c5.666-16.379,18.366-24.19,21.975-25.991l0,0
					c3.491-1.742,6.927-4.268,13.506-4.934l0,0c6.496-0.668,7.198-0.76,7.205-0.754l0,0l0.11,0.819
					c-0.017,0.006-0.734,0.098-7.231,0.767l0,0c-6.397,0.652-9.625,3.054-13.219,4.848l0,0c-3.478,1.736-16.007,9.43-21.559,25.519
					l0,0c-1.786,5.162-2.388,9.71-2.388,13.504l0,0c0,8.005,2.661,12.595,2.669,12.608l0,0l-0.725,0.423
					C15.101,68.566,12.341,63.783,12.341,55.587L12.341,55.587z"/>
			</g>
			<g>
				<path fill="#89D2F0" d="M11.165,50.889v-0.003l0,0l0.007,0.003H11.165L11.165,50.889z M10.333,50.853
					c0.007-0.036,0.509-11.09,6.789-19.782l0,0c6.214-8.587,11.015-12.574,17.066-15.331l0,0c5.969-2.731,10.12-4.418,16.081-4.855
					l0,0c3.746-0.284,6.347-0.342,7.83-0.342l0,0c0.869,0,1.367,0.023,1.462,0.029l0,0v0.822c-0.144,0-0.604-0.013-1.462-0.019l0,0
					c-1.46,0.006-4.045,0.055-7.765,0.342l0,0c-5.832,0.437-9.824,2.052-15.803,4.783l0,0c-5.905,2.702-10.55,6.536-16.728,15.064
					l0,0c-6.108,8.415-6.637,19.279-6.637,19.322l0,0L10.333,50.853L10.333,50.853z"/>
			</g>
			<g>
				<path fill="#89D2F0" d="M11.666,39.078c0.015-0.042,3.64-13.841,15.993-20.892l0,0c12.201-6.963,17.975-7.094,22.625-7.309l0,0
					c0.989-0.042,2.056-0.069,3.116-0.069l0,0c3.975,0,7.962,0.271,7.968,0.271l0,0l-0.058,0.832c-0.007,0-3.969-0.268-7.91-0.268
					l0,0c-1.054,0-2.101,0.023-3.073,0.072l0,0c-4.649,0.222-10.109,0.294-22.254,7.201l0,0c-12,6.822-15.596,20.347-15.596,20.37
					l0,0v0.006L11.666,39.078L11.666,39.078z"/>
			</g>
			<g>
				<path fill="#89D2F0" d="M71.404,17.436c-4.033-2.415-7.515-3.723-11.544-4.675l0,0c-3.997-0.947-8.47-1.044-9.553-1.044l0,0
					c-0.582-0.01-0.91-0.18-1.955-0.18l0,0c-1.477,0-4.361,0.343-10.713,2.033l0,0c-10.712,2.835-17.236,10.232-17.242,10.248l0,0
					l-0.631-0.551c0.036-0.029,6.682-7.586,17.658-10.506l0,0c6.38-1.69,9.324-2.056,10.929-2.056l0,0
					c1.13,0,1.608,0.186,1.955,0.18l0,0c1.123,0,5.627,0.095,9.736,1.067l0,0c4.098,0.966,7.694,2.313,11.789,4.771l0,0
					c4.102,2.463,8.662,6.493,8.672,6.509l0,0l-0.552,0.623C79.945,23.844,75.404,19.843,71.404,17.436L71.404,17.436z"/>
			</g>
			<g>
				<path fill="#89D2F0" d="M63.442,13.266c-4.261-1.39-8.078-1.589-10.634-1.589l0,0c-1.072,0-1.918,0.036-2.505,0.036l0,0
					c-0.802,0-1.46-0.049-2.384-0.049l0,0c-1.375,0-3.372,0.107-7.281,0.636l0,0c-6.436,0.865-13.33,5.217-13.338,5.234l0,0
					l-0.45-0.708c0.028-0.01,6.981-4.441,13.681-5.348l0,0c3.924-0.539,5.965-0.652,7.389-0.646l0,0
					c0.959,0,1.625,0.049,2.384,0.049l0,0c0.551,0,1.413-0.036,2.505-0.042l0,0c2.602,0.007,6.516,0.209,10.889,1.635l0,0
					c6.18,2.01,10.047,4.623,10.069,4.646l0,0l-0.476,0.685C73.283,17.811,69.511,15.243,63.442,13.266L63.442,13.266z"/>
			</g>
			<g>
				<path fill="#89D2F0" d="M55.916,88.313c-0.023-0.036,3.143-5.433,3.143-18.302l0,0c0-1.129-0.026-2.313-0.079-3.546l0,0
					c-0.66-15.482-1.88-28.681-4.522-40.071l0,0c-2.648-11.446-3.387-13.492-4.476-14.833l0,0c-1.122-1.406-1.136-1.422-1.143-1.422
					l0,0l0,0c-0.1-0.072-0.098-0.144-0.1-0.209l0,0c-0.005-0.022-0.01-0.052-0.015-0.084l0,0c0-0.107,0.042-0.215,0.121-0.294l0,0
					c0.071-0.078,0.18-0.124,0.295-0.124l0,0c0.109,0,0.215,0.046,0.294,0.124l0,0c0.006,0.007,0.013,0.013,0.019,0.02l0,0
					c0.042,0.033,0.062,0.065,0.075,0.095l0,0c0.105,0.13,0.372,0.457,1.105,1.37l0,0c1.273,1.608,1.98,3.732,4.644,15.172l0,0
					c2.662,11.468,3.876,24.712,4.538,40.22l0,0c0.046,1.243,0.079,2.44,0.079,3.582l0,0c0,13.013-3.218,18.66-3.254,18.716l0,0
					l0.011,0.01L55.916,88.313L55.916,88.313z"/>
			</g>
			<g>
				<path fill="#89D2F0" d="M62.861,86.584c-0.013-0.043,1.24-0.492,2.615-3.021l0,0c1.36-2.532,2.763-7.09,2.763-15.101l0,0
					c0-1.426-0.053-2.949-0.138-4.584l0,0c-1.184-20.239-6.173-31.965-8.31-37.649l0,0C57.681,20.617,54,15.465,52.349,13.67l0,0
					c-1.67-1.817-2.188-1.981-2.254-2.01l0,0l-2.396-1.387l0.416-0.714l2.34,1.348c0.101,0.042,0.783,0.33,2.506,2.196l0,0
					c1.745,1.902,5.438,7.07,7.604,12.826l0,0c2.142,5.678,7.186,17.554,8.37,37.901l0,0c0.095,1.647,0.136,3.191,0.136,4.633l0,0
					c0.014,16.206-5.706,18.826-5.886,18.893l0,0L62.861,86.584L62.861,86.584z"/>
			</g>
			<g>
				<path fill="#89D2F0" d="M69.636,83.709c2.16-1.465,6.653-6.05,6.669-19.038l0,0c0-1.048-0.039-2.153-0.095-3.309l0,0
					c-1.099-20.467-10.405-33.728-13.941-38.964l0,0c-3.446-5.133-10.284-10.134-12.092-10.702l0,0
					c-1.959-0.659-4.392-1.148-4.392-1.148l0,0l0.165-0.816c0.007,0,2.462,0.496,4.485,1.168l0,0
					c2.183,0.747,8.89,5.7,12.529,11.031l0,0c3.54,5.243,12.976,18.692,14.085,39.389l0,0c0.053,1.168,0.084,2.287,0.084,3.351l0,0
					c0.011,13.175-4.613,18.111-7.027,19.727l0,0v0.007L69.636,83.709L69.636,83.709z"/>
			</g>
			<g>
				<path fill="#89D2F0" d="M77.192,77.996c-0.029-0.049,5.357-4.913,5.367-17.14l0,0c0-2.186-0.18-4.607-0.591-7.267l0,0
					c-2.707-17.586-12.515-28.418-18.03-33.857l0,0c-5.455-5.38-11.706-7.38-13.759-8.036l0,0c-1.965-0.643-6.542-1.012-6.542-1.001
					l0,0l0.057-0.832c0.021,0,4.57,0.349,6.736,1.038l0,0c2.082,0.662,8.489,2.714,14.098,8.238l0,0
					c5.555,5.481,15.519,16.487,18.27,34.321l0,0c0.414,2.698,0.593,5.165,0.593,7.396l0,0c0.008,12.483-5.572,17.7-5.631,17.75l0,0
					v0.006L77.192,77.996L77.192,77.996z"/>
			</g>
			<g>
				<path fill="#89D2F0" d="M84.015,69.177c-0.023-0.013,2.731-5.119,2.731-13.031l0,0c-0.007-3.097-0.421-6.611-1.593-10.393l0,0
					C80.98,32.206,73.078,24.085,67.162,19.697l0,0c-5.954-4.411-11.185-7.256-16.907-7.981l0,0c-4.762-0.61-7.738-0.669-8.65-0.669
					l0,0c-0.173,0-0.253,0.007-0.257,0.013l0,0l-0.087-0.838c0.015,0,0.129-0.014,0.344-0.006l0,0c0.948,0,3.959,0.058,8.751,0.668
					l0,0c5.939,0.75,11.305,3.7,17.298,8.147l0,0c6.033,4.467,14.066,12.729,18.302,26.478l0,0
					c1.194,3.866,1.625,7.468,1.625,10.637l0,0c0,8.111-2.813,13.39-2.836,13.426l0,0l0.011,0.01L84.015,69.177L84.015,69.177z
					 M41.348,11.06v0.003V11.06L41.348,11.06z"/>
			</g>
			<g>
				<path fill="#89D2F0" d="M81.016,29.945c-7.557-9.825-13.703-12.777-21.002-15.877l0,0c-4.959-2.114-7.69-2.434-8.872-2.434l0,0
					c-0.547,0.006-0.711,0.062-0.86,0.078l0,0c-0.007,0-3.557-0.222-6.89-0.222l0,0c-2.214-0.01-4.373,0.107-5.175,0.408l0,0
					l-0.279-0.79c1.075-0.378,3.196-0.45,5.454-0.457l0,0c3.31,0.006,6.811,0.219,6.792,0.248l0,0
					c0.058-0.017,0.357-0.098,0.958-0.098l0,0c1.332,0,4.164,0.359,9.202,2.5l0,0c7.311,3.089,13.703,6.192,21.339,16.138l0,0
					c7.692,10.02,8.346,22.621,8.352,22.663l0,0L89.2,52.146C89.173,52.139,88.527,39.701,81.016,29.945L81.016,29.945z"/>
			</g>
			<g>
				<path fill="#89D2F0" d="M78.054,23.661c-6.607-5.717-13.031-9.221-19.89-10.898l0,0c-3.941-0.966-5.945-1.175-6.907-1.175l0,0
					c-0.356,0-0.564,0.036-0.675,0.059l0,0h-0.041l-0.117,0.072l-0.136-0.009c0,0-1.261-0.042-3.016-0.042l0,0
					c-2.334,0-5.566,0.078-7.801,0.467l0,0c-3.01,0.502-3.828,0.773-3.957,0.838l0,0l-0.003-0.006l-0.126-0.265l0.035,0.013
					l-0.543-0.245c0.395-0.428,0.359-0.395,4.457-1.159l0,0c2.336-0.401,5.575-0.473,7.938-0.473l0,0c1.498,0,2.643,0.03,2.956,0.04
					l0,0c0.17-0.059,0.464-0.121,1.029-0.121l0,0c1.073,0,3.128,0.225,7.099,1.191l0,0c7.009,1.713,13.57,5.302,20.25,11.084l0,0
					c6.757,5.876,10.482,16.83,10.496,16.859l0,0h0.007l-0.797,0.271C88.293,40.154,84.573,29.299,78.054,23.661L78.054,23.661z
					 M35.644,12.815l-0.003-0.003l0,0l0,0L35.644,12.815L35.644,12.815z M35.512,12.966l0.003,0.006
					c-0.001-0.003-0.003-0.003-0.003-0.003V12.966z"/>
			</g>
			<g>
				<path fill="#89D2F0" d="M56.248,13.119v-0.558h0.415c0.071,0,0.143,0,0.215,0l0,0v0.417v-0.417h0.417v0.417v0.372l-0.287,0.091
					c-0.071,0.022-0.136,0.052-0.202,0.071l0,0l-0.558,0.203V13.119L56.248,13.119z"/>
			</g>
			<g>
				<path fill="#89D2F0" d="M57.159,14.091c-0.095,0-0.189,0-0.281,0l0,0h-0.545l0.134-0.515c0.032-0.101,0.053-0.186,0.065-0.258
					l0,0l0.088-0.408l0.401,0.079c0.127,0.02,0.242,0.049,0.359,0.072l0,0l0.632,0.114l-0.378,0.535
					c-0.042,0.059-0.077,0.124-0.126,0.202l0,0l-0.128,0.179H57.159L57.159,14.091z M57.159,13.367v-0.108V13.367L57.159,13.367z"/>
			</g>
			<g>
				<path fill="#89D2F0" d="M49.257,19.037c-0.136-0.049-0.272-0.091-0.415-0.14l0,0l-0.286-0.095v-0.3l0.013-0.173
					c0.023-0.101,0.051-0.186,0.065-0.257l0,0l0.093-0.451l0.437,0.127c0.157,0.052,0.3,0.108,0.429,0.153l0,0l-0.108,0.333
					l0.108-0.333l0.351,0.104l-0.072,0.366c-0.022,0.114-0.042,0.238-0.062,0.352l0,0l-0.104,0.466L49.257,19.037L49.257,19.037z"/>
			</g>
			<g>
				<path fill="#89D2F0" d="M42.75,19.063v-0.222l0.093-0.108c0.065-0.084,0.129-0.176,0.194-0.271l0,0l0.129-0.173h0.213
					c0.093,0,0.186,0,0.279,0l0,0v0.424v-0.424h0.56l-0.158,0.544c0.029,0.317-0.558,0.738-0.852,0.646l0,0l-0.458,0.036V19.063
					L42.75,19.063z"/>
			</g>
			<g>
				<path fill="#89D2F0" d="M56.95,19.768c0-0.101,0-0.189,0-0.287l0,0v-0.682l0.607,0.31c0.143,0.072,0.273,0.144,0.4,0.199l0,0
					l1.23,0.545l-1.331,0.241c-0.138,0.029-0.281,0.059-0.438,0.081l0,0l-0.47,0.063V19.768L56.95,19.768z M57.179,19.854
					l0.156-0.311L57.179,19.854L57.179,19.854z"/>
			</g>
			<g>
				<path fill="#89D2F0" d="M40.047,21.041l0.315,0.229l-0.328-0.167l-0.023,0.118c0.006-0.02-0.127,0.039-0.212-0.234l0,0
					l-0.174-0.088c0.021-0.072,0.05-0.15,0.072-0.222l0,0l0.114-0.353l0.365,0.082c0.078,0.036,0.351,0.006,0.423,0.457l0,0
					c-0.057,0.378-0.207,0.352-0.222,0.401l0,0l-0.014,0.006L40.047,21.041L40.047,21.041z"/>
			</g>
			<g>
				<path fill="#89D2F0" d="M69.462,22.493c-0.094,0-0.185,0-0.276,0l0,0h-0.209l-0.123-0.166c-0.086-0.115-0.184-0.229-0.278-0.349
					l0,0l-0.114-0.16l0.032-0.187c0.026-0.107,0.054-0.206,0.072-0.294l0,0l0.111-0.437l0.43,0.144
					c0.141,0.043,0.284,0.095,0.422,0.137l0,0l0.251,0.078l0.032,0.274c0.017,0.15,0.047,0.313,0.065,0.48l0,0l-0.415,0.062v-0.219
					v0.219l0.415-0.062l0.065,0.479H69.462L69.462,22.493z M69.462,21.752v-0.098V21.752L69.462,21.752L69.462,21.752z"/>
			</g>
		</g>
		<g>
			<g>
				<path fill="#89D2F0" d="M26.14,81.242l0.443-0.711c0.008-0.007,2.584,1.586,6.682,3.178l0,0
					c4.099,1.596,9.725,3.188,15.845,3.188l0,0c18.078,0,28.068-8.891,28.082-8.907l0,0l0.01,0.007l0.552,0.619
					c-0.043,0.037-10.278,9.114-28.644,9.12l0,0C36.574,87.729,26.175,81.256,26.14,81.242L26.14,81.242z"/>
			</g>
			<g>
				<path fill="#89D2F0" d="M15.083,68.515l-3.359-8.112l0.367-0.153c-0.841-1.751-1.103-2.906-1.112-2.93l0,0h0.006l0.811-0.179
					c0.044,0.02,4.164,19.841,38.054,19.871l0,0c27.309-0.018,35.421-11.464,37.574-15.845l0,0l0.751,0.365
					c-2.251,4.649-10.783,16.33-38.325,16.316l0,0c-22.272,0.014-31.993-8.613-36.083-14.688l0,0l2.063,4.985
					c0.072-0.006,8.518,14.986,35.052,14.993l0,0c22.921,0,32.817-13.407,32.837-13.427l0,0v0.007l0.669,0.496
					c-0.035,0.055-10.231,13.763-33.506,13.763l0,0C24.002,83.983,15.134,68.636,15.083,68.515L15.083,68.515z"/>
			</g>
			<g>
				<path fill="#89D2F0" d="M10.343,50.527l0.817-0.203c0.037,0.022,4.182,18.393,38.915,18.429l0,0
					c33.251-0.023,39.147-17.545,39.183-17.567l0,0v0.007l0.789,0.268c-0.013,0.113-6.391,18.145-39.972,18.124l0,0
					c-0.036,0-0.062,0-0.098,0l0,0C15.005,69.581,10.385,50.641,10.343,50.527L10.343,50.527z"/>
			</g>
			<g>
				<path fill="#89D2F0" d="M11.292,40.618l0.832-0.078c0.05,0.013,1.584,18.204,36.695,18.245l0,0
					c39.505-0.059,39.609-17.371,39.669-18.003l0,0c0-0.065,0-0.137,0.053-0.215l0,0l0.736,0.375l-0.307-0.16h0.35
					c0,0.003,0,0.006,0,0.01l0,0c-0.04,1.102-0.878,18.81-40.501,18.832l0,0c-0.047,0-0.093,0-0.141,0l0,0
					C13.382,59.623,11.328,40.751,11.292,40.618L11.292,40.618z"/>
			</g>
			<g>
				<path fill="#89D2F0" d="M14.4,31.991c0-0.13,0.007-0.192,0.013-0.209l0,0l0.825,0.108c0,0-0.008,0.006-0.008,0.101l0,0
					c0.058,1.491,0.689,15.961,35.286,16.027l0,0c34.178-0.065,34.795-14.542,34.854-16.027l0,0c0-0.101,0-0.144,0-0.144l0,0
					l0.828-0.023c0,0,0,0.059,0,0.167l0,0c-0.033,1.876-1.288,16.842-35.682,16.865l0,0C15.711,48.833,14.436,33.883,14.4,31.991
					L14.4,31.991z"/>
			</g>
			<g>
				<path fill="#89D2F0" d="M22.539,31.805c-2.888-1.968-3.697-4.075-3.684-5.687l0,0c0-1.605,0.752-2.666,0.775-2.702l0,0
					l0.68,0.48c0.021,0.016-0.631,0.891-0.624,2.222l0,0c0.006,1.332,0.602,3.123,3.323,5.002l0,0
					c5.481,3.759,15.161,6.052,28.165,6.046l0,0c12.953,0.042,25.751-4.199,28.066-7.43l0,0c1.179-1.582,1.462-2.887,1.471-3.82l0,0
					c0-1.031-0.332-1.583-0.335-1.583l0,0l0.715-0.431c0.021,0.036,0.453,0.776,0.453,2.013l0,0c0,1.112-0.358,2.617-1.628,4.32l0,0
					c-2.843,3.713-15.573,7.726-28.742,7.769l0,0C38.07,37.995,28.27,35.724,22.539,31.805L22.539,31.805z"/>
			</g>
			<g>
				<path fill="#89D2F0" d="M26.663,23.1c-1.024-1.194-1.411-2.29-1.411-3.227l0,0c0.021-2,1.618-3.031,1.654-3.061l0,0l0.458,0.695
					c0.015,0.016-1.297,0.881-1.274,2.365l0,0c0,0.702,0.279,1.596,1.21,2.686l0,0c1.775,2.206,13.063,5.064,23.584,5.028l0,0
					c10.541,0.013,19.681-2.623,22.438-5.207l0,0c1.037-0.976,1.306-1.779,1.313-2.401l0,0c0.013-1.028-0.764-1.729-0.822-1.779l0,0
					l0.528-0.639c0.032,0.036,1.109,0.907,1.122,2.418l0,0c0.006,0.891-0.414,1.941-1.573,3.018l0,0
					c-3.145,2.865-12.306,5.4-23.005,5.419l0,0C40.156,28.372,29.04,25.772,26.663,23.1L26.663,23.1z M73.809,18.196l0.004,0.003
					l0,0l-0.004,0.003V18.196L73.809,18.196z"/>
			</g>
			<g>
				<path fill="#89D2F0" d="M33.867,17.393c-0.866-0.725-1.261-1.468-1.261-2.183l0,0c0.108-2.099,2.844-3.064,2.85-3.116l0,0h0.008
					l0.315,0.773c0,0-2.436,1.139-2.335,2.343l0,0c0,0.401,0.208,0.907,0.959,1.546l0,0c2.935,2.513,10.983,3.021,15.446,2.999l0,0
					c4.385,0.059,15.113-1.38,16.353-3.087l0,0c0.627-0.773,0.855-1.367,0.849-1.769l0,0c0.007-0.558-0.415-1.008-1.373-1.429l0,0
					l0.335-0.767c1.045,0.438,1.87,1.129,1.879,2.196l0,0c-0.009,0.702-0.358,1.439-1.047,2.294l0,0
					c-2.013,2.268-12.382,3.341-16.996,3.4l0,0C45.309,20.571,37.282,20.206,33.867,17.393L33.867,17.393z"/>
			</g>
			<g>
				<path fill="#89D2F0" d="M10.194,49.923C10.237,30.672,24.311,9.386,49.977,9.386l0,0v0.417v0.424
					c-25.141,0.036-38.937,20.82-38.943,39.695l0,0c0.036,19.358,16.27,38.563,39.094,38.599l0,0
					c23.958-0.007,39.149-18.54,39.165-40.149l0,0c-0.041-21.547-18.555-38.109-39.316-38.145l0,0V9.804V9.386
					c21.193,0,40.142,16.937,40.149,38.987l0,0C90.09,70.364,74.566,89.317,50.128,89.36l0,0
					C26.808,89.348,10.201,69.731,10.194,49.923L10.194,49.923z"/>
			</g>
		</g>
	</g>
	<radialGradient id="SVGID_2_" cx="53.6797" cy="49.5518" r="41.7483" gradientUnits="userSpaceOnUse">
		<stop  offset="0" style="stop-color:#D3EEFB"/>
		<stop  offset="0.1948" style="stop-color:#CFEBF9"/>
		<stop  offset="0.3733" style="stop-color:#C4E3F2"/>
		<stop  offset="0.5456" style="stop-color:#B2D4E7"/>
		<stop  offset="0.7139" style="stop-color:#97C0D7"/>
		<stop  offset="0.8779" style="stop-color:#76A7C3"/>
		<stop  offset="1" style="stop-color:#5890B1"/>
	</radialGradient>
	<path fill-rule="evenodd" clip-rule="evenodd" fill="url(#SVGID_2_)" d="M77.649,23.4c0.022,0.095,0.046,0.189,0.068,0.28
		c0.071,0.023,0.141,0.046,0.208,0.072c0.046-0.026,0.095-0.049,0.145-0.072c0-0.091,0-0.186,0-0.28
		c-0.099-0.023-0.189-0.046-0.281-0.072C77.744,23.354,77.695,23.377,77.649,23.4z"/>
	<radialGradient id="SVGID_3_" cx="53.7178" cy="49.2402" r="41.3809" gradientUnits="userSpaceOnUse">
		<stop  offset="0" style="stop-color:#D3EEFB"/>
		<stop  offset="0.1948" style="stop-color:#CFEBF9"/>
		<stop  offset="0.3733" style="stop-color:#C4E3F2"/>
		<stop  offset="0.5456" style="stop-color:#B2D4E7"/>
		<stop  offset="0.7139" style="stop-color:#97C0D7"/>
		<stop  offset="0.8779" style="stop-color:#76A7C3"/>
		<stop  offset="1" style="stop-color:#5890B1"/>
	</radialGradient>
	<path fill-rule="evenodd" clip-rule="evenodd" fill="url(#SVGID_3_)" d="M44.29,28.996c0.095,0,0.187,0,0.277,0
		c0-0.023,0-0.046,0-0.069c-0.169-0.202-0.202-0.235-0.558-0.28C44.104,28.764,44.196,28.875,44.29,28.996z"/>
	<radialGradient id="SVGID_4_" cx="54.0801" cy="49.3818" r="41.2215" gradientUnits="userSpaceOnUse">
		<stop  offset="0" style="stop-color:#D3EEFB"/>
		<stop  offset="0.1948" style="stop-color:#CFEBF9"/>
		<stop  offset="0.3733" style="stop-color:#C4E3F2"/>
		<stop  offset="0.5456" style="stop-color:#B2D4E7"/>
		<stop  offset="0.7139" style="stop-color:#97C0D7"/>
		<stop  offset="0.8779" style="stop-color:#76A7C3"/>
		<stop  offset="1" style="stop-color:#5890B1"/>
	</radialGradient>
	<path fill-rule="evenodd" clip-rule="evenodd" fill="url(#SVGID_4_)" d="M75.342,28.996c0.046-0.046,0.092-0.092,0.138-0.141
		c-0.046,0-0.092,0-0.138,0C75.342,28.904,75.342,28.95,75.342,28.996z"/>
	<radialGradient id="SVGID_5_" cx="53.7959" cy="49.2627" r="41.3924" gradientUnits="userSpaceOnUse">
		<stop  offset="0" style="stop-color:#D3EEFB"/>
		<stop  offset="0.1948" style="stop-color:#CFEBF9"/>
		<stop  offset="0.3733" style="stop-color:#C4E3F2"/>
		<stop  offset="0.5456" style="stop-color:#B2D4E7"/>
		<stop  offset="0.7139" style="stop-color:#97C0D7"/>
		<stop  offset="0.8779" style="stop-color:#76A7C3"/>
		<stop  offset="1" style="stop-color:#5890B1"/>
	</radialGradient>
	<path fill-rule="evenodd" clip-rule="evenodd" fill="url(#SVGID_5_)" d="M76.599,30.464c-0.176-0.353-0.316-0.676-0.698-0.838
		c-0.022,0.091-0.049,0.189-0.069,0.28c0.164,0.254,0.323,0.509,0.489,0.771c0.047,0.023,0.092,0.045,0.138,0.068
		C76.507,30.65,76.553,30.559,76.599,30.464z"/>
	<radialGradient id="SVGID_6_" cx="53.7031" cy="49.3164" r="41.5399" gradientUnits="userSpaceOnUse">
		<stop  offset="0" style="stop-color:#D3EEFB"/>
		<stop  offset="0.1948" style="stop-color:#CFEBF9"/>
		<stop  offset="0.3733" style="stop-color:#C4E3F2"/>
		<stop  offset="0.5456" style="stop-color:#B2D4E7"/>
		<stop  offset="0.7139" style="stop-color:#97C0D7"/>
		<stop  offset="0.8779" style="stop-color:#76A7C3"/>
		<stop  offset="1" style="stop-color:#5890B1"/>
	</radialGradient>
	<path fill-rule="evenodd" clip-rule="evenodd" fill="url(#SVGID_6_)" d="M77.999,30.885c0.139,0.069,0.279,0.137,0.417,0.208
		c0.144,0,0.28,0,0.424,0c-0.053-0.254-0.029-0.208-0.144-0.349c-0.13-0.212-0.01-0.117-0.28-0.212
		c-0.092,0.049-0.187,0.098-0.278,0.144C78.089,30.744,78.044,30.813,77.999,30.885z"/>
	<radialGradient id="SVGID_7_" cx="53.7852" cy="49.4077" r="41.3181" gradientUnits="userSpaceOnUse">
		<stop  offset="0" style="stop-color:#D3EEFB"/>
		<stop  offset="0.1948" style="stop-color:#CFEBF9"/>
		<stop  offset="0.3733" style="stop-color:#C4E3F2"/>
		<stop  offset="0.5456" style="stop-color:#B2D4E7"/>
		<stop  offset="0.7139" style="stop-color:#97C0D7"/>
		<stop  offset="0.8779" style="stop-color:#76A7C3"/>
		<stop  offset="1" style="stop-color:#5890B1"/>
	</radialGradient>
	<path fill-rule="evenodd" clip-rule="evenodd" fill="url(#SVGID_7_)" d="M42.682,87.39c0.091,0,0.186,0,0.28,0
		c0-0.046,0-0.092,0-0.137c-0.235-0.095-0.467-0.189-0.702-0.281C42.401,87.116,42.542,87.253,42.682,87.39z"/>
	<g>
		<g>
			<path fill-rule="evenodd" clip-rule="evenodd" fill="#231F20" d="M29.167,54.717c-2.378-0.281-1.038-3.062-0.927-4.615
				c-0.287-0.188-0.405-0.319-0.568-0.642c-0.78-0.167-1.56-0.33-2.342-0.496c0.372-1.191,1.579-2.62,1.703-3.693
				c-0.404-0.16-1.024-0.304-1.56-0.14c-0.355,0.183-0.888,1.148-1.067,1.487c-0.544-0.022-1.086-0.045-1.631-0.071
				c-0.238-0.3-0.473-0.614-0.711-0.92c-1.011-3.067,1.876-8.839,4.545-6.108c0.164,0,0.333,0,0.496,0
				c0.049-0.072,0.095-0.14,0.144-0.208c0.065-0.966,2.401,0.43,2.838,0.424c0.502,0.819,0.482,2.519,0.711,3.55
				c0.121,0.023,0.239,0.046,0.356,0.072c0.663-1.158-0.068-2.571,0.356-3.909c0.169-0.535,3.096-2.483,3.693-2.626
				c0.242-0.624,0.242-1.162,0.141-1.847c0.121-0.046,0.238-0.095,0.356-0.141c0.397,0.842,1.354-1.24,1.846-1.494
				c0.497-0.046,0.995-0.091,1.491-0.137c0.049-0.31,0.095-0.62,0.144-0.927c0.382-0.613,2.649-1.276,3.41-1.207
				c-0.137,0.28-0.392,0.349-0.711,0.427c-0.141,0.225-0.193,0.242-0.212,0.636c0.095,0.026,0.189,0.049,0.28,0.072
				c0.777-0.46,1.844-1.018,2.842-1.207c-0.046-0.189-0.095-0.378-0.144-0.567c-0.042-0.023-0.091-0.046-0.14-0.072
				c-0.167,0.215-0.33,0.424-0.5,0.64c-0.519,0.068-0.927-0.137-1.416-0.424c-0.059-0.346-0.02-0.47,0.072-0.783
				c-0.144-0.111-0.101-0.094-0.359-0.143c-0.022-0.046-0.045-0.092-0.068-0.137c0.212-0.049,0.427-0.098,0.639-0.144
				c0.046-0.144,0.095-0.287,0.141-0.424c-0.095-0.052-0.189-0.098-0.284-0.144c-0.587-0.229-1.553,0.268-1.987,0.496
				c-0.026,0-0.049,0-0.072,0c0.842-1.746,2.636-0.594,4.401-0.996c0.561-0.124,1.276-0.616,1.918-0.851
				c0.114-0.235,0.153-0.516,0.141-0.923c-0.431-0.242-1.847-1.233-1.987-1.707c-0.231-0.79-0.107-1.573-0.639-2.199
				c-0.431,0.346-0.591,0.728-1.208,0.923c-0.242-0.179-0.251-0.284-0.636-0.355c0.068-0.333,0.137-0.659,0.212-0.992
				c-0.528-0.75-0.949-1.103-2.062-1.207c-0.254,0.711-0.483,1.37-1.135,1.703c0.079,0.62,0.238,0.901,0.072,1.488
				c-0.46,0.3-0.826,0.62-1.563,0.64c-0.189,0.594-0.378,1.188-0.567,1.778c-0.189,0.072-0.378,0.144-0.568,0.212
				c-0.711-0.666-0.228-1.569,0.144-2.202c-0.254-0.277-0.434-0.147-0.783-0.356C35.7,23.831,36,22.826,34.848,22.76
				c0.134-0.578,0.251-0.685,0.141-1.279c1.409-1.298,2.992-1.455,4.62-2.415c0.019,0.023,0.045,0.046,0.068,0.065
				c-0.186,0.216-0.379,0.431-0.568,0.646c0,0.091,0,0.189,0,0.281c0.392,0.052,0.434-0.023,0.78-0.138
				c0.144,0.115,0.284,0.235,0.428,0.353c0.14-0.587-0.245-0.767-0.5-1.279c0-0.026,0-0.049,0-0.072
				c0.486-0.261,0.77,0.118,1.351-0.141c0.395-0.176,0.268-0.604,0.711-0.783c0.13-0.29,0.117-0.277,0-0.567
				c0-0.023,0-0.046,0-0.072c0.401,0.026,0.803,0.049,1.207,0.072c0.222,0.342,0.672,1.014,0.567,1.419
				c-0.222,0.365-0.551,0.339-0.711,0.783c-0.343,0.15-0.826,0.006-1.208,0.144c-0.068,0.045-0.14,0.091-0.215,0.143
				c0,0.046,0,0.092,0,0.138c0.385,0.026,0.761,0.045,1.142,0.072c0.297,0.796,0.679,1.148,1.416,1.491c0.098,0,0.189,0,0.287,0
				c-0.144-0.257-0.287-0.519-0.424-0.78c0-0.026,0-0.046,0-0.072c0.258,0.144,0.516,0.284,0.777,0.424
				c0.265-0.199,0.333-0.238,0.355-0.708c-0.14-0.187-0.284-0.382-0.428-0.565c-0.137-0.189-0.064-0.071-0.068-0.287
				c0.117-0.023,0.238-0.049,0.355-0.072c0.287,0.193,0.307,0.431,0.64,0.568c0.234-0.141,0.47-0.281,0.711-0.428
				c0.02-0.068,0.046-0.141,0.069-0.212c-0.428-0.333-0.852-0.665-1.279-0.992c0.072-0.192,0.144-0.378,0.215-0.567
				c-0.786-0.999-0.852-1.866-2.489-1.847c-0.189,0.212-0.379,0.424-0.564,0.637c-0.026-0.069-0.049-0.141-0.072-0.212
				c0.14-0.212,0.284-0.424,0.427-0.639c-0.144,0-0.288,0-0.427,0c0.127-0.314,0.277-0.359,0.567-0.5
				c0.401,0.199,0.946,0.297,1.563,0.287c0.046-0.166,0.095-0.333,0.144-0.499c0.613-0.189,1.23-0.378,1.847-0.568
				c0.114,0.072,0.235,0.144,0.353,0.215c0.124,0.277,0.098,0.15,0,0.424c0.254,0.222,0.985,0.274,1.351,0.355
				c0.333,0.522,0.528,0.833,0.496,1.775c0.045,0.026,0.095,0.049,0.14,0.072c0.095-0.046,0.193-0.095,0.284-0.141
				c0.12,0.163,0.238,0.333,0.355,0.496c-0.095,0.023-0.187,0.046-0.284,0.072c0.147,0.143,0.125,0.117,0.425,0.14
				c0.242,0.629-0.297,0.636-0.705,0.995c-0.026,0.281-0.049,0.567-0.075,0.855c0.937,1.298,1.205,2.786,3.201,3.05
				c0.457-0.813,0.561-1.899,0.708-2.841c0.767-0.418,1.422-0.261,1.631-1.419c0.545-0.153,1.106-0.18,1.348-0.64
				c0.099-0.095,0.193-0.189,0.288-0.284c-0.36-0.18-0.716-0.014-0.992-0.072c-0.073-0.045-0.145-0.091-0.216-0.137
				c0-0.029,0-0.052,0-0.075c0.163-0.121,0.333-0.235,0.496-0.356c0.189,0.094,0.378,0.189,0.567,0.284c0.027,0,0.05,0,0.072,0
				c0.026-0.049,0.045-0.095,0.072-0.141c-0.366-0.313-0.875-0.499-1.352-0.711c0-0.046,0-0.095,0-0.144
				c0.166-0.091,0.333-0.189,0.5-0.281c-0.167-0.42-1.498-1.918-1.848-2.133c-0.035-0.255,0.003-0.131,0.141-0.356
				c0-0.068,0-0.14,0-0.212c-0.284,0.095-0.567,0.189-0.852,0.288c-0.131-0.343-0.904-0.548-1.42-0.568c0-0.072,0-0.144,0-0.215
				c1.064-0.215,1.809,0.254,2.839,0c0.516,0.079,1.161-0.578,1.351-1.064c-0.261-0.169-0.522-0.333-0.78-0.496
				c-0.049-0.075-0.098-0.144-0.143-0.215c0.173-0.18,0.147-0.18,0.498-0.215c0-0.02,0-0.046,0-0.065
				c-0.664-0.147-1.326-0.287-1.989-0.431c-0.516-0.176-0.94-0.711-1.352-0.849c-1.207,0-2.414,0-3.621,0
				c-0.92,0.065-1.847,0.137-2.767,0.212c-2.102,0.353-4.849,0.414-6.536,1.348c-0.355,0.346-0.773,0.809-1.067,1.207
				c-2.581-0.137-5.749,1.162-7.524,2.486c0.006,0.32,0.033,0.509,0.209,0.705c-0.411,0.502-1.012,1.086-1.344,1.637
				c0,0.144,0,0.288,0,0.428c-1.759,1.7-3.889,3.338-4.973,5.681c0.203,0.146,0.141,0.098,0.424,0.071c0,0.023,0,0.046,0,0.072
				c-0.153,0.261-0.156,0.326-0.496,0.424c-0.046-0.072-0.095-0.14-0.144-0.212c-2.088,2.091-4.62,4.479-5.325,7.882
				c-0.117,0.571,0.307,0.895,0.141,1.563c-0.74,2.91-1.047,4.48-0.923,7.599c0.049,0,0.095,0,0.144,0
				c0.31-1.798,0.01-4.568,0.78-6.248c0.095,0.019,0.189,0.042,0.284,0.068c0.108,0.715-0.234,1.256-0.352,1.847
				c-0.215,1.031,0.196,3.286,0.352,4.193c0.216,1.22-0.469,2.976-0.284,3.546c0.447,1.354,2.343,3.896,3.978,3.694
				c0.496,0.551,0.678,1.217,1.136,1.846c0.795,1.103,2.29,0.943,2.701,2.555c0.264,0.033,0.114,0.078,0.281-0.144
				c0.378,0.118,0.375,0.229,0.567,0.499c0,0.029,0,0.049,0,0.075c-0.319,0.102-0.229,0.053-0.496-0.216
				c-0.046,0.307-0.095,0.613-0.141,0.928c0.597,0.527,2.366,1.879,2.699,2.479c0.072,0.052,0.144,0.098,0.208,0.144
				c0.075-0.023,0.147-0.046,0.215-0.072c-0.02-0.215-0.045-0.424-0.068-0.639c0.421-0.239,0.506-0.379,1.063-0.353
				C30.306,54.175,29.676,54.527,29.167,54.717z M38.682,25.527c0.072-0.023,0.144-0.046,0.215-0.072c0.069,0,0.141,0,0.212,0
				c-0.049,0.098-0.095,0.189-0.144,0.284c-0.095,0-0.186,0-0.284,0C38.682,25.67,38.682,25.599,38.682,25.527z M44.15,19.354
				c-0.02,0.042-0.046,0.092-0.072,0.137c-0.313-0.098-0.144,0.052-0.28-0.215c0.068,0,0.143,0,0.208,0
				C44.056,19.302,44.104,19.328,44.15,19.354z M43.442,16.509c0.045-0.072,0.094-0.144,0.14-0.212
				c0.216,0.134,0.121,0.01,0.216,0.284c-0.121,0-0.242,0-0.355,0C43.442,16.555,43.442,16.535,43.442,16.509z M50.473,12.887
				c0.117,0,0.236,0,0.353,0c0,0.026,0,0.045,0,0.071c-0.068,0.092-0.145,0.19-0.213,0.285c-0.121-0.023-0.238-0.049-0.355-0.069
				c-0.045,0-0.091,0-0.144,0C50.234,13.076,50.356,12.981,50.473,12.887z M36.411,12.672c0.144,0.026,0.284,0.052,0.424,0.072
				c0.032,0.548,0.287,0.799,0.639,0.995c0.783-0.094,1.563-0.189,2.343-0.284c0,0.052,0,0.095,0,0.14
				c-0.555,0.304-1.595,0.506-2.343,0.714c-0.045,0.118-0.091,0.235-0.144,0.353c0.17,0,0.333,0,0.5,0c0,0.026,0,0.046,0,0.072
				c-0.268,0.319-0.663,0.666-1.136,0.777c-0.072,0.264-0.14,0.525-0.212,0.786c0.163,0.117,0.33,0.238,0.496,0.355
				c-0.189,0.069-0.378,0.144-0.567,0.212c-0.15-0.238-0.274-0.33-0.568-0.427c0-0.091,0-0.186,0-0.281c0.118,0,0.235,0,0.353,0
				c0.173-0.725-0.327-0.92-0.281-1.422c-0.189-0.3-0.323-0.389-0.783-0.424C35.556,13.765,35.983,13.22,36.411,12.672z
				 M35.203,32.06c-0.665,0.12-1.328,0.241-1.99,0.359c-0.046-0.072-0.095-0.144-0.14-0.216c0.14-0.143,0.284-0.28,0.427-0.424
				c0.068,0.072,0.137,0.144,0.212,0.216c0.5-0.072,0.995-0.144,1.491-0.216c0.023,0.046,0.046,0.092,0.072,0.144
				C35.249,31.968,35.226,32.017,35.203,32.06z M36.411,31.28c0.118,0,0.235,0,0.353,0c0,0.094,0,0.192,0,0.284
				c-0.509,0.186-1.012,0.052-1.56,0.072C35.399,31.188,35.954,31.433,36.411,31.28z M34.988,29.717
				c0.098,0.12,0.192,0.238,0.287,0.359c0,0.208,0,0.424,0,0.639c-0.17-0.072-0.333-0.144-0.5-0.215
				c-0.355,0.29-0.447,0.763-0.923,0.923c0-0.166,0-0.333,0-0.499c-0.141,0-0.285,0-0.424,0c0.218-0.342,0.965-1.038,0-1.207
				c-0.881,0.616-1.162,1.272-1.775,2.134c-0.098,0-0.189,0-0.287,0c0-1.351,0.699-2.01,1.707-2.414
				C33.895,29.456,34.316,29.573,34.988,29.717z M33.357,16.581c0.144-0.098,0.28-0.189,0.424-0.284c0-0.069,0-0.141,0-0.212
				c0.215,0.046,0.431,0.092,0.639,0.144c0.049,0,0.095,0,0.144,0c-0.026,0.118-0.049,0.235-0.072,0.353
				c-0.464,0.157-0.75,0.167-1.135,0.072C33.357,16.626,33.357,16.604,33.357,16.581z M33.357,26.738c0.072,0,0.144,0,0.211,0
				c0,0.094,0,0.186,0,0.284c-0.022,0.023-0.049,0.046-0.068,0.072c-0.052,0-0.095,0-0.144,0c-0.046-0.049-0.098-0.098-0.144-0.144
				C33.259,26.878,33.311,26.806,33.357,26.738z M33.996,29.077c-0.026,0.026-0.049,0.049-0.072,0.078
				c-0.9-0.235-1.318-0.678-2.342-0.574c-0.072-0.092-0.144-0.189-0.216-0.285c0.398-0.394,1.201-0.427,1.707-0.708
				C33.826,27.622,34.045,28.268,33.996,29.077z M32.365,21.622c0.019-0.068,0.045-0.14,0.068-0.212c0.072,0,0.141,0,0.212,0
				c0,0.023,0,0.046,0,0.072c-0.072,0.072-0.141,0.14-0.212,0.215C32.41,21.671,32.384,21.645,32.365,21.622z M32.006,18.571
				c0.189,0,0.378,0,0.568,0c0.026,0.046,0.049,0.091,0.072,0.137c-0.274,0.225-0.601,0.186-0.992,0.144
				C31.784,18.604,31.791,18.701,32.006,18.571z M32.078,20.059c0.023,0.072,0.046,0.144,0.072,0.215c-0.144,0-0.287,0-0.424,0
				c-0.026-0.071-0.052-0.143-0.072-0.215C31.797,20.059,31.938,20.059,32.078,20.059z M30.658,22.405c0.049,0,0.095,0,0.14,0
				c0,0.023,0,0.046,0,0.069c-0.045,0.052-0.091,0.097-0.14,0.143c-0.022-0.026-0.049-0.046-0.075-0.072
				C30.609,22.5,30.636,22.451,30.658,22.405z M31.154,23.4c0.268,0.14,0.46,0.264,0.783,0.424
				c-0.261,0.613-0.525,1.227-0.783,1.846c-0.095,0.026-0.186,0.046-0.284,0.069c0.144-0.33,0.242-0.688,0.356-1.135
				c0-0.141,0-0.284,0-0.428c-0.189,0.121-0.382,0.242-0.568,0.359c-0.022-0.072-0.049-0.143-0.075-0.215
				C30.786,23.961,31.053,23.837,31.154,23.4z M24.267,22.829c0.049,0,0.094,0,0.14,0c0,0.098,0,0.189,0,0.284
				c-0.046,0.026-0.091,0.049-0.14,0.072c-0.023,0-0.045,0-0.072,0C24.221,23.067,24.244,22.946,24.267,22.829z M22.563,28.725
				c0.068,0.046,0.144,0.098,0.212,0.141c0,0.075,0,0.144,0,0.212c-0.068,0.049-0.144,0.098-0.212,0.144c-0.026,0-0.052,0-0.072,0
				C22.459,28.92,22.453,28.963,22.563,28.725z"/>
			<path fill-rule="evenodd" clip-rule="evenodd" fill="#231F20" d="M89.308,54.608c-0.023-1.132-0.046-2.271-0.069-3.403
				c0.535-2.685,0.538-6.229-0.071-9.305c-0.702-3.527-1.383-6.043-2.581-8.722c-1.618-3.632-3.968-6.966-6.369-9.958
				c-0.803-0.636-1.608-1.282-2.414-1.915c-2.082-2.042-3.438-3.645-5.89-5.282c-2.14-1.426-7.104-4.099-10.017-4.438
				c-0.049,0.023-0.096,0.049-0.145,0.068c-0.022,0.098,0.453-0.104,0.428-0.01c0.839,0.64,1.776,0.992,2.63,1.563
				c0.698,0.47,1.182,1.482,2.056,1.775c0,0.026,0,0.045,0,0.071c-0.633,0.222-0.998-0.299-1.703-0.352
				c0.131-0.157,0.134-0.144,0.356-0.216c0-0.118,0-0.238,0-0.355c-0.996-0.343-2.105-0.111-3.126-0.212
				c-0.369,0.79,1.856,3.583,2.63,3.694c-0.128,0.496-0.096,0.63-0.145,1.207c0.649,0.483,1.479,1.481,2.414,1.56
				c0-0.281,0-0.564,0-0.852c0.19,0.023,0.38,0.049,0.569,0.068c-0.023-0.114-0.046-0.235-0.068-0.352
				c0.427,0.15,0.313,0.15,0.211,0.496c0.421,0.493,1.185,0.525,1.348,1.279c0.026,0,0.049,0,0.072,0
				c0.094-0.046,0.189-0.091,0.283-0.141c0.023-0.238,0.049-0.473,0.075-0.711c-1.357-1.256-3.766-2.816-4.691-4.333
				c0-0.022,0-0.049,0-0.068c0.117-0.026,0.238-0.052,0.358-0.075c1.061,0.649,1.541,2.088,3.191,2.13c0-0.186,0-0.378,0-0.564
				c0.144-0.115,0.101-0.095,0.359-0.144c0-0.049,0-0.091,0-0.14c-0.425-0.138-0.529-0.184-1.064-0.144
				c0.17-0.522,0.626-0.359,1.064-0.208c0.07,0.117,0.14,0.231,0.211,0.353c0.157,0.355,0.011,0.757-0.071,1.063
				c0.218,0.313,0.768,0.574,1.138,0.711c0.054,0.281,0.09,0.186-0.143,0.353c0.238,0.757,0.973,0.728,1.208,1.566
				c0,0.026,0,0.046,0,0.072c-0.145,0-0.284,0-0.424,0c-0.027,0.28-0.049,0.567-0.072,0.848c-0.34,0.052-0.441,0.046-0.712,0.284
				c-0.343-0.14-0.717-0.251-0.995-0.424c-0.022,0-0.046,0-0.069,0c0.21,0.261,0.425,0.519,0.637,0.78
				c-0.498,0.803,0.023,1.882-0.068,2.77c-0.055,0.532-0.456,0.538-0.358,0.995c-0.192,0.192-0.529,0.215-0.708,0.424
				c-0.023,0.049-0.046,0.098-0.068,0.143c0,0.026,0,0.046,0,0.072c1.396,0.597,2.606,0.685,2.766,2.486
				c-0.775,0.248-2.231,0.261-2.557,0.992c0.743,1.005,1.324,2.519,1.921,3.622c0.285-0.072,0.564-0.144,0.852-0.212
				c0.164,0.141,0.33,0.284,0.496,0.428c0.548-0.137,0.653-0.522,1.207-0.711c0.724-1.24-0.424-2.398,0.213-3.622
				c-0.096-0.613-0.362-0.567-0.425-1.21c0.32-0.225,0.291-0.273,0.708-0.14c0.222-0.238,0.34-0.62,0.355-1.063
				c0.62-0.104,2.536,1.227,3.619,1.422c0.052-0.189,0.098-0.381,0.144-0.57c-0.379-0.304-0.895-0.239-1.42-0.428
				c-0.643-0.229-1.399-0.999-1.915-1.416c0-0.098,0-0.192,0-0.287c0.022-0.023,0.045-0.046,0.071-0.072
				c0.217,0.04,2.807,1.012,2.982,1.136c0.81,0.587,1.498,1.978,2.556,2.277c-0.095-0.516-0.337-0.587-0.212-0.926
				c-0.379-0.317-0.761-0.64-1.137-0.924c0-0.238,0-0.473,0-0.708c0.163-0.052,0.334-0.098,0.496-0.144
				c-0.026-0.166-0.045-0.333-0.071-0.499c0.026-0.023,0.045-0.045,0.071-0.068c0.046,0,0.095,0,0.145,0c0.021,0,0.045,0,0.067,0
				c0.079,0.378-0.039,0.431-0.141,0.783c0.471,0.496,0.947,0.992,1.421,1.488c0.166,0,0.329,0,0.495,0
				c0.121-0.339-0.035-0.323,0.428-0.352c-0.026-0.238-0.049-0.477-0.072-0.711c0.959,0.353,1.859,2.473,2.202,3.479
				c-0.31,0.372-0.417,0.293-0.355,0.926c-0.567,0.355-1.023,0.307-1.774,0.212c-0.238,0.917,0.332,1.171,0.424,1.986
				c-0.022,0.027-0.046,0.049-0.068,0.072c-1.373-0.186-2.078-0.404-3.41-0.567c-0.509-0.803-0.437-1.713-1.419-2.062
				c-0.708,0.574-1.863,0.965-2.486,1.638c-0.382,0.405-0.427,1.051-0.852,1.416c-0.685,0.157-0.953,0.203-1.491-0.072
				c-0.155,0.412,0.159,0.738,0.069,1.139c-0.135,0.594-0.836,0.78-0.708,1.707c0.117,0.636,0.234,1.279,0.353,1.916
				c-0.203,0.841-1.166,1.618-1.492,2.626c-0.141,0.437-0.665,3.605-0.567,3.837c0.223,0.5,0.836,1.325,0.995,1.99
				c0.219,0.907-0.277,1.782-0.353,2.271c-0.007,0.029,0.451,1.585,0.493,1.775c0.234,0.15,0.594,0.087,0.786,0.209
				c0.043,0.169,0.095,0.332,0.138,0.502c1.235,1.142,2.449,3.469,4.688,3.479c0.425-0.411,1.064-0.974,1.703-1.136
				c0.287,0.023,0.568,0.049,0.854,0.068c1.109-0.355,1.306-1.987,2.768-2.202c0.287,0.358,0.571,0.711,0.854,1.07
				c0.307-0.216,0.613-0.431,0.92-0.644c0.099,0.072,0.189,0.141,0.288,0.213c0.561,1.076-0.313,2.773-0.145,3.621
				c0.248,1.243,1.554,2.225,1.208,3.98c-0.138,0.686-0.127,1.808-0.424,2.487c-0.478,1.069-1.207,2.369-1.492,3.617
				c-0.049,0.761-0.098,1.518-0.144,2.274c-0.289,1.081-1.601,4.568-2.345,5.182c0,0.071,0,0.146,0,0.215
				c0.052,0.026,0.098,0.046,0.144,0.072c1.644-1.24,2.691-3.726,3.765-5.54c1.887-3.185,3.589-7.067,4.189-11.434
				c0.072-0.509-0.297-1.061-0.071-1.631C88.938,55.568,89.216,55.127,89.308,54.608z M67.583,17.077c-0.046,0-0.091,0-0.14,0
				c-0.023,0-0.047,0-0.069,0c-0.026-0.045-0.049-0.091-0.071-0.141c0.045-0.049,0.094-0.095,0.141-0.14c0.075,0,0.14,0,0.211,0
				C67.635,16.887,67.609,16.985,67.583,17.077z M68.37,16.652c-0.075-0.072-0.147-0.144-0.215-0.215
				c-0.073-0.072-0.141-0.14-0.214-0.209c0.117-0.052,0.235-0.098,0.354-0.144c0.144,0.118,0.287,0.235,0.428,0.353
				C68.604,16.509,68.487,16.581,68.37,16.652z M79.446,25.031c0.072,0.333,0.144,0.666,0.213,0.998c0,0.02,0,0.046,0,0.065
				c-0.118,0.052-0.238,0.098-0.356,0.144c-0.979-0.542-1.781-1.958-2.27-2.982c0.143-0.072,0.283-0.144,0.424-0.215
				c-0.092-0.307-0.187-0.613-0.281-0.92c0.568,0.222,0.404,0.574,0.783,0.92c0.708,0.672,1.557,0.248,1.983,1.279
				c0.026,0.192,0.046,0.378,0.072,0.567C79.825,24.937,79.636,24.979,79.446,25.031z M85.199,46.833
				c-0.35-0.156-0.597-0.682-0.5-1.063c0.324,0.13,0.223,0.215,0.64,0.284C85.404,46.402,85.287,46.468,85.199,46.833z
				 M88.109,38.239c-0.046,0-0.095,0-0.141,0c-0.724-1.827-1.83-4.378-3.27-5.537c0.027-0.284-0.025-0.069,0.072-0.284
				c1.315,0.473,2.803,4.118,3.338,5.608C88.109,38.099,88.109,38.174,88.109,38.239z"/>
			<path fill-rule="evenodd" clip-rule="evenodd" fill="#231F20" d="M56.51,12.603c-0.072,0-0.144,0-0.215,0
				c0,0.049,0,0.095,0,0.141c0.071-0.02,0.143-0.046,0.215-0.072C56.51,12.652,56.51,12.626,56.51,12.603z"/>
			<path fill-rule="evenodd" clip-rule="evenodd" fill="#231F20" d="M56.791,13.314c0.049-0.071,0.098-0.14,0.143-0.212
				c-0.117-0.026-0.234-0.052-0.353-0.072c-0.026,0.095-0.052,0.189-0.071,0.284C56.604,13.314,56.699,13.314,56.791,13.314z"/>
			<path fill-rule="evenodd" clip-rule="evenodd" fill="#231F20" d="M48.979,18c-0.144-0.049-0.28-0.095-0.424-0.14
				c-0.026,0.091-0.046,0.189-0.072,0.28c0,0.026,0,0.049,0,0.072c0.14,0.049,0.284,0.094,0.424,0.143
				C48.934,18.238,48.956,18.121,48.979,18z"/>
			<path fill-rule="evenodd" clip-rule="evenodd" fill="#231F20" d="M43.086,18.427c-0.098,0-0.189,0-0.287,0
				c-0.069,0.092-0.137,0.189-0.209,0.281c0,0.026,0,0.049,0,0.075C43.001,18.747,42.982,18.773,43.086,18.427z"/>
			<path fill-rule="evenodd" clip-rule="evenodd" fill="#231F20" d="M59.14,20.274c0.189-0.238,0.374-0.473,0.567-0.711
				c-0.091-0.532-0.47-0.652-1.07-0.639c-0.254,0.254-0.771,0.44-1.063,0.639C57.729,20.293,58.379,20.352,59.14,20.274z"/>
			<path fill-rule="evenodd" clip-rule="evenodd" fill="#231F20" d="M57.006,19.207c0,0.095,0,0.189,0,0.284
				c0.143-0.023,0.283-0.045,0.424-0.072C57.289,19.354,57.148,19.276,57.006,19.207z"/>
			<path fill-rule="evenodd" clip-rule="evenodd" fill="#231F20" d="M39.393,20.77c0.092-0.111,0.287-0.15,0.072-0.212
				C39.438,20.626,39.416,20.698,39.393,20.77z"/>
			<path fill-rule="evenodd" clip-rule="evenodd" fill="#231F20" d="M69.293,21.833c-0.026-0.163-0.049-0.33-0.071-0.496
				c-0.144-0.045-0.287-0.091-0.428-0.143c-0.022,0.098-0.05,0.189-0.071,0.287c0.095,0.117,0.192,0.235,0.284,0.352
				C69.104,21.833,69.195,21.833,69.293,21.833z"/>
			<path fill-rule="evenodd" clip-rule="evenodd" fill="#231F20" d="M69.362,24.959c-0.2-0.268-0.317-0.31-0.355-0.783
				c-0.967-0.45-2.804-0.992-3.126-2.055c-0.278-0.137-0.392-0.114-0.777-0.072c-0.025-0.144-0.049-0.288-0.072-0.428
				c-0.098,0-0.191,0-0.286,0c-0.022,0.121-0.046,0.238-0.071,0.356c0.423,1.034,1.362,1.422,2.273,1.774
				c0.258,0.411,0.16,0.64,0.427,1.064c-0.045,0.359,0,0.369,0.496,0.355c-0.026,0.238-0.045,0.473-0.071,0.711
				c0.026,0.023,0.045,0.049,0.071,0.068c0.51-0.176,0.783-0.581,1.352-0.78C69.267,25.103,69.313,25.031,69.362,24.959z"/>
			<path fill-rule="evenodd" clip-rule="evenodd" fill="#231F20" d="M77.601,23.185c0.022,0.094,0.049,0.189,0.071,0.287
				c0.072,0.02,0.144,0.046,0.212,0.068c0.049-0.022,0.095-0.049,0.144-0.068c0-0.098,0-0.193,0-0.287
				c-0.095-0.023-0.192-0.046-0.283-0.072C77.695,23.139,77.649,23.162,77.601,23.185z"/>
			<path fill-rule="evenodd" clip-rule="evenodd" fill="#231F20" d="M65.244,23.54c-0.072,0.307-0.141,0.617-0.213,0.923
				c0.382,0.366,0.477,0.509,0.641,1.135c0.14,0.023,0.28,0.046,0.424,0.072c0.166-0.189,0.332-0.381,0.496-0.567
				C66.532,24.405,66.011,23.589,65.244,23.54z"/>
			<path fill-rule="evenodd" clip-rule="evenodd" fill="#231F20" d="M47.061,27.941c-0.144-0.153-0.092-0.137-0.353-0.212
				c-0.45,0.688-0.901,1.374-1.351,2.059c0.685,0.121,1.374,0.239,2.062,0.359c0.164-0.098,0.333-0.193,0.496-0.288
				c0.039-0.293,0.029-0.313-0.072-0.567c0.029-0.3-0.845-0.659-1.207-0.711c0-0.023,0-0.046,0-0.072
				C46.78,28.32,46.92,28.131,47.061,27.941z"/>
			<path fill-rule="evenodd" clip-rule="evenodd" fill="#231F20" d="M43.726,28.865c0.091,0,0.189,0,0.28,0c0-0.023,0-0.043,0-0.069
				c-0.176-0.202-0.206-0.241-0.564-0.287C43.536,28.63,43.628,28.744,43.726,28.865z"/>
			<path fill-rule="evenodd" clip-rule="evenodd" fill="#231F20" d="M75.258,28.865c0.045-0.043,0.091-0.095,0.143-0.141
				c-0.052,0-0.098,0-0.143,0C75.258,28.771,75.258,28.822,75.258,28.865z"/>
			<path fill-rule="evenodd" clip-rule="evenodd" fill="#231F20" d="M76.536,30.356c-0.183-0.355-0.323-0.685-0.712-0.848
				c-0.022,0.091-0.049,0.189-0.071,0.28c0.163,0.261,0.334,0.522,0.496,0.783c0.049,0.026,0.095,0.046,0.144,0.072
				C76.438,30.545,76.486,30.454,76.536,30.356z"/>
			<path fill-rule="evenodd" clip-rule="evenodd" fill="#231F20" d="M48.199,30.216c-0.117-0.022-0.238-0.049-0.356-0.068
				c0,0.068,0,0.137,0,0.208c0.118,0.049,0.239,0.098,0.356,0.144C48.199,30.405,48.199,30.311,48.199,30.216z"/>
			<path fill-rule="evenodd" clip-rule="evenodd" fill="#231F20" d="M77.959,30.78c0.138,0.072,0.28,0.144,0.421,0.215
				c0.144,0,0.287,0,0.428,0c-0.049-0.254-0.026-0.215-0.141-0.353c-0.141-0.215-0.013-0.12-0.287-0.215
				c-0.095,0.045-0.187,0.095-0.283,0.143C78.051,30.643,78.002,30.715,77.959,30.78z"/>
			<path fill-rule="evenodd" clip-rule="evenodd" fill="#231F20" d="M32.365,44.063c0.045-0.042,0.091-0.094,0.14-0.143
				c-0.049,0-0.095,0-0.14,0C32.365,43.969,32.365,44.021,32.365,44.063z"/>
			<path fill-rule="evenodd" clip-rule="evenodd" fill="#231F20" d="M33.924,47.473c0-0.071,0-0.144,0-0.215
				c-1.507-0.927-2.382-2.447-4.62-2.623c-0.163,0.045-0.326,0.091-0.496,0.144c-0.065,0.068-0.137,0.137-0.209,0.208
				c0,0.026,0,0.046,0,0.072c0.482,0.117,0.656-0.072,1.135-0.144c0.193,0.209,2.402,1.886,2.555,1.918
				c0.107,0.281,0.055,0.183,0,0.568c0.521,0.049,1.044,0.094,1.563,0.143C33.875,47.519,33.902,47.496,33.924,47.473z"/>
			<path fill-rule="evenodd" clip-rule="evenodd" fill="#231F20" d="M29.379,45.554c-0.049,0-0.095,0-0.14,0
				c0,0.049,0,0.098,0,0.144C29.285,45.652,29.33,45.603,29.379,45.554z"/>
			<path fill-rule="evenodd" clip-rule="evenodd" fill="#231F20" d="M34.636,48.824c0.209,0.202,0.698,0.333,0.92,0.496
				c0.666-0.199,1.054-0.229,1.918-0.144c0.026-0.022,0.049-0.045,0.072-0.072c0-0.072,0-0.14,0-0.208
				c-0.803-0.555-1.438-0.979-2.77-1.071C34.917,48.204,35.239,48.706,34.636,48.824z"/>
			<path fill-rule="evenodd" clip-rule="evenodd" fill="#231F20" d="M31.653,48.399c0.072,0.359,0.095,0.294,0.284,0.496
				c0.094-0.026,0.186-0.049,0.284-0.072c0.069-0.046,0.144-0.098,0.212-0.144c-0.068-0.072-0.143-0.14-0.212-0.208
				C32.032,48.445,31.843,48.419,31.653,48.399z"/>
			<path fill-rule="evenodd" clip-rule="evenodd" fill="#231F20" d="M34.212,48.964c0.02,0,0.045,0,0.068,0
				c0.088-0.192,0.049-0.114,0.069-0.284c-0.137-0.023-0.281-0.045-0.424-0.072c0,0.072,0,0.144,0,0.216
				c0.045,0.045,0.095,0.098,0.144,0.14C34.114,48.964,34.163,48.964,34.212,48.964z"/>
			<path fill-rule="evenodd" clip-rule="evenodd" fill="#231F20" d="M38.398,49.46c0,0.022,0,0.049,0,0.075
				c0.238,0.019,0.473,0.046,0.711,0.068c0.088-0.195,0.052-0.117,0.072-0.283c-0.238-0.049-0.476-0.095-0.711-0.144
				C38.447,49.271,38.424,49.372,38.398,49.46z"/>
			<path fill-rule="evenodd" clip-rule="evenodd" fill="#231F20" d="M53.667,64.374c-0.022-0.209-0.049-0.424-0.071-0.636
				c-0.813-0.514-2.337-0.946-3.265-1.068c-0.803-1.066-1.244-3.079-2.699-3.833c-0.982-0.513-1.82-0.063-2.77-0.427
				c-0.153-0.059-3.791-3.302-3.834-3.407c-0.718-0.301-1.175,0.431-1.918,0.21c-0.212-0.164-0.427-0.33-0.64-0.496
				c-0.355,0-0.708,0-1.067,0c-0.512-0.258-0.254-0.726-1.207-0.784c0.026-0.095,0.052-0.185,0.072-0.28
				c-0.046-0.049-0.094-0.095-0.14-0.144c-0.023,0.166-0.049,0.329-0.072,0.496c-0.31,0.099-0.614,0.188-0.924,0.283
				c-0.072-0.162-0.143-0.329-0.215-0.491c0.143-0.122,0.287-0.239,0.427-0.36c-0.141-0.261-0.056-0.182-0.427-0.212
				c-0.506,0.5-1.319,0.698-2.059,0.64c-0.179,0.265-0.141,0.591-0.353,0.924c-0.199,0.313-0.656,0.297-0.852,0.711
				c-0.529-0.277-0.447-0.665-1.139-0.639c0.212,1.141,1.165,2.525,0.711,3.905c-0.271,0.825-2.451,1.68-2.13,3.193
				c-0.082,0.359-0.014,0.513,0.424,0.572c0.049,0.067,0.095,0.139,0.144,0.212c-0.284,0.283-0.568,0.567-0.855,0.852
				c0.052,0.701,3.918,7.266,4.265,7.526c0.955,0.73,2.861,1.182,3.409,2.274c0.939,1.889-0.13,4.558,0.424,6.464
				c0.104,0.353,0.457,0.528,0.355,1.136c-0.189,1.161-0.434,2.434,0.356,3.409c0.045,0.049,0.098,0.095,0.143,0.141
				c-0.026-0.141-0.045-0.288-0.071-0.428c0.026-0.022,0.045-0.046,0.071-0.072c0.431,0.153,0.509,0.728,0.568,1.211
				c-0.072,0.046-0.144,0.095-0.215,0.144c-0.045,0.068-0.091,0.138-0.144,0.209c0.169,0.049,0.333,0.098,0.499,0.144
				c-0.071,0.166-0.14,0.332-0.212,0.496c0.613,0.626,1.909,1.702,2.839,1.35c0.098,0.008,0.868-0.926,1.067-1.135
				c-0.284-0.117-0.568-0.235-0.852-0.358c-0.049-0.069-0.098-0.138-0.144-0.209c0.192-0.216,0.304-0.269,0.711-0.287
				c0.068-0.163,0.143-0.327,0.212-0.496c-0.095-0.238-0.186-0.476-0.284-0.708c0.026-0.049,0.049-0.098,0.072-0.147
				c0.355,0.05,0.711,0.099,1.063,0.147c0.046-0.238,0.098-0.476,0.144-0.711c1.106-0.092,2.029-0.076,2.767-0.644
				c0-0.046,0-0.092,0-0.141c-0.254-0.371-0.434-0.688-0.92-0.851c-0.049-0.072-0.098-0.144-0.144-0.216c0-0.02,0-0.046,0-0.065
				c0.679,0.184,1.944,0.699,2.629,0.209c0.457-0.375,0.973-1.26,1.416-1.703c0.229-0.225,0.415,0.02,0.644-0.071
				c0.825-0.326,1.027-1.299,1.203-2.343c0.619-0.578,1.912-1.161,2.773-1.42c0.45-0.022,0.9-0.049,1.352-0.074
				c1.931-0.96,1.974-3.55,2.551-5.75c1.436-0.894,3.257-2.767,2.56-4.973C58.238,65.111,55.569,63.454,53.667,64.374z
				 M35.131,55.499c-0.026,0-0.045,0-0.072,0c-0.153-0.228-0.231-0.268-0.284-0.639c0.072-0.092,0.141-0.189,0.212-0.284
				c0.215,0.091,0.084-0.004,0.215,0.141c0.023,0.025,0.046,0.052,0.072,0.071C35.275,55.146,35.246,55.311,35.131,55.499z"/>
			<path fill-rule="evenodd" clip-rule="evenodd" fill="#231F20" d="M41.879,55.355c0.094-0.025,0.189-0.045,0.284-0.071
				c-0.078-0.255-0.056-0.209-0.216-0.353C41.925,55.072,41.905,55.213,41.879,55.355z"/>
			<path fill-rule="evenodd" clip-rule="evenodd" fill="#231F20" d="M42.091,88.167c0.095,0,0.189,0,0.284,0
				c0-0.046,0-0.095,0-0.145c-0.235-0.091-0.47-0.183-0.708-0.28C41.808,87.879,41.947,88.022,42.091,88.167z"/>
		</g>
		<g>
			<radialGradient id="SVGID_8_" cx="50.8408" cy="31.3599" r="65.4754" gradientUnits="userSpaceOnUse">
				<stop  offset="0.2788" style="stop-color:#FFFFFF"/>
				<stop  offset="0.37" style="stop-color:#FAFAFA"/>
				<stop  offset="0.482" style="stop-color:#EBEBEB"/>
				<stop  offset="0.6049" style="stop-color:#D2D2D2"/>
				<stop  offset="0.7349" style="stop-color:#B0AFAF"/>
				<stop  offset="0.7425" style="stop-color:#AEADAD"/>
				<stop  offset="0.8204" style="stop-color:#4C5358"/>
				<stop  offset="1" style="stop-color:#FFFFFF"/>
			</radialGradient>
			<path fill-rule="evenodd" clip-rule="evenodd" fill="url(#SVGID_8_)" d="M29.399,54.367c-2.378-0.281-1.034-3.058-0.924-4.611
				c-0.29-0.188-0.411-0.319-0.567-0.643c-0.783-0.166-1.566-0.333-2.343-0.496c0.369-1.198,1.58-2.62,1.704-3.694
				c-0.412-0.16-1.031-0.303-1.563-0.14c-0.356,0.183-0.891,1.148-1.064,1.491c-0.544-0.023-1.093-0.049-1.634-0.069
				c-0.239-0.313-0.473-0.62-0.712-0.926c-1.011-3.064,1.88-8.836,4.546-6.108c0.166,0,0.333,0,0.496,0
				c0.049-0.071,0.095-0.143,0.144-0.215c0.068-0.962,2.404,0.431,2.842,0.431c0.496,0.818,0.483,2.519,0.708,3.55
				c0.117,0.026,0.238,0.045,0.356,0.068c0.662-1.151-0.065-2.574,0.355-3.905c0.173-0.536,3.097-2.483,3.693-2.627
				c0.245-0.626,0.238-1.162,0.141-1.85c0.117-0.046,0.238-0.091,0.355-0.137c0.401,0.848,1.354-1.24,1.847-1.495
				c0.496-0.049,0.995-0.094,1.491-0.143c0.046-0.307,0.098-0.614,0.144-0.92c0.385-0.617,2.649-1.279,3.406-1.208
				c-0.137,0.281-0.392,0.346-0.711,0.424c-0.137,0.225-0.189,0.242-0.209,0.64c0.092,0.026,0.189,0.045,0.281,0.071
				c0.776-0.463,1.847-1.021,2.841-1.207c-0.049-0.189-0.095-0.378-0.14-0.568c-0.049-0.026-0.098-0.049-0.144-0.072
				c-0.164,0.215-0.333,0.424-0.496,0.64c-0.521,0.065-0.933-0.137-1.422-0.424c-0.059-0.346-0.02-0.476,0.072-0.783
				c-0.141-0.111-0.098-0.098-0.353-0.144c-0.026-0.046-0.052-0.091-0.072-0.144c0.209-0.045,0.424-0.091,0.64-0.137
				c0.045-0.144,0.091-0.287,0.14-0.431c-0.095-0.046-0.189-0.092-0.284-0.141c-0.587-0.225-1.553,0.271-1.99,0.496
				c-0.023,0-0.046,0-0.072,0c0.845-1.746,2.636-0.594,4.404-0.992c0.559-0.127,1.273-0.62,1.919-0.852
				c0.114-0.235,0.153-0.516,0.144-0.927c-0.434-0.238-1.853-1.227-1.991-1.697c-0.231-0.796-0.107-1.586-0.639-2.206
				c-0.431,0.346-0.594,0.728-1.208,0.92c-0.241-0.179-0.254-0.28-0.639-0.352c0.072-0.333,0.143-0.666,0.215-0.995
				c-0.529-0.75-0.946-1.1-2.062-1.208c-0.255,0.714-0.483,1.371-1.135,1.703c0.078,0.624,0.238,0.904,0.071,1.491
				c-0.463,0.3-0.825,0.617-1.563,0.646c-0.192,0.587-0.382,1.178-0.571,1.769c-0.189,0.072-0.378,0.144-0.564,0.215
				c-0.711-0.666-0.225-1.573,0.14-2.203c-0.248-0.277-0.431-0.147-0.78-0.355c-0.708-0.421-0.414-1.422-1.563-1.488
				c0.138-0.581,0.255-0.688,0.141-1.279c1.406-1.302,2.992-1.461,4.617-2.414c0.026,0.02,0.049,0.046,0.072,0.072
				c-0.189,0.208-0.378,0.424-0.568,0.633c0,0.098,0,0.192,0,0.287c0.392,0.052,0.437-0.026,0.78-0.144
				c0.144,0.117,0.284,0.238,0.427,0.359c0.137-0.591-0.248-0.77-0.496-1.279c0-0.026,0-0.049,0-0.072
				c0.483-0.261,0.771,0.118,1.348-0.144c0.395-0.176,0.268-0.607,0.708-0.78c0.134-0.29,0.124-0.277,0-0.571
				c0-0.02,0-0.045,0-0.072c0.405,0.026,0.806,0.052,1.211,0.072c0.225,0.346,0.671,1.018,0.564,1.422
				c-0.215,0.366-0.548,0.34-0.708,0.78c-0.343,0.153-0.826,0.01-1.207,0.141c-0.069,0.049-0.14,0.098-0.212,0.144
				c0,0.049,0,0.095,0,0.144c0.378,0.026,0.757,0.049,1.135,0.072c0.3,0.796,0.679,1.148,1.422,1.491c0.092,0,0.189,0,0.281,0
				c-0.144-0.264-0.281-0.522-0.424-0.783c0-0.023,0-0.046,0-0.069c0.261,0.141,0.519,0.281,0.78,0.424
				c0.265-0.199,0.336-0.241,0.355-0.711c-0.143-0.189-0.284-0.375-0.424-0.568c-0.144-0.183-0.072-0.065-0.072-0.284
				c0.117-0.022,0.235-0.049,0.353-0.068c0.293,0.189,0.31,0.427,0.639,0.568c0.239-0.144,0.477-0.287,0.711-0.431
				c0.026-0.069,0.045-0.137,0.072-0.208c-0.428-0.333-0.855-0.663-1.279-0.996c0.072-0.186,0.144-0.375,0.216-0.567
				c-0.783-0.996-0.849-1.863-2.487-1.847c-0.189,0.212-0.378,0.427-0.567,0.64c-0.026-0.072-0.049-0.141-0.072-0.212
				c0.144-0.215,0.281-0.427,0.424-0.639c-0.144,0-0.281,0-0.424,0c0.127-0.316,0.277-0.365,0.568-0.5
				c0.401,0.193,0.946,0.294,1.563,0.285c0.048-0.164,0.094-0.33,0.14-0.496c0.617-0.19,1.233-0.379,1.847-0.568
				c0.118,0.072,0.238,0.144,0.359,0.212c0.124,0.277,0.094,0.153,0,0.428c0.254,0.222,0.985,0.274,1.347,0.355
				c0.333,0.519,0.528,0.832,0.496,1.771c0.049,0.026,0.094,0.052,0.14,0.072c0.098-0.045,0.192-0.091,0.287-0.141
				c0.117,0.167,0.234,0.33,0.356,0.497c-0.095,0.022-0.189,0.049-0.284,0.075c0.144,0.144,0.125,0.118,0.425,0.14
				c0.238,0.626-0.3,0.637-0.711,0.996c-0.027,0.28-0.047,0.567-0.072,0.848c0.939,1.305,1.207,2.793,3.198,3.054
				c0.462-0.809,0.564-1.899,0.712-2.839c0.767-0.417,1.422-0.261,1.631-1.416c0.547-0.157,1.103-0.183,1.35-0.643
				c0.096-0.097,0.189-0.192,0.285-0.284c-0.362-0.183-0.715-0.016-0.996-0.072c-0.071-0.049-0.143-0.098-0.211-0.143
				c0-0.023,0-0.046,0-0.072c0.166-0.118,0.329-0.234,0.495-0.352c0.192,0.095,0.382,0.189,0.571,0.28c0.022,0,0.045,0,0.068,0
				c0.023-0.046,0.049-0.091,0.072-0.14c-0.369-0.313-0.872-0.496-1.348-0.708c0-0.045,0-0.097,0-0.143
				c0.163-0.095,0.326-0.189,0.496-0.284c-0.17-0.417-1.499-1.912-1.847-2.13c-0.036-0.258,0.006-0.134,0.144-0.355
				c0-0.069,0-0.141,0-0.212c-0.288,0.094-0.571,0.189-0.856,0.284c-0.13-0.343-0.906-0.545-1.422-0.568c0-0.072,0-0.14,0-0.215
				c1.07-0.212,1.812,0.258,2.843,0c0.512,0.075,1.164-0.578,1.35-1.061c-0.26-0.169-0.518-0.333-0.779-0.502
				c-0.049-0.068-0.098-0.137-0.143-0.208c0.173-0.183,0.143-0.18,0.495-0.216c0-0.022,0-0.052,0-0.072
				c-0.662-0.144-1.324-0.28-1.986-0.424c-0.513-0.176-0.938-0.711-1.352-0.854c-1.204,0-2.411,0-3.619,0
				c-0.926,0.072-1.85,0.144-2.773,0.215c-2.095,0.353-4.845,0.418-6.532,1.351c-0.353,0.346-0.773,0.809-1.063,1.204
				c-2.584-0.134-5.752,1.165-7.531,2.486c0.01,0.323,0.036,0.509,0.215,0.714c-0.415,0.496-1.018,1.08-1.351,1.628
				c0,0.143,0,0.284,0,0.428c-1.756,1.703-3.89,3.337-4.973,5.684c0.202,0.147,0.144,0.098,0.427,0.068c0,0.026,0,0.049,0,0.071
				c-0.153,0.265-0.16,0.327-0.499,0.428c-0.046-0.072-0.092-0.143-0.137-0.215c-2.088,2.095-4.627,4.483-5.328,7.883
				c-0.121,0.574,0.31,0.901,0.14,1.566c-0.741,2.911-1.044,4.477-0.924,7.596c0.049,0,0.095,0,0.144,0
				c0.31-1.794,0.01-4.564,0.78-6.251c0.098,0.026,0.189,0.052,0.287,0.075c0.105,0.714-0.235,1.256-0.359,1.843
				c-0.215,1.031,0.196,3.286,0.359,4.193c0.212,1.223-0.476,2.979-0.287,3.55c0.444,1.348,2.343,3.893,3.978,3.69
				c0.492,0.555,0.682,1.22,1.138,1.847c0.796,1.102,2.287,0.946,2.695,2.558c0.267,0.032,0.117,0.078,0.287-0.145
				c0.375,0.118,0.372,0.229,0.568,0.5c0,0.023,0,0.049,0,0.075c-0.323,0.102-0.229,0.049-0.496-0.216
				c-0.052,0.308-0.098,0.614-0.144,0.921c0.597,0.534,2.362,1.886,2.698,2.485c0.072,0.046,0.141,0.099,0.212,0.145
				c0.071-0.027,0.143-0.046,0.215-0.073c-0.026-0.212-0.049-0.423-0.072-0.639c0.421-0.241,0.502-0.379,1.063-0.355
				C30.538,53.828,29.905,54.181,29.399,54.367z M38.917,25.182c0.072-0.026,0.14-0.049,0.208-0.072c0.072,0,0.144,0,0.216,0
				c-0.046,0.095-0.095,0.189-0.144,0.284c-0.091,0-0.189,0-0.28,0C38.917,25.325,38.917,25.253,38.917,25.182z M44.382,19.001
				c-0.023,0.046-0.046,0.095-0.069,0.144c-0.316-0.098-0.147,0.052-0.287-0.216c0.072,0,0.143,0,0.215,0
				C44.287,18.956,44.336,18.979,44.382,19.001z M43.674,16.163c0.046-0.071,0.091-0.143,0.14-0.215
				c0.213,0.137,0.121,0.013,0.213,0.287c-0.118,0-0.235,0-0.353,0C43.674,16.208,43.674,16.186,43.674,16.163z M50.701,12.538
				c0.121,0,0.238,0,0.355,0c0,0.026,0,0.049,0,0.075c-0.068,0.091-0.14,0.189-0.211,0.28c-0.118-0.026-0.235-0.045-0.355-0.072
				c-0.049,0-0.096,0-0.141,0C50.467,12.73,50.584,12.633,50.701,12.538z M36.642,12.326c0.141,0.026,0.284,0.049,0.428,0.072
				c0.029,0.548,0.28,0.796,0.639,0.999c0.78-0.098,1.56-0.196,2.343-0.288c0,0.046,0,0.091,0,0.141
				c-0.561,0.303-1.599,0.505-2.343,0.714c-0.052,0.114-0.098,0.231-0.143,0.352c0.163,0,0.333,0,0.496,0c0,0.026,0,0.046,0,0.072
				c-0.268,0.32-0.666,0.665-1.136,0.783c-0.072,0.258-0.143,0.516-0.215,0.777c0.17,0.118,0.333,0.238,0.5,0.355
				c-0.19,0.072-0.379,0.141-0.568,0.212c-0.147-0.235-0.277-0.326-0.57-0.424c0-0.098,0-0.189,0-0.284c0.117,0,0.241,0,0.358,0
				c0.169-0.721-0.333-0.92-0.287-1.419c-0.189-0.304-0.319-0.392-0.78-0.424C35.791,13.416,36.215,12.868,36.642,12.326z
				 M35.435,31.713c-0.662,0.117-1.328,0.235-1.987,0.356c-0.049-0.069-0.098-0.141-0.144-0.212
				c0.144-0.144,0.284-0.284,0.424-0.424c0.071,0.068,0.143,0.14,0.215,0.208c0.496-0.068,0.992-0.141,1.491-0.208
				c0.023,0.045,0.045,0.091,0.068,0.14C35.48,31.619,35.458,31.668,35.435,31.713z M36.642,30.937c0.118,0,0.239,0,0.356,0
				c0,0.091,0,0.189,0,0.28c-0.516,0.187-1.015,0.052-1.563,0.072C35.634,30.839,36.188,31.084,36.642,30.937z M35.22,29.371
				c0.095,0.118,0.192,0.235,0.284,0.353c0,0.215,0,0.431,0,0.639c-0.163-0.068-0.329-0.137-0.496-0.208
				c-0.359,0.287-0.443,0.757-0.923,0.92c0-0.163,0-0.33,0-0.492c-0.141,0-0.284,0-0.427,0c0.222-0.35,0.972-1.041,0-1.211
				c-0.878,0.621-1.155,1.269-1.775,2.13c-0.091,0-0.186,0-0.281,0c-0.003-1.354,0.692-2.006,1.704-2.414
				C34.126,29.106,34.551,29.227,35.22,29.371z M33.588,16.234c0.141-0.098,0.284-0.192,0.427-0.287c0-0.072,0-0.141,0-0.212
				c0.209,0.049,0.424,0.095,0.64,0.141c0.045,0,0.091,0,0.14,0c-0.022,0.118-0.049,0.242-0.072,0.358
				c-0.463,0.15-0.754,0.164-1.135,0.069C33.588,16.28,33.588,16.254,33.588,16.234z M33.588,26.389c0.069,0,0.141,0,0.212,0
				c0,0.091,0,0.189,0,0.284c-0.022,0.029-0.048,0.046-0.071,0.072c-0.046,0-0.092,0-0.141,0c-0.049-0.042-0.095-0.095-0.14-0.144
				C33.494,26.532,33.54,26.46,33.588,26.389z M34.225,28.731c-0.02,0.026-0.046,0.049-0.068,0.071
				c-0.897-0.229-1.315-0.672-2.346-0.567c-0.069-0.095-0.141-0.189-0.209-0.284c0.398-0.395,1.201-0.427,1.704-0.708
				C34.055,27.276,34.276,27.922,34.225,28.731z M32.593,21.276c0.022-0.069,0.049-0.141,0.071-0.212c0.072,0,0.141,0,0.212,0
				c0,0.023,0,0.046,0,0.071c-0.072,0.072-0.141,0.141-0.212,0.212C32.643,21.325,32.616,21.299,32.593,21.276z M32.238,18.222
				c0.189,0,0.378,0,0.567,0c0.026,0.049,0.049,0.095,0.072,0.141c-0.274,0.229-0.597,0.183-0.995,0.143
				C32.016,18.257,32.019,18.355,32.238,18.222z M32.309,19.713c0.023,0.072,0.049,0.144,0.069,0.215c-0.14,0-0.281,0-0.424,0
				c-0.023-0.072-0.046-0.144-0.072-0.215C32.025,19.713,32.169,19.713,32.309,19.713z M30.89,22.056c0.045,0,0.095,0,0.14,0
				c0,0.026,0,0.046,0,0.072c-0.045,0.046-0.095,0.091-0.14,0.144c-0.026-0.026-0.049-0.052-0.072-0.072
				C30.841,22.15,30.864,22.102,30.89,22.056z M31.386,23.05c0.267,0.141,0.463,0.268,0.783,0.428
				c-0.261,0.614-0.522,1.23-0.783,1.847c-0.092,0.019-0.189,0.045-0.281,0.068c0.137-0.329,0.235-0.685,0.353-1.135
				c0-0.14,0-0.284,0-0.427c-0.189,0.118-0.378,0.238-0.568,0.359c-0.026-0.072-0.049-0.144-0.072-0.215
				C31.021,23.615,31.288,23.485,31.386,23.05z M24.499,22.48c0.045,0,0.094,0,0.143,0c0,0.098,0,0.189,0,0.287
				c-0.049,0.02-0.098,0.046-0.143,0.072c-0.023,0-0.049,0-0.072,0C24.449,22.718,24.476,22.601,24.499,22.48z M22.792,28.379
				c0.072,0.045,0.144,0.091,0.216,0.137c0,0.072,0,0.144,0,0.215c-0.072,0.049-0.144,0.091-0.216,0.143c-0.023,0-0.045,0-0.072,0
				C22.688,28.574,22.688,28.614,22.792,28.379z"/>
			<radialGradient id="SVGID_9_" cx="50.8398" cy="31.3613" r="65.4717" gradientUnits="userSpaceOnUse">
				<stop  offset="0.2788" style="stop-color:#FFFFFF"/>
				<stop  offset="0.37" style="stop-color:#FAFAFA"/>
				<stop  offset="0.482" style="stop-color:#EBEBEB"/>
				<stop  offset="0.6049" style="stop-color:#D2D2D2"/>
				<stop  offset="0.7349" style="stop-color:#B0AFAF"/>
				<stop  offset="0.7425" style="stop-color:#AEADAD"/>
				<stop  offset="0.8204" style="stop-color:#4C5358"/>
				<stop  offset="1" style="stop-color:#FFFFFF"/>
			</radialGradient>
			<path fill-rule="evenodd" clip-rule="evenodd" fill="url(#SVGID_9_)" d="M89.541,54.266c-0.025-1.142-0.045-2.277-0.071-3.413
				c0.536-2.682,0.539-6.225-0.071-9.305c-0.698-3.524-1.384-6.037-2.578-8.719c-1.621-3.628-3.974-6.962-6.369-9.955
				c-0.806-0.64-1.611-1.279-2.414-1.918c-2.088-2.039-3.445-3.645-5.896-5.276c-2.14-1.429-7.096-4.104-10.013-4.441
				c-0.046,0.023-0.095,0.049-0.144,0.072c-0.025,0.095,0.45-0.107,0.428-0.017c0.839,0.64,1.771,0.996,2.627,1.563
				c0.697,0.47,1.185,1.479,2.062,1.779c0,0.026,0,0.045,0,0.072c-0.637,0.218-0.998-0.307-1.706-0.359
				c0.126-0.154,0.133-0.141,0.355-0.209c0-0.121,0-0.241,0-0.359c-0.992-0.346-2.108-0.111-3.126-0.212
				c-0.365,0.79,1.86,3.583,2.63,3.693c-0.127,0.499-0.095,0.629-0.144,1.21c0.649,0.483,1.476,1.475,2.414,1.56
				c0-0.288,0-0.568,0-0.855c0.189,0.026,0.379,0.049,0.568,0.072c-0.023-0.118-0.047-0.235-0.069-0.352
				c0.428,0.15,0.311,0.15,0.212,0.496c0.418,0.493,1.185,0.528,1.352,1.276c0.021,0,0.046,0,0.071,0
				c0.092-0.042,0.189-0.088,0.281-0.141c0.025-0.235,0.046-0.473,0.072-0.711c-1.358-1.256-3.76-2.813-4.687-4.33
				c0-0.023,0-0.049,0-0.069c0.118-0.026,0.235-0.049,0.354-0.072c1.063,0.646,1.542,2.085,3.197,2.127c0-0.189,0-0.379,0-0.568
				c0.137-0.111,0.098-0.095,0.352-0.144c0-0.046,0-0.095,0-0.137c-0.421-0.137-0.525-0.183-1.063-0.144
				c0.176-0.522,0.634-0.359,1.063-0.215c0.071,0.117,0.144,0.235,0.216,0.359c0.156,0.359,0.011,0.754-0.072,1.063
				c0.219,0.307,0.768,0.574,1.136,0.711c0.052,0.28,0.092,0.189-0.14,0.352c0.237,0.754,0.969,0.728,1.207,1.56
				c0,0.026,0,0.049,0,0.072c-0.141,0-0.285,0-0.428,0c-0.023,0.284-0.046,0.571-0.068,0.855c-0.34,0.052-0.44,0.042-0.711,0.287
				c-0.343-0.144-0.722-0.257-0.996-0.431c-0.022,0-0.045,0-0.072,0c0.217,0.261,0.428,0.522,0.641,0.783
				c-0.5,0.803,0.019,1.879-0.072,2.77c-0.052,0.532-0.449,0.535-0.352,0.995c-0.196,0.189-0.536,0.209-0.711,0.424
				c-0.023,0.046-0.047,0.091-0.073,0.144c0,0.019,0,0.046,0,0.068c1.403,0.597,2.614,0.689,2.771,2.486
				c-0.772,0.251-2.229,0.261-2.559,0.995c0.748,0.999,1.321,2.512,1.922,3.622c0.281-0.072,0.568-0.14,0.849-0.211
				c0.167,0.14,0.333,0.284,0.499,0.423c0.552-0.137,0.649-0.521,1.204-0.708c0.728-1.24-0.425-2.401,0.216-3.621
				c-0.095-0.614-0.365-0.568-0.425-1.208c0.32-0.228,0.291-0.28,0.712-0.144c0.222-0.238,0.333-0.623,0.353-1.063
				c0.619-0.108,2.538,1.227,3.622,1.416c0.044-0.186,0.097-0.375,0.143-0.567c-0.382-0.3-0.899-0.235-1.423-0.424
				c-0.645-0.232-1.398-0.999-1.918-1.423c0-0.091,0-0.186,0-0.281c0.025-0.026,0.049-0.049,0.072-0.071
				c0.215,0.039,2.806,1.011,2.985,1.135c0.813,0.584,1.497,1.977,2.554,2.271c-0.094-0.509-0.332-0.588-0.212-0.92
				c-0.375-0.316-0.76-0.639-1.138-0.927c0-0.235,0-0.47,0-0.708c0.169-0.049,0.332-0.094,0.499-0.14
				c-0.023-0.169-0.049-0.333-0.072-0.499c0.023-0.023,0.049-0.046,0.072-0.069c0.048,0,0.094,0,0.14,0c0.026,0,0.049,0,0.072,0
				c0.078,0.378-0.039,0.427-0.144,0.783c0.476,0.496,0.946,0.992,1.422,1.488c0.166,0,0.33,0,0.496,0
				c0.121-0.339-0.036-0.327,0.428-0.355c-0.022-0.238-0.05-0.474-0.068-0.708c0.956,0.352,1.856,2.473,2.199,3.478
				c-0.307,0.369-0.418,0.294-0.359,0.923c-0.564,0.359-1.021,0.307-1.771,0.212c-0.238,0.92,0.33,1.174,0.428,1.991
				c-0.026,0.02-0.053,0.045-0.072,0.068c-1.377-0.186-2.075-0.401-3.409-0.568c-0.506-0.799-0.44-1.713-1.419-2.059
				c-0.709,0.574-1.86,0.966-2.487,1.632c-0.378,0.411-0.431,1.057-0.854,1.422c-0.687,0.157-0.95,0.196-1.489-0.072
				c-0.156,0.411,0.16,0.734,0.073,1.136c-0.138,0.6-0.839,0.78-0.712,1.709c0.117,0.636,0.234,1.272,0.352,1.912
				c-0.202,0.842-1.16,1.618-1.487,2.629c-0.144,0.438-0.67,3.605-0.571,3.834c0.223,0.502,0.839,1.325,0.995,1.99
				c0.216,0.91-0.276,1.778-0.353,2.274c-0.006,0.026,0.45,1.586,0.496,1.771c0.232,0.15,0.591,0.092,0.779,0.216
				c0.049,0.166,0.096,0.329,0.141,0.492c1.237,1.146,2.448,3.479,4.688,3.485c0.425-0.418,1.061-0.979,1.707-1.14
				c0.281,0.023,0.567,0.049,0.849,0.075c1.109-0.358,1.312-1.99,2.773-2.205c0.28,0.358,0.567,0.711,0.849,1.063
				c0.31-0.209,0.619-0.424,0.926-0.636c0.095,0.071,0.189,0.143,0.284,0.212c0.559,1.076-0.313,2.773-0.144,3.622
				c0.248,1.239,1.557,2.225,1.207,3.977c-0.134,0.691-0.127,1.811-0.428,2.49c-0.473,1.069-1.204,2.365-1.487,3.614
				c-0.049,0.757-0.098,1.517-0.144,2.277c-0.294,1.083-1.605,4.568-2.344,5.182c0,0.072,0,0.144,0,0.215
				c0.046,0.023,0.095,0.046,0.141,0.072c1.648-1.24,2.692-3.727,3.766-5.54c1.883-3.185,3.589-7.067,4.193-11.437
				c0.067-0.509-0.301-1.061-0.076-1.628C89.17,55.222,89.451,54.781,89.541,54.266z M67.818,16.731c-0.046,0-0.095,0-0.144,0
				c-0.021,0-0.046,0-0.069,0c-0.022-0.046-0.049-0.098-0.071-0.144c0.049-0.046,0.095-0.095,0.141-0.143c0.071,0,0.144,0,0.216,0
				C67.864,16.541,67.844,16.633,67.818,16.731z M68.602,16.303c-0.072-0.069-0.145-0.141-0.216-0.212
				c-0.071-0.072-0.14-0.144-0.212-0.215c0.117-0.046,0.238-0.092,0.355-0.141c0.141,0.118,0.283,0.235,0.424,0.356
				C68.836,16.163,68.719,16.234,68.602,16.303z M79.676,24.686c0.071,0.329,0.144,0.659,0.215,0.991c0,0.027,0,0.046,0,0.072
				c-0.117,0.045-0.235,0.095-0.353,0.144c-0.984-0.548-1.784-1.961-2.274-2.982c0.141-0.072,0.284-0.144,0.429-0.216
				c-0.095-0.307-0.19-0.613-0.288-0.92c0.567,0.222,0.411,0.568,0.783,0.92c0.711,0.672,1.56,0.248,1.99,1.279
				c0.022,0.189,0.046,0.378,0.068,0.568C80.057,24.59,79.868,24.64,79.676,24.686z M85.431,46.487
				c-0.353-0.157-0.597-0.682-0.496-1.067c0.319,0.13,0.219,0.219,0.64,0.284C85.633,46.053,85.522,46.119,85.431,46.487z
				 M88.342,37.894c-0.046,0-0.092,0-0.141,0c-0.721-1.828-1.83-4.376-3.267-5.541c0.02-0.284-0.033-0.062,0.068-0.284
				c1.315,0.473,2.803,4.117,3.339,5.608C88.342,37.75,88.342,37.821,88.342,37.894z"/>
			<radialGradient id="SVGID_10_" cx="50.8555" cy="31.3726" r="65.4669" gradientUnits="userSpaceOnUse">
				<stop  offset="0.2788" style="stop-color:#FFFFFF"/>
				<stop  offset="0.37" style="stop-color:#FAFAFA"/>
				<stop  offset="0.482" style="stop-color:#EBEBEB"/>
				<stop  offset="0.6049" style="stop-color:#D2D2D2"/>
				<stop  offset="0.7349" style="stop-color:#B0AFAF"/>
				<stop  offset="0.7425" style="stop-color:#AEADAD"/>
				<stop  offset="0.8204" style="stop-color:#4C5358"/>
				<stop  offset="1" style="stop-color:#FFFFFF"/>
			</radialGradient>
			<path fill-rule="evenodd" clip-rule="evenodd" fill="url(#SVGID_10_)" d="M59.367,19.928c0.189-0.242,0.379-0.476,0.568-0.711
				c-0.085-0.535-0.464-0.652-1.064-0.64c-0.26,0.255-0.769,0.438-1.063,0.64C57.962,19.948,58.611,20.007,59.367,19.928z"/>
			<radialGradient id="SVGID_11_" cx="50.8369" cy="31.3535" r="65.4754" gradientUnits="userSpaceOnUse">
				<stop  offset="0.2788" style="stop-color:#FFFFFF"/>
				<stop  offset="0.37" style="stop-color:#FAFAFA"/>
				<stop  offset="0.482" style="stop-color:#EBEBEB"/>
				<stop  offset="0.6049" style="stop-color:#D2D2D2"/>
				<stop  offset="0.7349" style="stop-color:#B0AFAF"/>
				<stop  offset="0.7425" style="stop-color:#AEADAD"/>
				<stop  offset="0.8204" style="stop-color:#4C5358"/>
				<stop  offset="1" style="stop-color:#FFFFFF"/>
			</radialGradient>
			<path fill-rule="evenodd" clip-rule="evenodd" fill="url(#SVGID_11_)" d="M69.593,24.613c-0.195-0.271-0.315-0.313-0.355-0.783
				c-0.966-0.45-2.803-0.992-3.122-2.056c-0.281-0.137-0.393-0.118-0.784-0.072c-0.022-0.144-0.044-0.287-0.071-0.427
				c-0.09,0-0.188,0-0.284,0c-0.022,0.118-0.045,0.238-0.071,0.355c0.425,1.031,1.367,1.419,2.274,1.775
				c0.259,0.411,0.156,0.633,0.427,1.07c-0.042,0.353-0.002,0.362,0.496,0.349c-0.022,0.238-0.049,0.473-0.068,0.708
				c0.02,0.026,0.046,0.046,0.068,0.072c0.509-0.176,0.787-0.587,1.353-0.78C69.502,24.757,69.547,24.686,69.593,24.613z"/>
			<radialGradient id="SVGID_12_" cx="50.7998" cy="31.3711" r="65.6358" gradientUnits="userSpaceOnUse">
				<stop  offset="0.2788" style="stop-color:#FFFFFF"/>
				<stop  offset="0.37" style="stop-color:#FAFAFA"/>
				<stop  offset="0.482" style="stop-color:#EBEBEB"/>
				<stop  offset="0.6049" style="stop-color:#D2D2D2"/>
				<stop  offset="0.7349" style="stop-color:#B0AFAF"/>
				<stop  offset="0.7425" style="stop-color:#AEADAD"/>
				<stop  offset="0.8204" style="stop-color:#4C5358"/>
				<stop  offset="1" style="stop-color:#FFFFFF"/>
			</radialGradient>
			<path fill-rule="evenodd" clip-rule="evenodd" fill="url(#SVGID_12_)" d="M65.477,23.191c-0.073,0.307-0.146,0.62-0.217,0.927
				c0.386,0.359,0.477,0.502,0.64,1.136c0.144,0.019,0.283,0.045,0.429,0.072c0.166-0.193,0.329-0.378,0.498-0.568
				C66.761,24.052,66.238,23.237,65.477,23.191z"/>
			<radialGradient id="SVGID_13_" cx="50.8379" cy="31.3555" r="65.4031" gradientUnits="userSpaceOnUse">
				<stop  offset="0.2788" style="stop-color:#FFFFFF"/>
				<stop  offset="0.37" style="stop-color:#FAFAFA"/>
				<stop  offset="0.482" style="stop-color:#EBEBEB"/>
				<stop  offset="0.6049" style="stop-color:#D2D2D2"/>
				<stop  offset="0.7349" style="stop-color:#B0AFAF"/>
				<stop  offset="0.7425" style="stop-color:#AEADAD"/>
				<stop  offset="0.8204" style="stop-color:#4C5358"/>
				<stop  offset="1" style="stop-color:#FFFFFF"/>
			</radialGradient>
			<path fill-rule="evenodd" clip-rule="evenodd" fill="url(#SVGID_13_)" d="M47.295,27.596c-0.146-0.157-0.098-0.138-0.355-0.212
				c-0.45,0.685-0.9,1.374-1.347,2.059c0.685,0.117,1.37,0.234,2.055,0.352c0.17-0.091,0.333-0.189,0.5-0.28
				c0.036-0.297,0.029-0.317-0.069-0.571c0.026-0.297-0.848-0.656-1.207-0.708c0-0.026,0-0.046,0-0.072
				C47.008,27.975,47.152,27.785,47.295,27.596z"/>
			<radialGradient id="SVGID_14_" cx="50.8311" cy="31.377" r="65.422" gradientUnits="userSpaceOnUse">
				<stop  offset="0.2788" style="stop-color:#FFFFFF"/>
				<stop  offset="0.37" style="stop-color:#FAFAFA"/>
				<stop  offset="0.482" style="stop-color:#EBEBEB"/>
				<stop  offset="0.6049" style="stop-color:#D2D2D2"/>
				<stop  offset="0.7349" style="stop-color:#B0AFAF"/>
				<stop  offset="0.7425" style="stop-color:#AEADAD"/>
				<stop  offset="0.8204" style="stop-color:#4C5358"/>
				<stop  offset="1" style="stop-color:#FFFFFF"/>
			</radialGradient>
			<path fill-rule="evenodd" clip-rule="evenodd" fill="url(#SVGID_14_)" d="M48.431,29.867c-0.117-0.023-0.238-0.046-0.353-0.072
				c0,0.072,0,0.144,0,0.215c0.114,0.045,0.235,0.095,0.353,0.144C48.431,30.056,48.431,29.964,48.431,29.867z"/>
			<radialGradient id="SVGID_15_" cx="50.9307" cy="31.4478" r="65.548" gradientUnits="userSpaceOnUse">
				<stop  offset="0.2788" style="stop-color:#FFFFFF"/>
				<stop  offset="0.37" style="stop-color:#FAFAFA"/>
				<stop  offset="0.482" style="stop-color:#EBEBEB"/>
				<stop  offset="0.6049" style="stop-color:#D2D2D2"/>
				<stop  offset="0.7349" style="stop-color:#B0AFAF"/>
				<stop  offset="0.7425" style="stop-color:#AEADAD"/>
				<stop  offset="0.8204" style="stop-color:#4C5358"/>
				<stop  offset="1" style="stop-color:#FFFFFF"/>
			</radialGradient>
			<path fill-rule="evenodd" clip-rule="evenodd" fill="url(#SVGID_15_)" d="M32.593,43.717c0.049-0.049,0.094-0.095,0.143-0.14
				c-0.049,0-0.094,0-0.143,0C32.593,43.623,32.593,43.668,32.593,43.717z"/>
			<radialGradient id="SVGID_16_" cx="50.8496" cy="31.355" r="65.5008" gradientUnits="userSpaceOnUse">
				<stop  offset="0.2788" style="stop-color:#FFFFFF"/>
				<stop  offset="0.37" style="stop-color:#FAFAFA"/>
				<stop  offset="0.482" style="stop-color:#EBEBEB"/>
				<stop  offset="0.6049" style="stop-color:#D2D2D2"/>
				<stop  offset="0.7349" style="stop-color:#B0AFAF"/>
				<stop  offset="0.7425" style="stop-color:#AEADAD"/>
				<stop  offset="0.8204" style="stop-color:#4C5358"/>
				<stop  offset="1" style="stop-color:#FFFFFF"/>
			</radialGradient>
			<path fill-rule="evenodd" clip-rule="evenodd" fill="url(#SVGID_16_)" d="M34.156,47.127c0-0.072,0-0.144,0-0.215
				c-1.504-0.927-2.385-2.454-4.617-2.626c-0.164,0.042-0.333,0.095-0.496,0.14c-0.072,0.072-0.144,0.144-0.216,0.212
				c0,0.026,0,0.049,0,0.075c0.483,0.114,0.659-0.075,1.136-0.144c0.196,0.209,2.405,1.886,2.558,1.918
				c0.107,0.277,0.055,0.183,0,0.568c0.521,0.046,1.044,0.091,1.563,0.144C34.107,47.172,34.133,47.146,34.156,47.127z"/>
			<radialGradient id="SVGID_17_" cx="50.9463" cy="31.292" r="65.7957" gradientUnits="userSpaceOnUse">
				<stop  offset="0.2788" style="stop-color:#FFFFFF"/>
				<stop  offset="0.37" style="stop-color:#FAFAFA"/>
				<stop  offset="0.482" style="stop-color:#EBEBEB"/>
				<stop  offset="0.6049" style="stop-color:#D2D2D2"/>
				<stop  offset="0.7349" style="stop-color:#B0AFAF"/>
				<stop  offset="0.7425" style="stop-color:#AEADAD"/>
				<stop  offset="0.8204" style="stop-color:#4C5358"/>
				<stop  offset="1" style="stop-color:#FFFFFF"/>
			</radialGradient>
			<path fill-rule="evenodd" clip-rule="evenodd" fill="url(#SVGID_17_)" d="M29.611,45.208c-0.045,0-0.094,0-0.143,0
				c0,0.045,0,0.098,0,0.143C29.517,45.306,29.565,45.254,29.611,45.208z"/>
			<radialGradient id="SVGID_18_" cx="50.834" cy="31.3257" r="65.5468" gradientUnits="userSpaceOnUse">
				<stop  offset="0.2788" style="stop-color:#FFFFFF"/>
				<stop  offset="0.37" style="stop-color:#FAFAFA"/>
				<stop  offset="0.482" style="stop-color:#EBEBEB"/>
				<stop  offset="0.6049" style="stop-color:#D2D2D2"/>
				<stop  offset="0.7349" style="stop-color:#B0AFAF"/>
				<stop  offset="0.7425" style="stop-color:#AEADAD"/>
				<stop  offset="0.8204" style="stop-color:#4C5358"/>
				<stop  offset="1" style="stop-color:#FFFFFF"/>
			</radialGradient>
			<path fill-rule="evenodd" clip-rule="evenodd" fill="url(#SVGID_18_)" d="M34.868,48.478c0.205,0.202,0.702,0.333,0.923,0.496
				c0.666-0.202,1.051-0.235,1.918-0.144c0.02-0.026,0.046-0.049,0.069-0.072c0-0.072,0-0.14,0-0.215
				c-0.803-0.548-1.439-0.976-2.771-1.063C35.151,47.858,35.471,48.36,34.868,48.478z"/>
			<radialGradient id="SVGID_19_" cx="50.8477" cy="31.3682" r="65.4677" gradientUnits="userSpaceOnUse">
				<stop  offset="0.2788" style="stop-color:#FFFFFF"/>
				<stop  offset="0.37" style="stop-color:#FAFAFA"/>
				<stop  offset="0.482" style="stop-color:#EBEBEB"/>
				<stop  offset="0.6049" style="stop-color:#D2D2D2"/>
				<stop  offset="0.7349" style="stop-color:#B0AFAF"/>
				<stop  offset="0.7425" style="stop-color:#AEADAD"/>
				<stop  offset="0.8204" style="stop-color:#4C5358"/>
				<stop  offset="1" style="stop-color:#FFFFFF"/>
			</radialGradient>
			<path fill-rule="evenodd" clip-rule="evenodd" fill="url(#SVGID_19_)" d="M31.882,48.047c0.072,0.362,0.098,0.3,0.287,0.496
				c0.095-0.02,0.189-0.046,0.284-0.065c0.069-0.049,0.141-0.098,0.212-0.147c-0.071-0.068-0.143-0.14-0.212-0.212
				C32.264,48.096,32.074,48.073,31.882,48.047z"/>
			<radialGradient id="SVGID_20_" cx="50.8047" cy="31.3525" r="65.4206" gradientUnits="userSpaceOnUse">
				<stop  offset="0.2788" style="stop-color:#FFFFFF"/>
				<stop  offset="0.37" style="stop-color:#FAFAFA"/>
				<stop  offset="0.482" style="stop-color:#EBEBEB"/>
				<stop  offset="0.6049" style="stop-color:#D2D2D2"/>
				<stop  offset="0.7349" style="stop-color:#B0AFAF"/>
				<stop  offset="0.7425" style="stop-color:#AEADAD"/>
				<stop  offset="0.8204" style="stop-color:#4C5358"/>
				<stop  offset="1" style="stop-color:#FFFFFF"/>
			</radialGradient>
			<path fill-rule="evenodd" clip-rule="evenodd" fill="url(#SVGID_20_)" d="M34.44,48.618c0.023,0,0.046,0,0.072,0
				c0.085-0.193,0.052-0.118,0.071-0.288c-0.143-0.019-0.287-0.045-0.427-0.068c0,0.068,0,0.143,0,0.215
				c0.049,0.046,0.094,0.092,0.14,0.141C34.345,48.618,34.394,48.618,34.44,48.618z"/>
			<radialGradient id="SVGID_21_" cx="50.873" cy="31.4224" r="65.3566" gradientUnits="userSpaceOnUse">
				<stop  offset="0.2788" style="stop-color:#FFFFFF"/>
				<stop  offset="0.37" style="stop-color:#FAFAFA"/>
				<stop  offset="0.482" style="stop-color:#EBEBEB"/>
				<stop  offset="0.6049" style="stop-color:#D2D2D2"/>
				<stop  offset="0.7349" style="stop-color:#B0AFAF"/>
				<stop  offset="0.7425" style="stop-color:#AEADAD"/>
				<stop  offset="0.8204" style="stop-color:#4C5358"/>
				<stop  offset="1" style="stop-color:#FFFFFF"/>
			</radialGradient>
			<path fill-rule="evenodd" clip-rule="evenodd" fill="url(#SVGID_21_)" d="M38.629,49.114c0,0.023,0,0.049,0,0.068
				c0.238,0.029,0.477,0.052,0.711,0.072c0.084-0.196,0.052-0.111,0.072-0.281c-0.235-0.052-0.477-0.095-0.711-0.144
				C38.678,48.921,38.655,49.02,38.629,49.114z"/>
			<radialGradient id="SVGID_22_" cx="50.8418" cy="31.3604" r="65.4724" gradientUnits="userSpaceOnUse">
				<stop  offset="0.2788" style="stop-color:#FFFFFF"/>
				<stop  offset="0.37" style="stop-color:#FAFAFA"/>
				<stop  offset="0.482" style="stop-color:#EBEBEB"/>
				<stop  offset="0.6049" style="stop-color:#D2D2D2"/>
				<stop  offset="0.7349" style="stop-color:#B0AFAF"/>
				<stop  offset="0.7425" style="stop-color:#AEADAD"/>
				<stop  offset="0.8204" style="stop-color:#4C5358"/>
				<stop  offset="1" style="stop-color:#FFFFFF"/>
			</radialGradient>
			<path fill-rule="evenodd" clip-rule="evenodd" fill="url(#SVGID_22_)" d="M53.899,64.027c-0.025-0.215-0.049-0.427-0.072-0.639
				c-0.812-0.509-2.337-0.946-3.266-1.063c-0.803-1.071-1.244-3.08-2.698-3.838c-0.982-0.509-1.821-0.064-2.771-0.424
				c-0.153-0.059-3.794-3.308-3.833-3.405c-0.718-0.301-1.174,0.43-1.918,0.208c-0.216-0.164-0.424-0.333-0.64-0.499
				c-0.353,0-0.711,0-1.063,0c-0.516-0.255-0.258-0.721-1.208-0.773c0.02-0.102,0.046-0.195,0.068-0.29
				c-0.049-0.049-0.094-0.095-0.14-0.141c-0.026,0.163-0.046,0.329-0.072,0.496c-0.307,0.095-0.613,0.189-0.923,0.283
				c-0.068-0.166-0.144-0.332-0.212-0.498c0.144-0.118,0.284-0.235,0.424-0.353c-0.141-0.262-0.052-0.184-0.424-0.213
				c-0.509,0.499-1.318,0.695-2.063,0.637c-0.183,0.267-0.143,0.591-0.353,0.926c-0.195,0.307-0.652,0.301-0.854,0.712
				c-0.529-0.28-0.443-0.659-1.136-0.643c0.212,1.139,1.166,2.522,0.712,3.905c-0.271,0.829-2.45,1.677-2.131,3.197
				c-0.082,0.355-0.013,0.51,0.427,0.568c0.046,0.071,0.092,0.144,0.141,0.215c-0.284,0.281-0.568,0.564-0.852,0.849
				c0.052,0.702,3.915,7.267,4.261,7.53c0.956,0.728,2.864,1.181,3.406,2.271c0.946,1.889-0.13,4.561,0.427,6.463
				c0.102,0.35,0.454,0.526,0.356,1.136c-0.189,1.162-0.434,2.431,0.352,3.409c0.052,0.046,0.098,0.095,0.144,0.144
				c-0.023-0.144-0.046-0.287-0.072-0.423c0.026-0.027,0.049-0.046,0.072-0.073c0.434,0.15,0.512,0.718,0.567,1.204
				c-0.069,0.046-0.141,0.095-0.209,0.145c-0.052,0.067-0.098,0.141-0.144,0.212c0.163,0.045,0.333,0.095,0.496,0.144
				c-0.072,0.163-0.144,0.329-0.212,0.496c0.614,0.623,1.909,1.699,2.842,1.351c0.098,0.007,0.861-0.927,1.063-1.136
				c-0.287-0.12-0.567-0.238-0.855-0.358c-0.046-0.071-0.091-0.145-0.14-0.212c0.192-0.212,0.304-0.266,0.708-0.284
				c0.072-0.167,0.144-0.334,0.215-0.497c-0.094-0.233-0.189-0.476-0.284-0.711c0.023-0.046,0.049-0.095,0.068-0.144
				c0.359,0.049,0.711,0.098,1.067,0.144c0.049-0.238,0.095-0.476,0.144-0.708c1.106-0.095,2.032-0.081,2.77-0.643
				c0-0.045,0-0.091,0-0.137c-0.254-0.379-0.437-0.698-0.926-0.854c-0.046-0.076-0.092-0.144-0.141-0.217c0-0.025,0-0.044,0-0.071
				c0.679,0.19,1.948,0.705,2.626,0.212c0.464-0.374,0.976-1.256,1.422-1.699c0.226-0.229,0.411,0.017,0.64-0.072
				c0.825-0.329,1.024-1.299,1.207-2.342c0.616-0.578,1.909-1.165,2.771-1.423c0.446-0.023,0.897-0.046,1.347-0.072
				c1.933-0.959,1.978-3.55,2.559-5.752c1.436-0.892,3.25-2.768,2.558-4.969C58.473,64.766,55.799,63.108,53.899,64.027z
				 M35.363,55.153c-0.023,0-0.049,0-0.068,0c-0.157-0.231-0.235-0.268-0.288-0.643c0.072-0.095,0.144-0.187,0.212-0.284
				c0.215,0.092,0.085-0.003,0.215,0.141c0.023,0.025,0.045,0.049,0.068,0.074C35.507,54.801,35.478,54.961,35.363,55.153z"/>
			<radialGradient id="SVGID_23_" cx="50.9121" cy="31.3242" r="65.6235" gradientUnits="userSpaceOnUse">
				<stop  offset="0.2788" style="stop-color:#FFFFFF"/>
				<stop  offset="0.37" style="stop-color:#FAFAFA"/>
				<stop  offset="0.482" style="stop-color:#EBEBEB"/>
				<stop  offset="0.6049" style="stop-color:#D2D2D2"/>
				<stop  offset="0.7349" style="stop-color:#B0AFAF"/>
				<stop  offset="0.7425" style="stop-color:#AEADAD"/>
				<stop  offset="0.8204" style="stop-color:#4C5358"/>
				<stop  offset="1" style="stop-color:#FFFFFF"/>
			</radialGradient>
			<path fill-rule="evenodd" clip-rule="evenodd" fill="url(#SVGID_23_)" d="M42.107,55.01c0.098-0.02,0.192-0.049,0.287-0.072
				c-0.078-0.254-0.055-0.208-0.215-0.355C42.157,54.723,42.134,54.866,42.107,55.01z"/>
		</g>
	</g>
</g>
</svg>
