<?xml version="1.0" encoding="utf-8"?>
<!-- Generator: Adobe Illustrator 16.0.0, SVG Export Plug-In . SVG Version: 6.00 Build 0)  -->
<!DOCTYPE svg PUBLIC "-//W3C//DTD SVG 1.1//EN" "http://www.w3.org/Graphics/SVG/1.1/DTD/svg11.dtd">
<svg version="1.1" id="Layer_1" xmlns="http://www.w3.org/2000/svg" xmlns:xlink="http://www.w3.org/1999/xlink" x="0px" y="0px"
	 width="100px" height="100px" viewBox="0 0 100 100" enable-background="new 0 0 100 100" xml:space="preserve">
<g>
	<path fill="#26A9E0" d="M59.607,36.747c0,0-0.331-21.273-8.81-27.699c0,0-5.32-2.792-7.787,10.601
		C43.011,19.649,51.671-6.24,59.607,36.747z"/>
	<path fill="#26A9E0" d="M54.361,43.208c0.93,3.854-1.436,7.733-5.293,8.664c-3.854,0.933-7.734-1.437-8.664-5.294
		c-0.934-3.854,1.436-7.73,5.294-8.66C49.552,36.985,53.428,39.354,54.361,43.208z"/>
	<path fill="#26A9E0" d="M59.25,65.991c0,0-8.972,50.351-14.988-8.368l-3.774-0.348c0,0,2.194,38.34,12.522,30.417
		C53.01,87.692,58.771,81.759,59.25,65.991z"/>
	<path fill="#26A9E0" d="M83.769,42.825c1.974,1.021,3.084,2.158,3.092,3.36c0.04,4.642-16.123,8.541-36.106,8.708
		c-19.978,0.167-36.208-3.462-36.248-8.104c-0.017-1.982,2.929-3.823,7.858-5.303c-7.461,1.89-12.09,4.488-12.068,7.325
		c0.049,5.554,17.922,9.905,39.921,9.72c22.005-0.181,39.802-4.831,39.754-10.385C89.954,46.167,87.671,44.349,83.769,42.825z"/>
	<path fill="#8BC53F" d="M42.069,87.445c0,0-3.837-4.031-6.387-23.321c0,0-17.089-1.479-23.995-6.354
		C11.688,57.77,15.498,81.654,42.069,87.445z"/>
	<path fill="#8BC53F" d="M58.638,9.405c0,0,3.836,4.034,6.387,23.325c0,0,17.094,1.48,23.995,6.356
		C89.02,39.085,85.21,15.196,58.638,9.405z"/>
</g>
</svg>
