<?xml version="1.0" encoding="utf-8"?>
<!-- Generator: Adobe Illustrator 16.0.0, SVG Export Plug-In . SVG Version: 6.00 Build 0)  -->
<!DOCTYPE svg PUBLIC "-//W3C//DTD SVG 1.1//EN" "http://www.w3.org/Graphics/SVG/1.1/DTD/svg11.dtd">
<svg version="1.1" id="Layer_1" xmlns="http://www.w3.org/2000/svg" xmlns:xlink="http://www.w3.org/1999/xlink" x="0px" y="0px"
	 width="100px" height="100px" viewBox="0 0 100 100" enable-background="new 0 0 100 100" xml:space="preserve">
<g>
	<linearGradient id="SVGID_1_" gradientUnits="userSpaceOnUse" x1="52.8408" y1="21.4702" x2="59.001" y2="21.4702">
		<stop  offset="0" style="stop-color:#EC1C24"/>
		<stop  offset="1" style="stop-color:#961B1E"/>
	</linearGradient>
	<path fill="url(#SVGID_1_)" d="M57.922,24.694c-1.631-1.138-3.332-2.325-5.081-3.541c0.774-1.076,1.478-2.047,2.105-2.907
		c1.396,0.971,2.753,1.918,4.055,2.825C58.736,22.18,58.373,23.393,57.922,24.694"/>
	<linearGradient id="SVGID_2_" gradientUnits="userSpaceOnUse" x1="63.3984" y1="27.6987" x2="67.3516" y2="27.6987">
		<stop  offset="0" style="stop-color:#EC1C24"/>
		<stop  offset="1" style="stop-color:#961B1E"/>
	</linearGradient>
	<path fill="url(#SVGID_2_)" d="M67.352,31.263c-1.184-0.827-2.498-1.74-3.917-2.727c0.102-1.543,0.092-3.018-0.036-4.401
		c1.132,0.788,2.182,1.518,3.126,2.178C66.93,27.889,67.208,29.546,67.352,31.263"/>
	<linearGradient id="SVGID_3_" gradientUnits="userSpaceOnUse" x1="69.4512" y1="31.7842" x2="73.0313" y2="31.7842">
		<stop  offset="0" style="stop-color:#EC1C24"/>
		<stop  offset="1" style="stop-color:#961B1E"/>
	</linearGradient>
	<path fill="url(#SVGID_3_)" d="M73.031,35.219c-0.493-0.343-1.173-0.814-2.011-1.399c-0.38-1.88-0.902-3.708-1.569-5.47
		c0.667,0.468,1.21,0.847,1.603,1.118C71.864,31.328,72.524,33.251,73.031,35.219"/>
	<linearGradient id="SVGID_4_" gradientUnits="userSpaceOnUse" x1="50.042" y1="25.3794" x2="57.7852" y2="25.3794">
		<stop  offset="0" style="stop-color:#EC1C24"/>
		<stop  offset="1" style="stop-color:#961B1E"/>
	</linearGradient>
	<path fill="url(#SVGID_4_)" d="M56.111,29.282c-1.945-1.357-3.977-2.773-6.069-4.228c0.919-1.285,1.776-2.481,2.563-3.577
		c1.785,1.242,3.519,2.452,5.18,3.606C57.313,26.404,56.755,27.803,56.111,29.282"/>
	<linearGradient id="SVGID_5_" gradientUnits="userSpaceOnUse" x1="56.6934" y1="29.4678" x2="62.958" y2="29.4678">
		<stop  offset="0" style="stop-color:#EC1C24"/>
		<stop  offset="1" style="stop-color:#961B1E"/>
	</linearGradient>
	<path fill="url(#SVGID_5_)" d="M62.176,33.506c-1.716-1.197-3.558-2.479-5.482-3.822c0.614-1.494,1.147-2.914,1.588-4.254
		c1.648,1.148,3.212,2.24,4.677,3.264C62.807,30.23,62.545,31.838,62.176,33.506"/>
	<linearGradient id="SVGID_6_" gradientUnits="userSpaceOnUse" x1="67.9834" y1="36.2261" x2="71.668" y2="36.2261">
		<stop  offset="0" style="stop-color:#026694"/>
		<stop  offset="1" style="stop-color:#0A3B5D"/>
	</linearGradient>
	<path fill="url(#SVGID_6_)" d="M71.668,40.189c-1.04-0.722-2.266-1.576-3.648-2.54c0.12-1.841,0.107-3.643-0.036-5.386
		c1.18,0.821,2.227,1.55,3.116,2.168C71.433,36.312,71.622,38.237,71.668,40.189"/>
	<linearGradient id="SVGID_7_" gradientUnits="userSpaceOnUse" x1="71.1318" y1="38.1143" x2="74.1436" y2="38.1143">
		<stop  offset="0" style="stop-color:#026694"/>
		<stop  offset="1" style="stop-color:#0A3B5D"/>
	</linearGradient>
	<path fill="url(#SVGID_7_)" d="M74.144,41.844c-0.589-0.409-1.396-0.971-2.397-1.671c-0.059-1.964-0.268-3.9-0.614-5.787
		c0.854,0.592,1.542,1.076,2.047,1.426C73.655,37.786,73.976,39.803,74.144,41.844"/>
	<linearGradient id="SVGID_8_" gradientUnits="userSpaceOnUse" x1="73.5547" y1="39.4927" x2="75.4736" y2="39.4927">
		<stop  offset="0" style="stop-color:#026694"/>
		<stop  offset="1" style="stop-color:#0A3B5D"/>
	</linearGradient>
	<path fill="url(#SVGID_8_)" d="M75.474,42.841c-0.065-0.043-0.385-0.265-0.928-0.644c-0.175-2.047-0.504-4.07-0.991-6.052
		c0.464,0.321,0.739,0.513,0.791,0.549C74.883,38.711,75.258,40.768,75.474,42.841"/>
	<linearGradient id="SVGID_9_" gradientUnits="userSpaceOnUse" x1="39.2847" y1="24.9326" x2="49.1265" y2="24.9326">
		<stop  offset="0" style="stop-color:#EC1C24"/>
		<stop  offset="1" style="stop-color:#961B1E"/>
	</linearGradient>
	<path fill="url(#SVGID_9_)" d="M46.092,29.108c-2.357-1.641-4.636-3.23-6.808-4.744c1.275-1.301,2.531-2.507,3.754-3.606
		c1.942,1.351,3.979,2.773,6.088,4.241C48.168,26.283,47.158,27.657,46.092,29.108"/>
	<linearGradient id="SVGID_10_" gradientUnits="userSpaceOnUse" x1="54.5732" y1="34.8936" x2="62.29" y2="34.8936">
		<stop  offset="0" style="stop-color:#026694"/>
		<stop  offset="1" style="stop-color:#0A3B5D"/>
	</linearGradient>
	<path fill="url(#SVGID_10_)" d="M60.786,39.417c-1.949-1.356-4.028-2.808-6.213-4.332c0.802-1.631,1.524-3.207,2.159-4.715
		c1.954,1.36,3.818,2.662,5.558,3.875C61.898,35.919,61.395,37.649,60.786,39.417"/>
	<linearGradient id="SVGID_11_" gradientUnits="userSpaceOnUse" x1="61.1396" y1="38.8311" x2="67.3193" y2="38.8311">
		<stop  offset="0" style="stop-color:#EC1C24"/>
		<stop  offset="1" style="stop-color:#961B1E"/>
	</linearGradient>
	<path fill="url(#SVGID_11_)" d="M66.443,43.286c-1.609-1.118-3.385-2.358-5.304-3.691c0.588-1.785,1.069-3.525,1.441-5.218
		c1.717,1.193,3.306,2.301,4.738,3.302C67.155,39.512,66.861,41.389,66.443,43.286"/>
	<linearGradient id="SVGID_12_" gradientUnits="userSpaceOnUse" x1="67.1494" y1="42.4702" x2="71.6816" y2="42.4702">
		<stop  offset="0" style="stop-color:#026694"/>
		<stop  offset="1" style="stop-color:#0A3B5D"/>
	</linearGradient>
	<path fill="url(#SVGID_12_)" d="M71.282,46.732c-1.177-0.822-2.567-1.789-4.133-2.881c0.405-1.909,0.684-3.796,0.83-5.643
		c1.399,0.975,2.643,1.841,3.701,2.573C71.693,42.743,71.563,44.734,71.282,46.732"/>
	<linearGradient id="SVGID_13_" gradientUnits="userSpaceOnUse" x1="71.6318" y1="44.9336" x2="74.5098" y2="44.9336">
		<stop  offset="0" style="stop-color:#026694"/>
		<stop  offset="1" style="stop-color:#0A3B5D"/>
	</linearGradient>
	<path fill="url(#SVGID_13_)" d="M74.353,48.867c-0.667-0.465-1.587-1.103-2.721-1.893c0.272-2.004,0.385-4.002,0.359-5.974
		c1.011,0.706,1.834,1.282,2.43,1.693C74.559,44.741,74.536,46.804,74.353,48.867"/>
	<linearGradient id="SVGID_14_" gradientUnits="userSpaceOnUse" x1="74.5459" y1="46.2754" x2="75.6885" y2="46.2754">
		<stop  offset="0" style="stop-color:#026694"/>
		<stop  offset="1" style="stop-color:#0A3B5D"/>
	</linearGradient>
	<path fill="url(#SVGID_14_)" d="M75.594,49.737c-0.071-0.053-0.434-0.304-1.048-0.732c0.176-2.071,0.191-4.14,0.046-6.19
		c0.551,0.383,0.875,0.611,0.94,0.654C75.716,45.548,75.738,47.645,75.594,49.737"/>
	<linearGradient id="SVGID_15_" gradientUnits="userSpaceOnUse" x1="43.4375" y1="35.2178" x2="53.665" y2="35.2178">
		<stop  offset="0" style="stop-color:#026694"/>
		<stop  offset="1" style="stop-color:#0A3B5D"/>
	</linearGradient>
	<path fill="url(#SVGID_15_)" d="M50.919,40.157c-2.4-1.675-4.908-3.42-7.481-5.219c1.138-1.619,2.239-3.178,3.289-4.66
		c2.387,1.667,4.715,3.287,6.938,4.836C52.828,36.743,51.909,38.43,50.919,40.157"/>
	<linearGradient id="SVGID_16_" gradientUnits="userSpaceOnUse" x1="65.3252" y1="48.875" x2="71.1963" y2="48.875">
		<stop  offset="0" style="stop-color:#026694"/>
		<stop  offset="1" style="stop-color:#0A3B5D"/>
	</linearGradient>
	<path fill="url(#SVGID_16_)" d="M69.83,53.329c-1.281-0.892-2.799-1.947-4.505-3.134c0.696-1.933,1.262-3.862,1.696-5.774
		c1.582,1.105,2.985,2.083,4.175,2.909C70.89,49.332,70.432,51.332,69.83,53.329"/>
	<linearGradient id="SVGID_17_" gradientUnits="userSpaceOnUse" x1="70.21" y1="51.6172" x2="74.2939" y2="51.6172">
		<stop  offset="0" style="stop-color:#026694"/>
		<stop  offset="1" style="stop-color:#0A3B5D"/>
	</linearGradient>
	<path fill="url(#SVGID_17_)" d="M73.168,55.658c-0.726-0.508-1.723-1.203-2.958-2.063c0.594-2.001,1.04-4.011,1.34-6.019
		c1.145,0.798,2.074,1.442,2.744,1.913C74.078,51.551,73.705,53.614,73.168,55.658"/>
	<linearGradient id="SVGID_18_" gradientUnits="userSpaceOnUse" x1="73.377" y1="53.1113" x2="75.5498" y2="53.1113">
		<stop  offset="0" style="stop-color:#026694"/>
		<stop  offset="1" style="stop-color:#0A3B5D"/>
	</linearGradient>
	<path fill="url(#SVGID_18_)" d="M74.519,56.6c-0.074-0.056-0.471-0.33-1.142-0.797c0.534-2.044,0.904-4.111,1.108-6.181
		c0.622,0.435,0.988,0.69,1.064,0.739C75.372,52.45,75.033,54.539,74.519,56.6"/>
	<linearGradient id="SVGID_19_" gradientUnits="userSpaceOnUse" x1="41.2603" y1="38.4243" x2="48.5504" y2="42.6104">
		<stop  offset="0" style="stop-color:#026694"/>
		<stop  offset="1" style="stop-color:#0A3B5D"/>
	</linearGradient>
	<path fill="url(#SVGID_19_)" d="M47.4,45.994c-2.527-1.76-5.163-3.597-7.874-5.484c1.223-1.746,2.414-3.443,3.564-5.078
		c2.59,1.808,5.113,3.563,7.527,5.248C49.617,42.413,48.542,44.191,47.4,45.994"/>
	<linearGradient id="SVGID_20_" gradientUnits="userSpaceOnUse" x1="47.9199" y1="46.0957" x2="57.9121" y2="46.0957">
		<stop  offset="0" style="stop-color:#026694"/>
		<stop  offset="1" style="stop-color:#0A3B5D"/>
	</linearGradient>
	<path fill="url(#SVGID_20_)" d="M55.035,51.24c-2.229-1.552-4.613-3.213-7.115-4.956c1.131-1.809,2.197-3.591,3.188-5.333
		c2.394,1.665,4.675,3.253,6.804,4.738C57.053,47.525,56.095,49.383,55.035,51.24"/>
	<linearGradient id="SVGID_21_" gradientUnits="userSpaceOnUse" x1="55.6982" y1="51.0361" x2="64.3604" y2="51.0361">
		<stop  offset="0" style="stop-color:#EC1C24"/>
		<stop  offset="1" style="stop-color:#961B1E"/>
	</linearGradient>
	<path fill="url(#SVGID_21_)" d="M61.771,55.936c-1.834-1.277-3.871-2.698-6.072-4.228c1.06-1.864,2.008-3.727,2.858-5.571
		c2.1,1.465,4.045,2.822,5.804,4.045C63.624,52.104,62.762,54.026,61.771,55.936"/>
	<linearGradient id="SVGID_22_" gradientUnits="userSpaceOnUse" x1="62.3164" y1="55.0791" x2="69.4082" y2="55.0791">
		<stop  offset="0" style="stop-color:#EC1C24"/>
		<stop  offset="1" style="stop-color:#961B1E"/>
	</linearGradient>
	<path fill="url(#SVGID_22_)" d="M67.055,59.614c-1.351-0.938-2.942-2.046-4.738-3.299c0.984-1.909,1.838-3.84,2.563-5.771
		c1.717,1.197,3.24,2.26,4.528,3.155C68.771,55.693,67.986,57.668,67.055,59.614"/>
	<linearGradient id="SVGID_23_" gradientUnits="userSpaceOnUse" x1="67.6855" y1="58.248" x2="73.002" y2="58.248">
		<stop  offset="0" style="stop-color:#026694"/>
		<stop  offset="1" style="stop-color:#0A3B5D"/>
	</linearGradient>
	<path fill="url(#SVGID_23_)" d="M70.799,62.295c-0.767-0.533-1.814-1.265-3.113-2.167c0.932-1.948,1.71-3.931,2.338-5.928
		c1.242,0.866,2.246,1.566,2.979,2.076C72.43,58.31,71.697,60.324,70.799,62.295"/>
	<linearGradient id="SVGID_24_" gradientUnits="userSpaceOnUse" x1="71.0176" y1="59.8535" x2="74.3623" y2="59.8535">
		<stop  offset="0" style="stop-color:#026694"/>
		<stop  offset="1" style="stop-color:#0A3B5D"/>
	</linearGradient>
	<path fill="url(#SVGID_24_)" d="M72.221,63.286c-0.085-0.057-0.497-0.347-1.203-0.837c0.895-1.972,1.628-3.989,2.193-6.029
		c0.674,0.471,1.073,0.746,1.151,0.802C73.82,59.277,73.106,61.306,72.221,63.286"/>
	<linearGradient id="SVGID_25_" gradientUnits="userSpaceOnUse" x1="58.5889" y1="61.3896" x2="66.7666" y2="61.3896">
		<stop  offset="0" style="stop-color:#026694"/>
		<stop  offset="1" style="stop-color:#0A3B5D"/>
	</linearGradient>
	<path fill="url(#SVGID_25_)" d="M63.409,65.892c-1.374-0.958-2.995-2.086-4.82-3.36c1.272-1.848,2.413-3.734,3.427-5.644
		c1.799,1.252,3.397,2.367,4.751,3.313C65.803,62.136,64.684,64.037,63.409,65.892"/>
	<linearGradient id="SVGID_26_" gradientUnits="userSpaceOnUse" x1="63.8145" y1="64.4307" x2="70.2891" y2="64.4307">
		<stop  offset="0" style="stop-color:#026694"/>
		<stop  offset="1" style="stop-color:#0A3B5D"/>
	</linearGradient>
	<path fill="url(#SVGID_26_)" d="M66.986,68.384c-0.778-0.54-1.852-1.285-3.172-2.207c1.271-1.852,2.39-3.76,3.354-5.699
		c1.302,0.905,2.354,1.642,3.121,2.174C69.356,64.613,68.255,66.533,66.986,68.384"/>
	<linearGradient id="SVGID_27_" gradientUnits="userSpaceOnUse" x1="67.208" y1="66.1016" x2="71.7168" y2="66.1016">
		<stop  offset="0" style="stop-color:#026694"/>
		<stop  offset="1" style="stop-color:#0A3B5D"/>
	</linearGradient>
	<path fill="url(#SVGID_27_)" d="M68.435,69.395c-0.086-0.059-0.507-0.354-1.227-0.857c1.269-1.851,2.37-3.767,3.303-5.729
		c0.709,0.49,1.124,0.782,1.206,0.837C70.799,65.621,69.706,67.543,68.435,69.395"/>
	<linearGradient id="SVGID_28_" gradientUnits="userSpaceOnUse" x1="22.394" y1="46.0811" x2="33.9648" y2="46.0811">
		<stop  offset="0" style="stop-color:#EC1C24"/>
		<stop  offset="1" style="stop-color:#961B1E"/>
	</linearGradient>
	<path fill="url(#SVGID_28_)" d="M30.212,51.558c-2.704-1.887-5.323-3.711-7.818-5.447c1.141-1.821,2.357-3.659,3.636-5.506
		c2.53,1.763,5.188,3.613,7.935,5.529C32.681,47.978,31.428,49.79,30.212,51.558"/>
	<linearGradient id="SVGID_29_" gradientUnits="userSpaceOnUse" x1="31.0322" y1="52.1729" x2="42.8096" y2="52.1729">
		<stop  offset="0" style="stop-color:#EC1C24"/>
		<stop  offset="1" style="stop-color:#961B1E"/>
	</linearGradient>
	<path fill="url(#SVGID_29_)" d="M38.925,57.63c-2.531-1.763-5.173-3.606-7.893-5.501c1.223-1.761,2.481-3.569,3.767-5.414
		c2.76,1.92,5.441,3.793,8.011,5.582C41.521,54.137,40.223,55.92,38.925,57.63"/>
	<linearGradient id="SVGID_30_" gradientUnits="userSpaceOnUse" x1="47.4883" y1="63.0957" x2="57.6807" y2="63.0957">
		<stop  offset="0" style="stop-color:#026694"/>
		<stop  offset="1" style="stop-color:#0A3B5D"/>
	</linearGradient>
	<path fill="url(#SVGID_30_)" d="M53.577,67.838c-1.841-1.281-3.885-2.708-6.089-4.241c1.377-1.654,2.721-3.407,4.013-5.244
		c2.235,1.557,4.31,3.002,6.18,4.306C56.385,64.496,55.012,66.223,53.577,67.838"/>
	<linearGradient id="SVGID_31_" gradientUnits="userSpaceOnUse" x1="54.123" y1="67.2871" x2="63.0527" y2="67.2871">
		<stop  offset="0" style="stop-color:#026694"/>
		<stop  offset="1" style="stop-color:#0A3B5D"/>
	</linearGradient>
	<path fill="url(#SVGID_31_)" d="M58.87,71.529c-1.351-0.945-2.945-2.058-4.747-3.312c1.438-1.612,2.814-3.34,4.11-5.174
		c1.827,1.272,3.449,2.399,4.819,3.357C61.754,68.236,60.354,69.95,58.87,71.529"/>
	<linearGradient id="SVGID_32_" gradientUnits="userSpaceOnUse" x1="59.2725" y1="70.334" x2="66.6289" y2="70.334">
		<stop  offset="0" style="stop-color:#026694"/>
		<stop  offset="1" style="stop-color:#0A3B5D"/>
	</linearGradient>
	<path fill="url(#SVGID_32_)" d="M62.395,73.981c-0.765-0.53-1.817-1.265-3.122-2.174c1.491-1.577,2.894-3.286,4.188-5.121
		c1.321,0.922,2.394,1.664,3.168,2.204C65.331,70.728,63.912,72.425,62.395,73.981"/>
	<linearGradient id="SVGID_33_" gradientUnits="userSpaceOnUse" x1="68.5684" y1="68.7285" x2="64.2628" y2="73.1047">
		<stop  offset="0" style="stop-color:#026694"/>
		<stop  offset="1" style="stop-color:#0A3B5D"/>
	</linearGradient>
	<path fill="url(#SVGID_33_)" d="M63.824,74.975c-0.085-0.055-0.501-0.342-1.207-0.839c1.518-1.554,2.939-3.251,4.237-5.088
		c0.72,0.503,1.138,0.798,1.227,0.856C66.783,71.735,65.357,73.429,63.824,74.975"/>
	<linearGradient id="SVGID_34_" gradientUnits="userSpaceOnUse" x1="27.1411" y1="57.8291" x2="38.5396" y2="57.8291">
		<stop  offset="0" style="stop-color:#EC1C24"/>
		<stop  offset="1" style="stop-color:#961B1E"/>
	</linearGradient>
	<path fill="url(#SVGID_34_)" d="M34.672,63.002c-2.417-1.681-4.938-3.437-7.531-5.245c1.135-1.644,2.312-3.348,3.524-5.101
		c2.711,1.891,5.35,3.728,7.874,5.483C37.245,59.836,35.95,61.462,34.672,63.002"/>
	<linearGradient id="SVGID_35_" gradientUnits="userSpaceOnUse" x1="35.3906" y1="63.457" x2="46.4067" y2="63.457">
		<stop  offset="0" style="stop-color:#EC1C24"/>
		<stop  offset="1" style="stop-color:#961B1E"/>
	</linearGradient>
	<path fill="url(#SVGID_35_)" d="M42.195,68.246c-2.132-1.483-4.414-3.073-6.805-4.741c1.295-1.533,2.6-3.148,3.9-4.836
		c2.505,1.74,4.889,3.401,7.116,4.953C45.03,65.261,43.621,66.804,42.195,68.246"/>
	<linearGradient id="SVGID_36_" gradientUnits="userSpaceOnUse" x1="42.8359" y1="68.4131" x2="53.1455" y2="68.4131">
		<stop  offset="0" style="stop-color:#026694"/>
		<stop  offset="1" style="stop-color:#0A3B5D"/>
	</linearGradient>
	<path fill="url(#SVGID_36_)" d="M48.64,72.735c-1.756-1.223-3.705-2.579-5.804-4.041c1.438-1.432,2.857-2.969,4.237-4.604
		c2.197,1.53,4.237,2.949,6.072,4.224C51.697,69.91,50.189,71.382,48.64,72.735"/>
	<linearGradient id="SVGID_37_" gradientUnits="userSpaceOnUse" x1="49.1597" y1="72.4766" x2="58.4258" y2="72.4766">
		<stop  offset="0" style="stop-color:#026694"/>
		<stop  offset="1" style="stop-color:#0A3B5D"/>
	</linearGradient>
	<path fill="url(#SVGID_37_)" d="M53.69,76.257c-1.288-0.898-2.812-1.958-4.531-3.155c1.563-1.348,3.077-2.817,4.529-4.404
		c1.795,1.253,3.387,2.361,4.737,3.299C56.925,73.55,55.339,74.972,53.69,76.257"/>
	<linearGradient id="SVGID_38_" gradientUnits="userSpaceOnUse" x1="54.0742" y1="75.4365" x2="61.9375" y2="75.4365">
		<stop  offset="0" style="stop-color:#026694"/>
		<stop  offset="1" style="stop-color:#0A3B5D"/>
	</linearGradient>
	<path fill="url(#SVGID_38_)" d="M57.053,78.595c-0.732-0.507-1.736-1.207-2.979-2.073c1.657-1.277,3.247-2.693,4.75-4.243
		c1.298,0.902,2.352,1.634,3.113,2.167C60.4,75.973,58.766,77.359,57.053,78.595"/>
	<linearGradient id="SVGID_39_" gradientUnits="userSpaceOnUse" x1="57.2617" y1="77.0723" x2="63.3633" y2="77.0723">
		<stop  offset="0" style="stop-color:#026694"/>
		<stop  offset="1" style="stop-color:#0A3B5D"/>
	</linearGradient>
	<path fill="url(#SVGID_39_)" d="M58.413,79.546c-0.079-0.055-0.478-0.33-1.151-0.801c1.72-1.235,3.357-2.622,4.897-4.146
		c0.703,0.49,1.118,0.777,1.204,0.836C61.811,76.954,60.152,78.327,58.413,79.546"/>
	<linearGradient id="SVGID_40_" gradientUnits="userSpaceOnUse" x1="38.0298" y1="72.9385" x2="48.1748" y2="72.9385">
		<stop  offset="0" style="stop-color:#EC1C24"/>
		<stop  offset="1" style="stop-color:#961B1E"/>
	</linearGradient>
	<path fill="url(#SVGID_40_)" d="M43.378,76.758c-1.615-1.126-3.41-2.377-5.349-3.728c1.467-1.19,2.93-2.499,4.375-3.911
		c2.089,1.455,4.021,2.806,5.771,4.021C46.616,74.468,45.013,75.678,43.378,76.758"/>
	<linearGradient id="SVGID_41_" gradientUnits="userSpaceOnUse" x1="43.8628" y1="76.751" x2="53.1973" y2="76.751">
		<stop  offset="0" style="stop-color:#026694"/>
		<stop  offset="1" style="stop-color:#0A3B5D"/>
	</linearGradient>
	<path fill="url(#SVGID_41_)" d="M48.035,80.001c-1.187-0.828-2.59-1.806-4.172-2.907c1.641-1.069,3.256-2.272,4.832-3.593
		c1.707,1.186,3.217,2.243,4.502,3.14C51.533,77.898,49.807,79.021,48.035,80.001"/>
	<linearGradient id="SVGID_42_" gradientUnits="userSpaceOnUse" x1="48.3877" y1="79.5313" x2="56.5361" y2="79.5313">
		<stop  offset="0" style="stop-color:#026694"/>
		<stop  offset="1" style="stop-color:#0A3B5D"/>
	</linearGradient>
	<path fill="url(#SVGID_42_)" d="M51.134,82.162c-0.673-0.472-1.602-1.114-2.746-1.916c1.782-0.971,3.519-2.09,5.189-3.346
		c1.232,0.864,2.233,1.557,2.959,2.063C54.803,80.177,52.998,81.244,51.134,82.162"/>
	<linearGradient id="SVGID_43_" gradientUnits="userSpaceOnUse" x1="51.3301" y1="81.0732" x2="57.8896" y2="81.0732">
		<stop  offset="0" style="stop-color:#026694"/>
		<stop  offset="1" style="stop-color:#0A3B5D"/>
	</linearGradient>
	<path fill="url(#SVGID_43_)" d="M52.39,83.035c-0.075-0.053-0.441-0.308-1.06-0.738c1.867-0.913,3.682-1.976,5.415-3.186
		c0.67,0.467,1.065,0.742,1.145,0.798C56.13,81.103,54.289,82.142,52.39,83.035"/>
	<linearGradient id="SVGID_44_" gradientUnits="userSpaceOnUse" x1="42.375" y1="82.584" x2="50.5723" y2="82.584">
		<stop  offset="0" style="stop-color:#EC1C24"/>
		<stop  offset="1" style="stop-color:#961B1E"/>
	</linearGradient>
	<path fill="url(#SVGID_44_)" d="M44.804,84.631c-0.595-0.413-1.416-0.984-2.429-1.694c1.857-0.653,3.691-1.455,5.477-2.4
		c1.138,0.789,2.053,1.43,2.721,1.894C48.698,83.316,46.77,84.049,44.804,84.631"/>
	<linearGradient id="SVGID_45_" gradientUnits="userSpaceOnUse" x1="44.9775" y1="83.9863" x2="51.8145" y2="83.9863">
		<stop  offset="0" style="stop-color:#EC1C24"/>
		<stop  offset="1" style="stop-color:#961B1E"/>
	</linearGradient>
	<path fill="url(#SVGID_45_)" d="M45.916,85.409c-0.066-0.046-0.386-0.271-0.938-0.657c1.972-0.575,3.907-1.305,5.787-2.188
		c0.615,0.428,0.979,0.68,1.05,0.732C49.902,84.156,47.93,84.859,45.916,85.409"/>
</g>
</svg>
