<?xml version="1.0" encoding="utf-8"?>
<!-- Generator: Adobe Illustrator 18.1.0, SVG Export Plug-In . SVG Version: 6.00 Build 0)  -->
<svg version="1.1" id="Layer_1" xmlns="http://www.w3.org/2000/svg" xmlns:xlink="http://www.w3.org/1999/xlink" x="0px" y="0px"
	 viewBox="0 0 150 150" enable-background="new 0 0 150 150" xml:space="preserve">
<g>
	<path fill="#75A76D" d="M41.1,63.1l0.7,1.6l0.2-0.6l-0.4-0.8l-0.3-1.8l-0.4,0l-0.4-0.9L40,58.7l-0.5-0.2l0.2,1.4L41.1,63.1z
		 M40.9,56.9l0.1-2.5l0.5-0.6l-0.2-0.4l0.3-0.3l-0.1-1.9l0.6-3.2l-0.3-1.4l-2,7.2l-0.3,3.9l0.4,0.5L40.9,56.9z M55.9,88.7l-0.6-0.3
		l0.1-1.2l-1.1-1.6l0.6-2.2l-0.2-0.7l-0.5-0.4l0.5-2l-0.3-0.2l-0.8,0.4l-1.5,1.8l-0.5,0.2l-0.5-0.2l-1.5-2.6l-0.2-0.9l0.7-0.6
		l0.3,0.2l0.5-0.2l-0.1-0.4l-0.4,0.1l0.1-0.3l-0.5-0.2l-1.4-2l-0.1-0.1l0.1,0.7L47.4,75l-0.1,0.3l-0.7,0l-0.1,0.6l-0.4-0.8l-0.5,0.1
		l0.3-0.3l-0.1-0.6l-0.7-0.9l-0.1,0.2l-0.4-0.3l-0.1,0.3L44,73.4l-0.3,0.5l-0.3-0.7l-0.3,0.7l0-0.9l-0.4,0l-0.2,0.5l-0.8,0.1
		l-1.9-1.7l-1.3-0.3l0.1-0.4l-0.1,0.1L38,72.1l0.1,1.2l-0.2-0.6l0,0.7L37.7,73l0.4,3.9l0,0.6l-0.2-0.1l0,0l0.9,1.9l0.8,0.4l1.3,1.6
		l1,0.4l1.4,1.2l1.2,1.5l0.1,0.1l0.8,1l0.5,1.6L47,87l-0.1,0.4l-0.6,0.1l0.4,0.4l0.3-0.2L47,88l-0.3,0.1l0.6,0.4l0,0.9l0.6,0.9
		l0.8,0.8l0.8,0.3l0.6,0.9l1.9,0.8l0.1,0l1.4-0.5l1.3,0l0.1,0l0.9-0.6l0.5-1.2l-0.7-1.7L55.9,88.7z M91.7,28.2l-0.2-0.5l-0.4-0.2
		l-0.3,0.5L91.7,28.2z M49.5,93.2l1.2,0.5l0-0.4l-1.5-1.2L49.5,93.2z M92.4,34.8l-0.1-0.6l-0.5,0L92.4,34.8z M92.8,24.8l-0.5-0.2
		l0.4,0.5L92.8,24.8z M92.2,33.5l0.9,0.6l0.2-0.6l-0.3-0.2L92.6,33L92.2,33.5z M92.3,27.9l-0.8-0.2l0.3,0.4L92.3,27.9z M51.4,57
		l0.4-0.5l-0.6,0.3L51.4,57z M52,46.6l-0.4,0.5l0.1,0.6l0.6,0.1l0.7-0.2l0.1-0.4l-0.3-0.4L52,46.6z M53.9,58.9l-0.4,1.2l0.5-0.6
		L53.9,58.9z M52.3,58.9l0,0.7l1-0.7L53,58.6L52.3,58.9z M47.1,57.6l-0.6-0.5l-1.1,0.2l-0.5-0.5l-0.6,0.4L44,56.1l-0.2,0.2l-0.2-0.2
		l-0.5,0.5l-0.8,2.6l0.9,1.5l0.3,1.6l0.7,0.3l2.5-1.4l0.3,0.6l0.8-2.5l1.1,0.4l-0.3-1.3l0.2-0.8L47.1,57.6z M55.8,55l0.7-0.9
		l-0.7-0.9l-1.3,1.1L54.3,54l-0.8,1.8l0.5,0.6l0.3,1.8l0.6-0.8l-0.3-0.9l-0.4-0.6l0.3-0.6L55.8,55z M53.6,58.9l-1.1,0.7l0.7-0.2
		L53.6,58.9z M108,34.2l1.2,0.9l0-1l-0.5-0.7l2.3,1.9l-0.5-1l0.3,0l-0.6-0.9l-0.5-0.8l-0.5,0l-0.2-0.7l-0.9-0.9l0.3,1l-0.6-0.5
		l-0.2,0.4l0.6,1.5l-0.8-0.5L108,34.2z M104.1,32.2l0.6,0.4l0-0.4l-0.2-0.4l-0.9-0.1L104.1,32.2z M105.3,33.8l0.3-0.2l-0.5-0.4
		l-0.4,0.1l0.1,0.2L105.3,33.8z M106.2,36.4l-0.6-1.2l0,0.5l0.2,0.7L106.2,36.4z M106.7,37.2l0.1,0.6l0.8,1.4l0.6,0.3l-0.6-2.1
		L106.7,37.2z M108.4,38.7l0.8-0.1l-0.1,0.8l0,0l1,0.2l-0.3-1.3l0.3,0.1l-0.6-1.2l-0.5,0.1l-1.1-0.8l0.1,1.3l-0.4-0.5L108.4,38.7z
		 M105.3,32.3l1,0.7l-0.2-0.9l-0.5-0.5l-1-0.9l-0.1,0.2l-0.6-0.7l-1.9-1.1l0.9,1.6l0.5,0.6l0.2-0.6l0.7,0.6l0.6,0.1L105.3,32.3z
		 M93.7,34.1l-0.3-0.7L93.2,34L93.7,34.1z M107.1,35.5l-0.5-0.5l-0.4,0.1l-0.2,0.4l1.1,1L107.1,35.5z M94.9,24.4l-0.2-0.2l-0.9-0.3
		l0.7,0.5L94.9,24.4z M93.8,34.7l0.5,0.3l-0.5-0.8L93.8,34.7z M95.1,24.2l0.4,0.1l-0.1-0.2l-1.1-0.5l0.3-0.1l-0.9-0.6l0.3,0.9
		L95.1,24.2z M106.8,33.4l-0.5-0.3l-0.3,0.3l0.2,0.3l1,0.2l-0.3-1.3l-0.7-0.6L106.8,33.4z M100.4,24.9l-1.3-0.4l0.5,0.7l-0.8,0.5
		l0.3,0.2l-0.8,0l1.4,1.6l1.1,0.8l0.1-0.3l1.3,1.2l1,0.4l1.5,1.2l-0.1-0.7l0.5,0.7l0.2-0.3l-0.8-1.1l0.5-0.4l1.9,0.3l-2.2-2.2
		l-5.3-3.2L100.4,24.9z M99.6,40.1l-0.4-0.5l-0.3,0.4L99.6,40.1z M98.8,22.6l-1.7-0.8l2.7,1.7L98.8,22.6z M52.9,56.9l0.2,0l0.4-0.4
		l-0.4-0.7L52.9,56.9z M81,50.3l1.3,0l-0.5-0.2L81,50.3z M57.8,51.5l1.9-0.9l0.2-0.5l-1.4,0.2L57.8,51.5z M88.7,24.6l0.6,0.2
		l-0.6-1.5L87.8,23l0-0.3l-0.6,0.1l0.8,0.5L88.7,24.6z M101.7,46.2l0.3-0.1l-0.9-0.6L101.7,46.2z M85.3,22.1l1.9,0.7l0.3-0.2l-1-0.6
		L85.3,22.1z M82.3,45l-2.6,2.9l0.7,0.3l0.3-1.1l0.9-0.7l0.4,0.8l1.8-3.7l-1.3,0.8L82.3,45z M74.6,51.2l-0.9,0l-0.4-0.6l-1.7,0.5
		L70.3,50l-1.6,0l0.4,0.6l0.4-0.1l1.5,1.1l-0.5,0.3l0,0.6l0.9,0l0-0.4l0.4-0.1l-0.1,0.4l0.9,0.7l1.4,0.1l1.3-1.3l1.1-0.3L77,50
		l-0.4-0.1L74.6,51.2z M78.2,49.1l-1.1-0.1l-0.5,0.7l1.3,0l0.3,0.8l0.7-0.3l1,0.4l0-0.7L79.3,48L78.2,49.1z M98.2,40.5l-3.4-1.4
		l-0.2-1.2l-2.8-3.3L91.1,35l-1-1.4l-0.9,0.2l0.1-0.7l0.8-0.3l-0.3-1.1l-0.5,0.1l-2.3-3l3,1.2l0.5-1.3L85.7,25l-2.3-1.1l-1.2,0.4
		l-0.5-1.3l4.3,1.4l0.3-0.3l-1.1-0.7L82.9,23l1.7-0.6l-1-0.5l1.8-1.8l2.9,0.2l1.7,0.4l0.5-0.8l-0.4-0.6l0.9-0.2l-1.3-0.7L88,18
		l-2.8-0.8l2.3,1.2l0.4,0.6l-0.4,0l-0.8-0.3l0-0.4l-1.9-0.7L84,17.9l-1-0.1l0.5-0.1l0.9-0.1l-0.8-0.2L83,17.2l1,0.1l-0.4-0.2
		L83.5,17l-0.2-0.1l1.7,0.1l-1.6-0.3l-1.6-0.2l-1.9-0.2l-2-0.1l-2,0l-1.9,0l-1,0.6l-0.5-0.2L70.2,17l-1.6,0.2l3.3-0.8L70,16.7L68,17
		l-1.9,0.5l-1.8,0.5l-2,0.6l-1.8,0.6l-1.9,0.8l-1.7,0.8l-1.7,0.9l-3.5,2.2l-1.9,1.4l0.4,0l1.6-0.6l2.2-1.7l0.8-0.4L54,22.6l1.1-0.8
		l0,0l0.2-0.1h0.1l2.9-1.5l1-0.3l-3.6,1.9l-2.7,2.6l-0.5,1L51,26.9l-0.9,0.7L49,28.7l0,0.4l-0.9,0.9l-2.3,2L41.7,37l1-0.1l2.9-2.3
		l0.5,0.4l2.3,0.4l0.8-0.3l0.3,0.8l0.2,0.5l0.8-0.2l-1.1,1.5l-2.4,3.8l1.1-0.1l-0.3,0.9l-3.1,3.6l-1,0.8l-0.4,1.9l-1.3,2.4l0.1,2.3
		l0.5-1.3l0.7-0.9l0.2-1.3l1.3-3.7l1.9-0.9l-0.4,2.1l-0.2,1.4l-0.8,1.3l2.7,0.6l1.8-2.1l0.4-1.7l0.7-1.7l1.1-0.2l0.9,0.2l0,1.7
		l0.7-0.4l1.1,1l1.8,1.2l2.5,0.3l2.3-0.4l1.8-1.1l1.4-2.4l0-0.7l2.7,0.3l-0.3-1l-0.9-0.2l0.4-1.5l2.7,0.7l-0.2,0.4l-1.3,0.4l1.8,0.7
		l0.2,0.7l-1.1,0.4l0,0.4l0.5,0.5l-0.8,0.3L67,47.7l1.1,0.7l1.2-0.1l0.7-0.9l0.2-0.9l0.1-0.7l0.4-0.2l2.7,0l1-0.1l0.1,0.9l1.1,0.3
		l4.7-0.8l2.3-1.6l0.5-1.5l-1.2-0.4l0.1-1.2l4.3-0.1l2.6,2.3l1.2,0.6l0-0.5l1.6-0.5l1.1,0.5l-0.5,0.8l1.2-0.1l0.4-0.5l0.4,0.3
		l-0.7,0.8l-0.7,0l-1.9,0.8l-1.4,0.3l-0.8,1.1l-0.9,2.6l3.3-1.2l1.9-3l2.3,1.1l1.3-0.7l1.8,0.3l-0.3-1.8l1.2-0.1l1.5,1.4l0.8-1
		L98.2,40.5z M107.6,34.6l1.1,0.9l-1.1-1.4L107.6,34.6z M119.7,57.8l-0.1-2l-0.2-1.9l-0.3-2.2l-0.4-1.7l-0.5-1.9l-0.6-2l-0.7-1.9
		l-0.8-1.9l-0.8-1.9l-0.8-1.6l-0.9-1.7l-1.1-1.7l-1.1-1.6l-0.6-0.7l1.2,2.1l-1-1.2l0.6,1.5l1.9,2l0.9,1.7l0.7,1.8l-0.3,0.1l0.1,0.9
		l-1.5-1.9l-1-1.8l-1-1.7l-1.2-2l-0.7-0.6l-0.1,0.4l1.3,1.5l-2-0.6l0.9,1l0.7,0.2l0.6,0.9l-0.3,0.2l0.2,0.8l-0.6,0l0.1,1.9l-1.3-0.4
		l0,0.5l-0.9-0.4l-0.2,1.5l-1.1-0.1l-1.9-0.2l-1.1-0.6l-0.8,0.6l-0.2,0.9l-0.5,0.3l0.8,1l0.6,0.9l-0.7-0.5l-0.8,0.5l0.6,0.9l1.3,0
		l0.1,0.9l-1.3,1.3l1.4,2.3l0.5-0.4L105,50l0.6-0.4l-0.2,1.3l-1.6,1.5l1.2-0.2l1.4-1.9l-0.2-0.9l0.6-1.4l0.2-0.2l0.2,0.5l-0.4,1.3
		l0.7-0.7l0-0.7l0.8,0.2l0.3,0.3l1-0.4l0.7,0.7l0.7,0.3l-0.4-0.8l2.1,2.8l0.1-0.3l1.4,2.5l0.7,0l0.7,0.7l0.3,1.1l-0.3-0.4l-0.2,0.2
		l0.6,1.1l0.4,3.2v0.1l1.2,4.4l0.4-0.2l0.2,0.6l0.1,0.1l0.5,4.1l0.1-1.9l-0.3-2.5l0.2,0l0.2,1.4l0.1,1.7l0.1-0.3l0.2-1.2l0.2-1.8
		l0.1-1.9l0-2L119.7,57.8z M111.6,36l-0.3,0.4l1,1.2L111.6,36z M110.8,49.4l0.3,0.5l0-0.5L110.8,49.4z M106.4,50.9l0.3,0.4l0.4-0.7
		l-0.5-0.2L106.4,50.9z M113,52.9l0.3,0.3l-0.4-0.7L113,52.9z M111.8,50.4l0.1,0.3l0.6,0.7l-0.4-0.9L111.8,50.4z M42.9,65.8
		l-0.2,0.3l1,0.9L42.9,65.8z M45.9,70.7l1.3,0.5L45.4,70l-0.4,0.2l0.6,0.5L45.9,70.7z M47.3,62.5l-1.8,1.2l-0.7,1.9l0.3,0.5l0.9-1.4
		l0.4,0.2l-0.5,1.5l0.7,0.4l0.3-2.2l1.3,0.5L46.8,64l0.5-1.1L49,65l0.9-0.1L48,62.7L47.3,62.5z M48.9,68.7l0-0.6l-0.3-0.3l-0.1,0.4
		L48.9,68.7z M44.4,68.3l1,0.7L44,67.4L44.4,68.3z M49.7,68.9L49.5,69l1.2,1.7l0.1-0.5l-0.4-0.7L49.7,68.9z M50.8,67l0.4,0.5
		l-0.1-0.5l0.4-0.1l-0.1-0.3l-0.6,0l0.3-0.7l-0.6,0.4L50.8,67z M49.5,73.2l0.4-0.3l-0.5,0L49.5,73.2z M46.4,67.1l-0.2,0.4l0.5-0.3
		l0-0.3L46.4,67.1z M68.9,50.8l-0.1,0.7l0.7-0.1l0.3,0.3l0.5-0.1l-0.1-0.6L68.9,50.8z M58.7,80.4l0.6,0.3l0.1-0.4l-0.9-1.1l-0.3-1.6
		l-1.5-2.3l-1.4-2.2l-2.2-0.3l-0.2-1l0.5-1l-0.7-1.1l-1.1-0.1l0.4,1.2L51.7,72l0.7,0.8l1.6,2.6l-1.2,1.3l1.3,0.9l0.4,1.2l1.3,0.9
		l1.1-0.2l0.8,1.2l0.3,1.6l1.6,1.3c0-0.1,0-0.2,0-0.2l-0.8-1.9L58.7,80.4z M60.1,80.6c0-0.1,0-0.1,0-0.2L60,80.2L60.1,80.6z
		 M50.9,60.3l0.5-0.2l0,0.4l0.6,0.3l-0.5,1l0.3,1l0.5-0.7l0.4,0l-0.2,0.7l0.7-0.4l0.5-1.1l-0.1-0.7l-0.4,0.4L53,60.6l-0.9,0l0.1-0.6
		l-0.7-0.2L50.8,60L50.9,60.3z M67.7,49.8l-0.3,0.4l0.2,0.2l0.3-0.3l-0.1,0.3l-0.9,0.6l0,0.3l0.4-0.2L67,51.5l1.5-0.4l0.3-0.6
		L68.6,50L67.7,49.8z M51.8,73.5l0,0.5l0.3-0.5L51.8,73.5z M42.3,65.4l0.3,0.4l0.2-0.3l-0.3-0.3L42.3,65.4z M43.8,67.9l-0.4-0.4
		l0.5,1.3L43.8,67.9z"/>
	<path opacity="0.41" fill="#3E96DB" d="M80.7,63.4c-8.9,0.1-16.1,13.7-16.1,30.5s7.2,30.4,16.1,30.5V63.4z"/>
	<path fill="#008B6E" d="M131.3,58.6c0-29.6-24.1-53.7-53.7-53.7C48,4.8,23.9,28.9,23.9,58.6c0,22.5,13.9,41.8,33.6,49.8
		c3.6,12.4,11.1,20.8,20.1,20.8c0.2,0,0.3,0,0.5,0c-0.1,0.7-0.3,1.5-0.9,2.1c-1.2,1.5-3.5,2.2-6.9,2.1c-8.7-0.3-29.1,0.1-29.6,10.7
		c0,0.6,0.5,1.1,1.1,1.2c0.6,0,1.1-0.4,1.2-1.1c0.4-8.8,21-8.8,27.3-8.5c4.2,0.1,7.1-0.8,8.8-3c0.9-1.2,1.3-2.6,1.4-3.7
		c7.7-1.5,14.1-9.4,17.3-20.5C117.3,100.4,131.3,81.1,131.3,58.6z M77.6,121.3c-3.8,0-7.9-3.8-10.7-10.1c3.5,0.7,7.1,1.1,10.8,1.1
		c3.7,0,7.2-0.4,10.7-1.1C85.4,117.5,81.4,121.3,77.6,121.3z M63,91.6c0-17.5,7.7-29.7,14.5-29.7c6.9,0,14.5,12.2,14.5,29.7
		c0,3.9-0.4,7.6-1.1,10.9c-4.2,1.3-8.8,2-13.4,2c-4.7,0-9.2-0.7-13.5-2C63.4,99.1,63,95.5,63,91.6z M99.5,98.9
		c0.3-2.4,0.4-4.8,0.4-7.3c0-21.1-9.8-37.5-22.3-37.5C65,54,55.2,70.5,55.2,91.6c0,2.5,0.1,4.9,0.4,7.3C41.4,91,31.7,75.9,31.7,58.6
		c0-25.3,20.6-45.9,45.9-45.9c25.3,0,45.9,20.6,45.9,45.9C123.5,75.9,113.8,91.1,99.5,98.9z"/>
</g>
</svg>
