<?xml version="1.0" encoding="utf-8"?>
<!-- Generator: Adobe Illustrator 16.0.0, SVG Export Plug-In . SVG Version: 6.00 Build 0)  -->
<!DOCTYPE svg PUBLIC "-//W3C//DTD SVG 1.1//EN" "http://www.w3.org/Graphics/SVG/1.1/DTD/svg11.dtd">
<svg version="1.1" id="Layer_1" xmlns="http://www.w3.org/2000/svg" xmlns:xlink="http://www.w3.org/1999/xlink" x="0px" y="0px"
	 width="100px" height="100px" viewBox="0 0 100 100" enable-background="new 0 0 100 100" xml:space="preserve">
<g>
	<radialGradient id="SVGID_1_" cx="98.6504" cy="-21.4443" r="269.5304" gradientUnits="userSpaceOnUse">
		<stop  offset="0" style="stop-color:#00ADEE"/>
		<stop  offset="0.0016" style="stop-color:#01ADEE"/>
		<stop  offset="0.0526" style="stop-color:#15ABE6"/>
		<stop  offset="0.1029" style="stop-color:#22A9E2"/>
		<stop  offset="0.1515" style="stop-color:#26A9E0"/>
		<stop  offset="0.3273" style="stop-color:#1B75BB"/>
		<stop  offset="0.5212" style="stop-color:#2B388F"/>
		<stop  offset="0.7576" style="stop-color:#1C1651"/>
		<stop  offset="1" style="stop-color:#120742"/>
	</radialGradient>
	<path fill="url(#SVGID_1_)" d="M74.924,26.942c-16.896-12.284-38.195-11.789-47.566,1.108c-3.717,5.117-4.997,11.426-4.13,17.935
		l34.986-14.801c0.438-2.15,2.625-3.784,5.268-3.784c2.954,0,5.35,2.046,5.35,4.567s-2.396,4.567-5.35,4.567
		c-1.138,0-2.192-0.309-3.059-0.826L26.99,49.852c-1.508-1.091-3.458-1.758-5.595-1.758c-4.776,0-8.647,3.299-8.647,7.375
		c0,4.07,3.871,7.376,8.647,7.376c4.446,0,8.104-2.866,8.588-6.551l22.626-10.651c0.046-2.483,2.417-4.487,5.342-4.487
		c2.955,0,5.351,2.045,5.351,4.563c0,2.525-2.396,4.566-5.351,4.566c-0.857,0-1.662-0.175-2.383-0.479L22.448,66.75
		c-2.408-1.246-5.508-1.508-8.533-0.488C8.54,68.079,5.443,73.267,6.989,77.85c1.55,4.581,7.163,6.822,12.534,5.009
		c4.051-1.37,6.805-4.654,7.255-8.153l44.303-25.928c0-0.009-0.004-0.016-0.004-0.025c0-2.517,2.396-4.567,5.354-4.567
		c2.954,0,5.346,2.051,5.346,4.567c0,2.521-2.392,4.567-5.346,4.567c-0.846,0-1.646-0.176-2.354-0.472L39.883,72.805
		c0.363,0.278,0.726,0.559,1.096,0.828c16.902,12.281,38.195,11.789,47.567-1.107C97.918,59.628,91.82,39.218,74.924,26.942z"/>
</g>
</svg>
