<?xml version="1.0" encoding="utf-8"?>
<!-- Generator: Adobe Illustrator 16.0.0, SVG Export Plug-In . SVG Version: 6.00 Build 0)  -->
<!DOCTYPE svg PUBLIC "-//W3C//DTD SVG 1.1//EN" "http://www.w3.org/Graphics/SVG/1.1/DTD/svg11.dtd">
<svg version="1.1" id="Layer_1" xmlns="http://www.w3.org/2000/svg" xmlns:xlink="http://www.w3.org/1999/xlink" x="0px" y="0px"
	 width="100px" height="100px" viewBox="0 0 100 100" enable-background="new 0 0 100 100" xml:space="preserve">
<g>
	<g>
		<path fill="#035BA9" d="M86.802,4.343c0,0,1.15,14.943-18.803,26.222c0,0-5.491,6.987-8.674,11.079
			C48.67,55.328,45.428,70.371,46.055,95.656c0,0-2.459-9.553-1.15-32.387c0.591-10.314,2.091-22.635,6.479-28.209
			c0,0-4.701,1.564-16.607-3.036c0,0,15.965,2.927,30.922-5.01C72.535,23.387,80.115,16.667,86.802,4.343z"/>
		<path fill="#035BA9" d="M66.218,19.236c0,3.75-3.038,6.792-6.793,6.792c-3.746,0-6.792-3.042-6.792-6.792
			c0-3.754,3.046-6.796,6.792-6.796C63.18,12.439,66.218,15.481,66.218,19.236z"/>
		<path fill="#035BA9" d="M80.951,67.865c0,0-22.671,10.238-30.718-2.09c0,0,1.255-6.793,2.822-8.148
			C53.056,57.627,53.788,75.07,80.951,67.865z"/>
	</g>
	<g>
		<path fill="#8BC53F" d="M78.141,67.475c0.332-0.072,0.669-0.146,1.006-0.227c0.214-2.082,0.235-4.293,0.054-6.592
			C79.119,63.1,78.773,65.393,78.141,67.475z"/>
		<path fill="#8BC53F" d="M76.955,70.484c-1.273,2.572-3.082,4.66-5.438,6.082c-6.383,3.852-15.229,1.92-23.467-4.172
			c-0.269,2-0.481,4.1-0.641,6.291c8.488,5.65,17.257,7.26,23.662,3.393c4.074-2.455,6.638-6.785,7.688-12.217
			C78.228,70.057,77.623,70.275,76.955,70.484z"/>
		<path fill="#8BC53F" d="M43.61,68.646c-3.346-3.209-6.487-7.104-9.188-11.572c-10.229-16.949-10.211-35.715,0.04-41.902
			c4.896-2.955,11.243-2.505,17.653,0.618c-8.193-5.169-16.566-6.524-22.74-2.796c-11.21,6.765-10.965,27.722,0.555,46.797
			c3.9,6.465,8.602,11.893,13.547,15.967C43.481,73.576,43.523,71.213,43.61,68.646z"/>
	</g>
</g>
</svg>
