<?xml version="1.0" encoding="utf-8"?>
<!-- Generator: Adobe Illustrator 16.0.0, SVG Export Plug-In . SVG Version: 6.00 Build 0)  -->
<!DOCTYPE svg PUBLIC "-//W3C//DTD SVG 1.1//EN" "http://www.w3.org/Graphics/SVG/1.1/DTD/svg11.dtd">
<svg version="1.1" id="Layer_1" xmlns="http://www.w3.org/2000/svg" xmlns:xlink="http://www.w3.org/1999/xlink" x="0px" y="0px"
	 width="100px" height="100px" viewBox="0 0 100 100" enable-background="new 0 0 100 100" xml:space="preserve">
<g>
	<g>
		
			<radialGradient id="SVGID_1_" cx="29.9067" cy="59.2607" r="11.6358" gradientTransform="matrix(1 0 0 1 4.882813e-004 0)" gradientUnits="userSpaceOnUse">
			<stop  offset="0" style="stop-color:#0071BB"/>
			<stop  offset="1" style="stop-color:#2E3191"/>
		</radialGradient>
		<path fill="url(#SVGID_1_)" d="M21.261,47.964c0,0-1.484-1.364,0-1.364c1.483,0,2.1-0.621,2.35,0
			c0.246,0.617,1.112,0.098,2.096,0.542c0.992,0.445,1.372,1.934,1.859,2.175c0.496,0.25,2.841,0.621,3.462,1.864
			c0.617,1.233,0.742,3.208,0.742,3.208s2.861,0.992,4.767,1.729c1.915,0.746,4.14,1.609,3.394,2.109
			c-0.742,0.492-1.975,1.104-1.975,3.333c0,2.23-0.482,3.214-1.419,3.214c-0.932,0-1.674,0.921-1.799,1.149
			c-0.121,0.212-0.121,1.321-0.992,2.373c-0.862,1.054-1.976,1.428-1.976,1.428s-0.491,1.359,0.622,2.471
			c0,0-2.105-0.615-3.709-1.849c-1.604-1.242-1.733-1.438-2.476-4.428c-0.742-3-1.237-5.095-2.721-5.967
			c-1.483-0.863-1.854-1.854-2.225-3.212c-0.372-1.359-0.988-1.68-1.109-3.131c-0.125-1.445-0.871-2.929,0-3.917
			C21.01,48.706,21.261,47.964,21.261,47.964z"/>
		
			<radialGradient id="SVGID_2_" cx="45.7998" cy="42.0483" r="27.3019" gradientTransform="matrix(1 0 0 1 4.882813e-004 0)" gradientUnits="userSpaceOnUse">
			<stop  offset="0" style="stop-color:#0071BB"/>
			<stop  offset="1" style="stop-color:#2E3191"/>
		</radialGradient>
		<path fill="url(#SVGID_2_)" d="M62.936,67.501c1.794-0.468,2.967-2.105,4.08-2.967c1.112-0.863,2.095-1.733,2.225-2.476
			c0.121-0.742,0.246-2.129,1.238-2.796c0.987-0.668,1.358-1.775,1.483-3.014c0.121-1.239,1.113-4.826,1.238-6.31
			c0.12-1.483,1.112-2.842,1.112-4.451c0-1.609,1.113-1.363,0-1.609c-1.112-0.246-2.104-0.366-1.979-0.742
			c0.121-0.371,1.363-1.609,1.483-3.463c0.121-1.854-3.092-12.986-13.356-19.041c-10.265-6.064-21.517-4.205-27.326-1.73
			c-5.814,2.466-13.482,11.869-15.211,16.32c-1.734,4.451-1.113,4.451-0.496,5.813c0.621,1.358,0.871,1.73,1.238,2.842
			c0.366,1.113,1.066,1.483,1.066,1.483s0.33-0.867,0-1.729c-0.329-0.867-0.941-1.345-0.82-1.6c0.121-0.255,0.121,0.858,0.121-0.255
			c0-1.117,0.617-1.608,0-1.608c-0.612,0,0.125,0.621-0.612,0c-0.747-0.617-1.113-1.859-0.125-3.338
			c0.988-1.483,1.108-2.35,1.979-2.221c0.862,0.121,1.73,1.725,1.855,0.983c0.121-0.746,0.371-2.104,1.85-2.786
			c1.488-0.676,4.808-2.155,5.93-3.398c1.122-1.233,0.997-1.975,2.109-2.225c1.118-0.251,2.351,0.125,2.351,0.125
			s0.621-0.376,0.621-1.358c0-0.997-0.621-1.243-0.867-1.609c-0.246-0.371,0.617-0.617-0.246-0.867
			c-0.872-0.246-0.621,0-1.483,0.621c-0.872,0.612-0.987,1.108-1.985,0.987c-0.983-0.125-0.862,0.617-0.983-0.125
			c-0.125-0.742-0.125-2.225,1.604-2.967c1.734-0.742,3.338-1.734,4.08-1.238c0.747,0.497,1.252,1.113,1.428,1.113
			c0.176,0.004-0.19,0.867,0.176,0.004c0.375-0.867,0.13-1.739,0.747-2.226c0.616-0.5,0.83-0.871,1.96-0.992
			c1.131-0.121,0.89-1.363,1.131-0.121c0.246,1.233,0.987,2.101,0.121,2.347c-0.862,0.25-1.252,1.488-1.252,1.488
			s0.019,1.237,1.252,1.237c1.238,0,0.13-1.733,1.483-1.858c1.364-0.125,1.614-0.376,2.355-0.617c0.737-0.25,1.344,0.24,1.289-0.496
			c-0.055-0.742-0.932-0.872,0-1.488c0.937-0.612,0.974-0.988,0.974-0.988s5.401-1.108,10.227,2.105c0,0-0.579-0.13-1.404-0.13
			c-0.82,0-1.191,0.747-1.191,0.747s-0.622,0.987-0.747,1.608c-0.12,0.616-0.125,1.237,0.497,1.237c0.621,0,1.153,0.371,1.441,0
			c0.283-0.375,0-0.992,0-0.992l1.521,0.371c0,0,0.625,0.246,0.625,0.867c0,0.616,0.868,0.125,0,0.616
			c-0.871,0.496-0.25,0.496-0.871,0.496c-0.616,0-1.441,0.371-1.274,0.747c0.162,0.366,0,0.983,0,0.983s-0.82-0.246-0.946,0.742
			c-0.125,0.992-0.825,0.945-0.495,1.613c0.37,0.742,1.441,1.484,1.441,1.484s-0.079,1.107-0.82,1.107c-0.747,0-1.113,0-1.614,0
			c-0.491,0-0.371,0.487-0.12,1.048s0,1.053,0.496,1.182c0.491,0.121,1.979,0.121,2.842-0.621s0.737-1.483,0.737-1.98
			c0-0.496,0.005-0.862,0.496-0.862c0.5,0,1.613,0.862,1.613,0.862s0,0.868,0.742,0.868c0.737,0,0.491,0.621,0.737,0
			c0.255-0.622-0.246-1.484-0.246-1.484s1.733,0.983,2.1,1.113c0.376,0.125-0.116,0.862,0.621,0.922
			c0.742,0.07,1.233-0.551,1.233-0.551s0.867,0.983,1.609,0.551c0.746-0.426,0.746-0.426,0.746-0.426s0.862-0.993,0.862-0.25
			c0,0.746,0.871,2.6,0,2.841c-0.862,0.25-0.737,0.5-1.979,0.25c-1.238-0.25-1.104-0.992-1.238-0.25
			c-0.12,0.742-0.371,1.117-0.737,1.117c-0.371,0-0.616-0.375-1.117-0.496c-0.495-0.121-1.479,0-1.854-0.246
			c-0.366-0.25-0.737-0.125-0.737-0.737c0-0.621-0.25-1.122-0.617-1.122c-0.376,0-0.501,0.371-0.867,0.5
			c-0.371,0.121-1.816,1.358-2.888,1.358s-1.692-0.125-1.692,0.246c0,0.371,1.238,1.113,0,1.238
			c-1.233,0.121-1.358-0.867-1.233,0.121c0.12,0.988,0.862,2.105,0.245,2.351c-0.616,0.25-3.337,2.35-2.596,6.185
			c0.746,3.83,2.355,4.205,3.463,5.072c1.113,0.862,0.288,1.975,1.813,1.358c1.521-0.617,0.162-0.617,1.521-0.617
			c1.367,0,0.255,0.863,1.367,0c1.108-0.867,1.484-0.867,2.101-0.867s1.112-0.125,1.608,0.004c0.492,0.121,1.604,0.242,1.233,0.862
			c-0.366,0.617-0.616,1.78-0.612,2.309c-0.004,0.529,0.121,1.03,0.612,1.275c0.496,0.25,1.112,1.483,1.243,2.722
			c0.12,1.237,0.245,1.482-0.497,2.354c-0.746,0.863-1.367,0.863-1.112,1.479c0.245,0.617,0.737,1.237,0.366,1.854
			c-0.366,0.616-0.616,1.238-0.612,1.734C62.811,65.525,61.729,67.816,62.936,67.501z"/>
		<path fill="#B1B3B5" d="M84.494,45.335C83.358,25.071,66.57,8.978,46.014,8.978c-21.29,0-38.546,17.261-38.546,38.55
			c0,20.34,15.764,36.997,35.745,38.43l0.004,0.124h41.341V45.335H84.494z M46.014,82.364c-19.241,0-34.836-15.597-34.836-34.836
			c0-19.241,15.591-34.836,34.841-34.836c19.235,0,34.832,15.596,34.832,34.836C80.85,66.768,65.253,82.364,46.014,82.364z"/>
		
			<linearGradient id="SVGID_3_" gradientUnits="userSpaceOnUse" x1="44.9937" y1="85.0586" x2="44.9936" y2="7.959" gradientTransform="matrix(1 0 0 1 4.882813e-004 0)">
			<stop  offset="0" style="stop-color:#0071BB"/>
			<stop  offset="1" style="stop-color:#2E3191"/>
		</linearGradient>
		<path fill="url(#SVGID_3_)" d="M83.474,44.315C82.342,24.05,65.55,7.958,44.994,7.958c-21.29,0-38.545,17.26-38.545,38.55
			c0,20.339,15.768,36.997,35.75,38.429v0.121h41.341V44.315H83.474z M44.994,81.344c-19.24,0-34.837-15.595-34.837-34.835
			c0-19.236,15.597-34.832,34.837-34.832c19.24,0,34.835,15.596,34.835,34.832C79.829,65.749,64.233,81.344,44.994,81.344z"/>
	</g>
	<radialGradient id="SVGID_4_" cx="85.8604" cy="22.9663" r="75.3823" gradientUnits="userSpaceOnUse">
		<stop  offset="0" style="stop-color:#00ADEE"/>
		<stop  offset="1" style="stop-color:#2E3191"/>
	</radialGradient>
	<path fill="url(#SVGID_4_)" d="M84.04,7.268c-5.63-4.354-14.679-3.125-24.656,2.318c7.112-2.967,13.398-3.194,17.571,0.032
		c9.708,7.515,4.271,30.813-12.151,52.041C48.382,82.894,27.195,94.016,17.482,86.5c-4.131-3.194-5.494-9.268-4.46-16.816
		c-2.689,10.919-1.576,19.89,4.01,24.211c10.946,8.466,34.818-4.061,53.321-27.988C88.857,41.983,94.98,15.728,84.04,7.268z"/>
</g>
</svg>
