<?xml version="1.0" encoding="utf-8"?>
<!-- Generator: Adobe Illustrator 16.0.0, SVG Export Plug-In . SVG Version: 6.00 Build 0)  -->
<!DOCTYPE svg PUBLIC "-//W3C//DTD SVG 1.1//EN" "http://www.w3.org/Graphics/SVG/1.1/DTD/svg11.dtd">
<svg version="1.1" id="Layer_1" xmlns="http://www.w3.org/2000/svg" xmlns:xlink="http://www.w3.org/1999/xlink" x="0px" y="0px"
	 width="100px" height="100px" viewBox="0 0 100 100" enable-background="new 0 0 100 100" xml:space="preserve">
<g>
	<g>
		<path fill="#1868A6" d="M28.73,66.137c0,0,25.269-56.137,55.499-36.948c0,0-29.592-26.388-61.415,34.229L28.73,66.137z"/>
		<path fill="#1868A6" d="M23.562,53.785c0,0,24.63-46.007,51.58-29.045c0,0-26.158-22.941-56.885,26.59L23.562,53.785z"/>
		<path fill="#1868A6" d="M63.719,20.194c0.098-0.006,0.197-0.011,0.295-0.022c-4.833-3.245-22.895-12.029-45.661,17.896l4.188,2.06
			C22.541,40.128,43.127,8.962,63.719,20.194z"/>
	</g>
	<g>
		<path fill="#1868A6" d="M63.795,38.472c0,0-25.271,56.142-55.498,36.948c0,0,29.585,26.393,61.414-34.225L63.795,38.472z"/>
		<path fill="#1868A6" d="M68.963,50.828c0,0-24.629,46.004-51.579,29.043c0,0,26.158,22.939,56.885-26.594L68.963,50.828z"/>
		<path fill="#1868A6" d="M28.804,84.416c-0.095,0.008-0.194,0.014-0.292,0.021c4.835,3.246,22.895,12.031,45.661-17.893
			l-4.188-2.063C69.984,64.482,49.398,95.65,28.804,84.416z"/>
	</g>
</g>
</svg>
