<?xml version="1.0" encoding="utf-8"?>
<!-- Generator: Adobe Illustrator 16.0.0, SVG Export Plug-In . SVG Version: 6.00 Build 0)  -->
<!DOCTYPE svg PUBLIC "-//W3C//DTD SVG 1.1//EN" "http://www.w3.org/Graphics/SVG/1.1/DTD/svg11.dtd">
<svg version="1.1" id="Layer_1" xmlns="http://www.w3.org/2000/svg" xmlns:xlink="http://www.w3.org/1999/xlink" x="0px" y="0px"
	 width="100px" height="100px" viewBox="0 0 100 100" enable-background="new 0 0 100 100" xml:space="preserve">
<g>
	<g>
		<path fill="#1B75BB" d="M32.891,38.746c0,0-13.611,0.51-14.656,13.382c-0.43,5.367,3.667,14.374,14.656,15.782l5.07,2.96
			l-3.175,1.943c0,0-20.352,4.253-25.424-16.317c-1.542-6.238,1.127-17.05,12.611-22.404c0,0,6.408-2.813,13.455-0.559
			c0,0,2.397-6.626,9.583-9.021c0,0,5.634-1.972,10.569,0l-1.336,7.333c0,0-14.87-2.822-15.997,9.715l3.24-1.407l-1.547,12.399
			l-9.725-7.044l2.818-1.688C33.032,43.819,32.753,41.279,32.891,38.746z"/>
		<rect x="32.268" y="65.023" fill="#1B75BB" width="5.029" height="4.662"/>
		<rect x="34.786" y="68.536" fill="#1B75BB" width="5.022" height="4.662"/>
		<rect x="37.85" y="72.559" fill="#1B75BB" width="4.219" height="3.912"/>
		<rect x="43.899" y="71.246" fill="#1B75BB" width="3.387" height="3.137"/>
		<rect x="42.204" y="70.299" fill="#1B75BB" width="3.39" height="3.143"/>
		<rect x="39.809" y="65.023" fill="#1B75BB" width="3.385" height="3.142"/>
		<rect x="44.562" y="65.023" fill="#1B75BB" width="2.945" height="2.727"/>
		<rect x="46.62" y="63.138" fill="#1B75BB" width="2.942" height="2.728"/>
		<rect x="44.12" y="60.409" fill="#1B75BB" width="2.278" height="2.108"/>
		<rect x="48.087" y="59.799" fill="#1B75BB" width="1.475" height="1.365"/>
		<rect x="50.268" y="61.164" fill="#1B75BB" width="2.131" height="1.974"/>
	</g>
	<g>
		<rect x="60.017" y="35.32" fill="#808184" width="5.919" height="5.49"/>
		<rect x="58.085" y="32.873" fill="#808184" width="4.66" height="4.326"/>
		<rect x="52.386" y="33.262" fill="#808184" width="4.428" height="4.112"/>
		<rect x="60.415" y="27.266" fill="#808184" width="3.228" height="2.997"/>
		<rect x="56.307" y="29.861" fill="#808184" width="2.595" height="2.407"/>
		<rect x="53.239" y="42.075" fill="#808184" width="2.008" height="1.861"/>
		<rect x="56.307" y="38.796" fill="#808184" width="2.006" height="1.863"/>
		<rect x="49.465" y="39.011" fill="#808184" width="2.005" height="1.86"/>
		<rect x="53.322" y="38.734" fill="#808184" width="1.296" height="1.203"/>
		<path fill="#808184" d="M49.562,76.471l1.424-6.172c0,0,12.067,1.535,14.094-8.149l-3.052,0.988l2.463-13.374l10.04,8.696
			l-2.364,1.339c0,0-0.755,7.007-2.444,8.737c0,0,5.232,1.843,8.69-4.034c0,0,8.781-3.005,7.596-12.54c0,0-1.013-5.919-9.198-8.026
			c0,0-3.458-6.82-12.154-3.999l-2.278-3.758c0,0,5.742-3.884,10.975-1.774c0,0,4.219,1.351,7.425,6.92
			c0,0,9.623,0.086,11.646,9.961c0,0,3.037,10.629-9.368,15.104c0,0,0,4.643-5.484,7.428c0,0-6.921,2.681-9.706-0.62
			C67.864,73.198,58.938,79.548,49.562,76.471z"/>
	</g>
</g>
</svg>
