<?xml version="1.0" encoding="utf-8"?>
<!-- Generator: Adobe Illustrator 16.0.0, SVG Export Plug-In . SVG Version: 6.00 Build 0)  -->
<!DOCTYPE svg PUBLIC "-//W3C//DTD SVG 1.1//EN" "http://www.w3.org/Graphics/SVG/1.1/DTD/svg11.dtd">
<svg version="1.1" id="Layer_1" xmlns="http://www.w3.org/2000/svg" xmlns:xlink="http://www.w3.org/1999/xlink" x="0px" y="0px"
	 width="100px" height="100px" viewBox="0 0 100 100" enable-background="new 0 0 100 100" xml:space="preserve">
<g>
	<path fill="#8BC53F" d="M51.887,72.419c0,1.879-1.521,3.399-3.396,3.399c-1.88,0-3.401-1.521-3.401-3.399
		c0-1.875,1.521-3.397,3.401-3.397C50.365,69.021,51.887,70.544,51.887,72.419z"/>
	<path fill="#14BDEF" d="M63.124,28.974v17.86c0.962-0.644,2.026-1.145,3.174-1.462c0.369-0.103,0.734-0.183,1.101-0.238v-16.16
		c0-5.417-4.409-9.831-9.831-9.831H38.187c-5.422,0-9.831,4.413-9.831,9.831v30.546c1.351-0.591,2.804-0.912,4.274-0.949V28.974
		c0-3.062,2.495-5.553,5.557-5.553h19.381C60.634,23.421,63.124,25.912,63.124,28.974z"/>
	<path fill="#8BC53F" d="M68.539,56.649v15.547c0,3.063-2.495,5.557-5.554,5.557H34.433c-3.066,0-5.553-2.493-5.553-5.557v-0.925
		c-1.485,0.357-2.916,0.674-4.274,0.944c0.008,5.414,4.413,9.812,9.828,9.812h28.552c5.418,0,9.827-4.409,9.827-9.831V54.476
		C71.442,55.199,70.016,55.922,68.539,56.649z"/>
	<path fill="#8BC53F" d="M73.957,35.267c4.233-0.437,7.006-0.016,7.57,1.41c1.442,3.627-11.877,12.322-29.756,19.429
		C33.896,63.207,18.238,66.023,16.8,62.4c-0.568-1.426,1.156-3.635,4.536-6.224C12.443,61.511,7.298,66.317,8.363,68.987
		c1.863,4.694,22.137,1.044,45.287-8.155c23.15-9.2,40.402-20.461,38.539-25.156C91.125,33.006,84.09,33.042,73.957,35.267z"/>
	<g>
		<path fill="#14BDEF" d="M52.229,28.982h-8.497c-0.393,0-0.711-0.322-0.711-0.715c0-0.397,0.318-0.714,0.711-0.714h8.497
			c0.394,0,0.711,0.317,0.711,0.714C52.939,28.661,52.622,28.982,52.229,28.982z"/>
	</g>
	<path fill="#14BDEF" d="M77.476,38.071c-0.477-1.195-3.853-1.112-8.961-0.02v0.46c1.024,0.028,1.676,0.238,1.847,0.664
		c0.767,1.93-8.512,7.432-20.723,12.286c-12.215,4.851-22.737,7.222-23.504,5.287c-0.17-0.432,0.171-1.049,0.925-1.787v-0.513
		c-4.69,2.81-7.344,5.152-6.856,6.384c0.998,2.502,14.622-0.564,30.436-6.849C66.457,47.699,78.47,40.573,77.476,38.071z"/>
</g>
</svg>
