<?xml version="1.0" encoding="utf-8"?>
<!-- Generator: Adobe Illustrator 16.0.0, SVG Export Plug-In . SVG Version: 6.00 Build 0)  -->
<!DOCTYPE svg PUBLIC "-//W3C//DTD SVG 1.1//EN" "http://www.w3.org/Graphics/SVG/1.1/DTD/svg11.dtd">
<svg version="1.1" id="Layer_1" xmlns="http://www.w3.org/2000/svg" xmlns:xlink="http://www.w3.org/1999/xlink" x="0px" y="0px"
	 width="100px" height="100px" viewBox="0 0 100 100" enable-background="new 0 0 100 100" xml:space="preserve">
<g>
	<path fill="#404041" d="M87.549,48.215c0.061-0.456,0.092-0.916,0.09-1.375c-0.008-5.397-4.045-9.853-9.254-10.554
		c-0.915,0.987-1.922,1.966-3.002,2.937c0.513-0.112,1.035-0.188,1.566-0.188c4.314-0.009,7.828,3.498,7.836,7.809
		c0,0.712-0.102,1.436-0.305,2.148l-0.469,1.654l1.711,0.159c4.043,0.365,7.098,3.709,7.105,7.772
		c0.004,4.31-3.498,7.825-7.814,7.829l-11.868,0.017l-0.038-25.269c-2.926,2.365-6.309,4.637-10.065,6.734l0.03,18.549l-3.36,0.008
		l-0.024-16.777c-2.861,1.438-5.887,2.782-9.078,3.983c-0.331,0.124-0.659,0.228-0.988,0.347l0.017,12.463l-3.359,0.008
		L46.263,55.15c-3.424,1.1-6.802,1.977-10.069,2.612l0.011,8.719l-13.038,0.02c-4.313,0.006-7.828-3.495-7.834-7.81
		c0.001-0.082,0.02-0.163,0.022-0.247c-0.975-0.176-1.919-0.377-2.809-0.62c-0.023,0.289-0.065,0.576-0.065,0.875
		c0.008,5.885,4.805,10.665,10.69,10.657l61.848-0.096c5.887-0.008,10.672-4.805,10.664-10.689
		C95.672,53.562,92.273,49.359,87.549,48.215z"/>
	<path fill="#1B75BB" d="M49.929,52.596c19.452-7.3,33.389-19.69,34.561-29.763c-1.75,4.708-5.749,9.682-11.387,14.336
		l-0.018-10.454l-10.072,0.018l0.025,17.352c-1.092,0.627-2.207,1.24-3.357,1.839l-0.01-6.906l-10.074,0.015l0.017,11.401
		c-0.146,0.054-0.286,0.117-0.434,0.175c-0.978,0.362-1.95,0.704-2.923,1.034L46.25,45.76l-10.076,0.015l0.015,8.685
		c-7.444,1.63-14.424,2.134-20.359,1.574c0.84-2.322,2.745-4.186,5.218-4.877l1.073-0.299l-0.046-1.425
		c-0.008-5.688,4.611-10.322,10.301-10.332c1.624-0.002,3.194,0.372,4.659,1.115l2,1.013l0.069-2.243
		c0.175-5.591,4.692-9.982,10.284-9.991c2.882-0.004,5.564,1.164,7.546,3.286l0.629,0.675l0.871-0.294
		c1.055-0.359,2.139-0.538,3.219-0.546l-0.004-2.856c-1.098,0.008-2.189,0.15-3.266,0.437c-2.438-2.273-5.666-3.56-9-3.554
		c-6.458,0.011-11.794,4.594-12.919,10.757c-1.317-0.433-2.688-0.652-4.093-0.65c-7.035,0.013-12.789,5.561-13.135,12.509
		c-3.074,1.218-5.354,3.807-6.272,6.919c-3.334-0.548-6.261-1.464-8.644-2.758C11.828,59.731,30.478,59.893,49.929,52.596z"/>
</g>
</svg>
