<?xml version="1.0" encoding="utf-8"?>
<!-- Generator: Adobe Illustrator 16.0.0, SVG Export Plug-In . SVG Version: 6.00 Build 0)  -->
<!DOCTYPE svg PUBLIC "-//W3C//DTD SVG 1.1//EN" "http://www.w3.org/Graphics/SVG/1.1/DTD/svg11.dtd">
<svg version="1.1" id="Layer_1" xmlns="http://www.w3.org/2000/svg" xmlns:xlink="http://www.w3.org/1999/xlink" x="0px" y="0px"
	 width="100px" height="100px" viewBox="0 0 100 100" enable-background="new 0 0 100 100" xml:space="preserve">
<g>
	<g>
		<path fill="#BCBE32" d="M53.443,19.441c-2.202-4.364,0.089-9.911,4.406-11.94C60.052,11.861,57.767,17.42,53.443,19.441z"/>
		<path fill="#BCBE32" d="M32.252,13.492c4.564,1.694,6.701,7.345,4.86,11.761C32.565,23.52,30.451,17.918,32.252,13.492z"/>
		<path fill="#BCBE32" d="M63.565,28.223c-0.43-4.86,3.672-9.217,8.443-9.546C72.473,23.537,68.351,27.934,63.565,28.223z"/>
		<path fill="#BCBE32" d="M26.22,24.723c4.884-0.228,9.052,4.094,9.156,8.881C30.491,33.834,26.324,29.502,26.22,24.723z"/>
		<path fill="#BCBE32" d="M71.02,40.08c3.146-3.715,9.17-3.827,12.718-0.624C80.571,43.156,74.58,43.275,71.02,40.08z"/>
		<path fill="#BCBE32" d="M15.162,46.201c3.144-3.724,9.184-3.843,12.725-0.62C24.706,49.268,18.729,49.383,15.162,46.201z"/>
	</g>
	<g>
		<path fill="#5A6D30" d="M42.115,9.269c3.917,1.463,7.06,4.71,8.49,8.632c1.443,3.702,1.313,7.894-0.074,11.587
			C42.616,26.738,38.902,16.802,42.115,9.269z"/>
		<path fill="#5A6D30" d="M52.471,29.201c0.68-4.355,3.332-8.255,6.947-10.733c2.383,3.332,3.106,7.708,2.134,11.672
			c-0.893,3.97-3.417,7.476-6.782,9.727C52.649,36.78,51.806,32.885,52.471,29.201z"/>
		<path fill="#5A6D30" d="M39.837,26.071c3.478,1.93,6.008,5.375,6.938,9.233c1.051,4.048,0.345,8.446-1.758,12.046
			c-3.728-2.086-6.351-5.9-7.106-10.091C37.132,33.454,37.92,29.431,39.837,26.071z"/>
		<path fill="#5A6D30" d="M68.399,28.587c3.661-1.924,8.053-2.251,12.004-1.077c-1.037,3.621-3.524,6.769-6.803,8.607
			c-3.79,2.225-8.473,2.683-12.666,1.441C62.019,33.685,64.807,30.381,68.399,28.587z"/>
		<path fill="#5A6D30" d="M17.134,32.994c7.982-2.609,16.931,2.979,19.006,10.908C28.155,46.494,19.225,40.919,17.134,32.994z"/>
		<path fill="#5A6D30" d="M57.668,44.435c2.721-1.938,6.083-2.956,9.423-2.694c4.801,0.265,9.345,2.878,12.086,6.81
			C72.496,53.592,62.201,51.264,57.668,44.435z"/>
		<path fill="#5A6D30" d="M20.986,51.563c2.36-2.361,5.498-3.923,8.831-4.236c4.784-0.552,9.684,1.283,13.066,4.679
			C37.165,58.117,26.594,57.537,20.986,51.563z"/>
	</g>
	<g>
		<path fill="#603A17" d="M48.288,53.476c0.562-7.762,1.114-15.521,1.663-23.285c0.74,5.682,1.278,11.389,1.955,17.075
			c0.587-0.61,1.173-1.223,1.754-1.839c-0.184-1.384,0-2.761,0.315-4.106c0.095,1.085,0.241,2.166,0.458,3.237
			c2.201-2.128,4.21-4.44,6.387-6.588c-2.899,4.617-5.981,9.188-7.86,14.343c-1.325,2.943-0.106,6.169-0.099,9.243
			c2.451-2.033,5.523-3.211,8.698-3.367c-2.482,1.24-5.242,2.459-6.721,4.947c-0.966,1.569-0.741,3.48-0.335,5.188
			c-2.84,0.63-5.691,1.221-8.526,1.855l0.172-0.746l0.095-0.433c-1.853-1.856-2.922-4.282-3.506-6.81
			c1.067,1.9,2.318,3.797,4.302,4.85c0.677-2.936,0.97-5.99,0.673-8.992c-2.574-5.374-6.819-9.729-11.115-13.776
			c3.403,1.612,6.499,3.798,9.24,6.367c0.364-1.195,0.608-2.425,0.84-3.655c0.176,1.528,0.289,3.075,0,4.597
			C47.211,52.212,47.751,52.847,48.288,53.476z"/>
		<path fill="#603A17" d="M18.703,68.401c8.947-1.846,18.047,0.069,26.805,1.979c10.629,2.438,21.797,4.628,32.598,1.888
			l-0.236,0.497c-3.454,6.84-9.48,12.33-16.579,15.195c-6.938,2.82-14.876,3.132-21.992,0.791
			C29.742,85.744,21.722,77.985,18.703,68.401z"/>
	</g>
	<g>
		<path fill="#D2AE6D" d="M54.504,68.324c8.406-1.812,17.196-3.468,25.729-1.471c-0.661,2.128-1.425,4.232-2.494,6.19l0.132-0.279
			l0.236-0.497c-10.801,2.74-21.969,0.551-32.598-1.888c0.214-0.319,0.426-0.632,0.642-0.946l-0.172,0.746
			C48.813,69.545,51.664,68.954,54.504,68.324z"/>
	</g>
</g>
</svg>
