<?xml version="1.0" encoding="utf-8"?>
<!-- Generator: Adobe Illustrator 16.0.0, SVG Export Plug-In . SVG Version: 6.00 Build 0)  -->
<!DOCTYPE svg PUBLIC "-//W3C//DTD SVG 1.1//EN" "http://www.w3.org/Graphics/SVG/1.1/DTD/svg11.dtd">
<svg version="1.1" id="Layer_1" xmlns="http://www.w3.org/2000/svg" xmlns:xlink="http://www.w3.org/1999/xlink" x="0px" y="0px"
	 width="100px" height="100px" viewBox="0 0 100 100" enable-background="new 0 0 100 100" xml:space="preserve">
<g>
	<path fill="#EC1C24" d="M33.833,17.024c0,0,80.625,37.403-1.346,53.975l13.487-18.778l6.883,10.322c0,0,7.293-1.928,11.079-7.775
		l-8.602-12.181c0,0-4.268-7.018-11.01-6.33c0,0-4.267-0.761-9.083,6.605L8.056,82.5c0,0,43.104,0.936,61.937-18.303
		C69.992,64.197,96.77,41.152,33.833,17.024z"/>
	<circle fill="#EC1C24" cx="74.644" cy="32.77" r="4.522"/>
	<path fill="#EC1C24" d="M60.729,73.85c0,0,13.779-3.49,21.808,10.94c0,0-3.001-15.319-10.729-18.683
		C71.808,66.107,67.007,71.471,60.729,73.85z"/>
	<g>
		<path fill="#EC1C24" d="M74.644,23.662L74.644,23.662v1.397l0,0c4.124,0,7.489,3.26,7.688,7.333h1.397
			C83.531,27.548,79.535,23.662,74.644,23.662z"/>
		<path fill="#EC1C24" d="M74.644,18.664L74.644,18.664c7.651,0,13.887,6.125,14.084,13.729h1.412
			c-0.201-8.373-7.072-15.127-15.496-15.127l0,0V18.664z"/>
		<path fill="#EC1C24" d="M74.644,20.53L74.644,20.53v1.397l0,0c5.851,0,10.619,4.666,10.819,10.465h1.398
			C86.663,25.821,81.266,20.53,74.644,20.53z"/>
	</g>
</g>
</svg>
