<?xml version="1.0" encoding="utf-8"?>
<!-- Generator: Adobe Illustrator 16.0.0, SVG Export Plug-In . SVG Version: 6.00 Build 0)  -->
<!DOCTYPE svg PUBLIC "-//W3C//DTD SVG 1.1//EN" "http://www.w3.org/Graphics/SVG/1.1/DTD/svg11.dtd">
<svg version="1.1" id="Layer_1" xmlns="http://www.w3.org/2000/svg" xmlns:xlink="http://www.w3.org/1999/xlink" x="0px" y="0px"
	 width="100px" height="100px" viewBox="0 0 100 100" enable-background="new 0 0 100 100" xml:space="preserve">
<g>
	<path fill="#14BDEF" d="M71.709,6.588H26.992c-9.428,0-17.145,7.717-17.145,17.145v44.716c0,6.514,3.682,12.204,9.068,15.104
		l4.615-8.82c-3.337-2.481-5.51-6.453-5.51-10.91V28.359c0-7.48,6.118-13.598,13.598-13.598h35.463
		c7.476,0,13.598,6.118,13.598,13.598v35.463c0,4.31-2.032,8.157-5.185,10.654l4.636,8.88c5.195-2.956,8.719-8.539,8.719-14.908
		V23.732C88.85,14.305,81.137,6.588,71.709,6.588z"/>
	<radialGradient id="SVGID_1_" cx="49.0112" cy="-0.75" r="177.5753" gradientUnits="userSpaceOnUse">
		<stop  offset="0" style="stop-color:#00ADEE"/>
		<stop  offset="0.0016" style="stop-color:#01ADEE"/>
		<stop  offset="0.0526" style="stop-color:#15ABE6"/>
		<stop  offset="0.1029" style="stop-color:#22A9E2"/>
		<stop  offset="0.1515" style="stop-color:#26A9E0"/>
		<stop  offset="0.3273" style="stop-color:#1B75BB"/>
		<stop  offset="0.5212" style="stop-color:#2B388F"/>
		<stop  offset="0.7576" style="stop-color:#1C1651"/>
		<stop  offset="1" style="stop-color:#120742"/>
	</radialGradient>
	<path fill="url(#SVGID_1_)" d="M56.64,35.829c0,4.019-3.257,7.279-7.275,7.279c-4.023,0-7.279-3.26-7.279-7.279
		c0-4.02,3.256-7.275,7.279-7.275C53.383,28.553,56.64,31.809,56.64,35.829z"/>
	<g>
		<path fill="#14BDEF" d="M35.755,35.829c0-7.5,6.105-13.606,13.609-13.606c7.5,0,13.605,6.106,13.605,13.606
			c0,3.574-1.39,6.83-3.65,9.261l0.618,1.077c2.61-2.668,4.222-6.316,4.222-10.338c0-8.159-6.637-14.799-14.795-14.799
			c-8.158,0-14.798,6.64-14.798,14.799c0,4.333,1.87,8.235,4.847,10.941l0.601-1.068C37.396,43.22,35.755,39.712,35.755,35.829z"/>
		<path fill="#14BDEF" d="M37.586,50.034l0.592-1.061c-3.721-3.167-6.09-7.883-6.09-13.144c0-9.525,7.752-17.273,17.276-17.273
			c9.521,0,17.272,7.748,17.272,17.273c0,4.94-2.091,9.4-5.429,12.552l0.611,1.061c3.69-3.38,6.006-8.228,6.006-13.613
			c0-10.18-8.281-18.465-18.461-18.465c-10.183,0-18.465,8.286-18.465,18.465C30.899,41.535,33.505,46.646,37.586,50.034z"/>
		<path fill="#14BDEF" d="M49.364,24.604c-6.191,0-11.225,5.038-11.225,11.225c0,2.985,1.177,5.695,3.082,7.708l0.616-1.095
			c-1.557-1.766-2.509-4.077-2.509-6.613c0-5.534,4.503-10.032,10.036-10.032c5.529,0,10.036,4.499,10.036,10.032
			c0,2.233-0.744,4.29-1.979,5.958l0.643,1.123c1.576-1.936,2.521-4.398,2.521-7.081C60.585,29.641,55.552,24.604,49.364,24.604z"/>
	</g>
	<g>
		<g>
			<radialGradient id="SVGID_2_" cx="49.0122" cy="-0.7441" r="177.5668" gradientUnits="userSpaceOnUse">
				<stop  offset="0" style="stop-color:#00ADEE"/>
				<stop  offset="0.0016" style="stop-color:#01ADEE"/>
				<stop  offset="0.0526" style="stop-color:#15ABE6"/>
				<stop  offset="0.1029" style="stop-color:#22A9E2"/>
				<stop  offset="0.1515" style="stop-color:#26A9E0"/>
				<stop  offset="0.3273" style="stop-color:#1B75BB"/>
				<stop  offset="0.5212" style="stop-color:#2B388F"/>
				<stop  offset="0.7576" style="stop-color:#1C1651"/>
				<stop  offset="1" style="stop-color:#120742"/>
			</radialGradient>
			<path fill="url(#SVGID_2_)" d="M27.84,77.795c-1.73,3.381-3.055,5.951-3.693,7.152l18.406-0.488l6.377,9.56v-7.483l-5.506-9.15
				L27.84,77.795z"/>
			<radialGradient id="SVGID_3_" cx="49.0117" cy="-0.7505" r="177.582" gradientUnits="userSpaceOnUse">
				<stop  offset="0" style="stop-color:#00ADEE"/>
				<stop  offset="0.0016" style="stop-color:#01ADEE"/>
				<stop  offset="0.0526" style="stop-color:#15ABE6"/>
				<stop  offset="0.1029" style="stop-color:#22A9E2"/>
				<stop  offset="0.1515" style="stop-color:#26A9E0"/>
				<stop  offset="0.3273" style="stop-color:#1B75BB"/>
				<stop  offset="0.5212" style="stop-color:#2B388F"/>
				<stop  offset="0.7576" style="stop-color:#1C1651"/>
				<stop  offset="1" style="stop-color:#120742"/>
			</radialGradient>
			<path fill="url(#SVGID_3_)" d="M34.074,65.545c-1.758,3.466-3.45,6.792-4.937,9.707l14.47-0.264l5.324,8.615v-8.417l-3.996-9.642
				H34.074z"/>
			<radialGradient id="SVGID_4_" cx="49.0112" cy="-0.7451" r="177.5605" gradientUnits="userSpaceOnUse">
				<stop  offset="0" style="stop-color:#00ADEE"/>
				<stop  offset="0.0016" style="stop-color:#01ADEE"/>
				<stop  offset="0.0526" style="stop-color:#15ABE6"/>
				<stop  offset="0.1029" style="stop-color:#22A9E2"/>
				<stop  offset="0.1515" style="stop-color:#26A9E0"/>
				<stop  offset="0.3273" style="stop-color:#1B75BB"/>
				<stop  offset="0.5212" style="stop-color:#2B388F"/>
				<stop  offset="0.7576" style="stop-color:#1C1651"/>
				<stop  offset="1" style="stop-color:#120742"/>
			</radialGradient>
			<path fill="url(#SVGID_4_)" d="M40.385,53.081c-1.63,3.214-3.333,6.583-5.006,9.885h9.645l3.907,8.944v-8.766l-2.761-9.909
				L40.385,53.081z"/>
			<radialGradient id="SVGID_5_" cx="49.0112" cy="-0.7505" r="177.5731" gradientUnits="userSpaceOnUse">
				<stop  offset="0" style="stop-color:#00ADEE"/>
				<stop  offset="0.0016" style="stop-color:#01ADEE"/>
				<stop  offset="0.0526" style="stop-color:#15ABE6"/>
				<stop  offset="0.1029" style="stop-color:#22A9E2"/>
				<stop  offset="0.1515" style="stop-color:#26A9E0"/>
				<stop  offset="0.3273" style="stop-color:#1B75BB"/>
				<stop  offset="0.5212" style="stop-color:#2B388F"/>
				<stop  offset="0.7576" style="stop-color:#1C1651"/>
				<stop  offset="1" style="stop-color:#120742"/>
			</radialGradient>
			<path fill="url(#SVGID_5_)" d="M41.732,50.414h4.794l2.404,8.688V36.165C47.548,38.907,44.861,44.234,41.732,50.414z"/>
		</g>
		<g>
			<radialGradient id="SVGID_6_" cx="49.0127" cy="-0.7441" r="177.5676" gradientUnits="userSpaceOnUse">
				<stop  offset="0" style="stop-color:#00ADEE"/>
				<stop  offset="0.0016" style="stop-color:#01ADEE"/>
				<stop  offset="0.0526" style="stop-color:#15ABE6"/>
				<stop  offset="0.1029" style="stop-color:#22A9E2"/>
				<stop  offset="0.1515" style="stop-color:#26A9E0"/>
				<stop  offset="0.3273" style="stop-color:#1B75BB"/>
				<stop  offset="0.5212" style="stop-color:#2B388F"/>
				<stop  offset="0.7576" style="stop-color:#1C1651"/>
				<stop  offset="1" style="stop-color:#120742"/>
			</radialGradient>
			<path fill="url(#SVGID_6_)" d="M70.598,77.795c1.727,3.381,3.056,5.951,3.693,7.152l-18.403-0.488l-6.38,9.56v-7.483l5.505-9.15
				L70.598,77.795z"/>
			<radialGradient id="SVGID_7_" cx="49.0127" cy="-0.7505" r="177.5822" gradientUnits="userSpaceOnUse">
				<stop  offset="0" style="stop-color:#00ADEE"/>
				<stop  offset="0.0016" style="stop-color:#01ADEE"/>
				<stop  offset="0.0526" style="stop-color:#15ABE6"/>
				<stop  offset="0.1029" style="stop-color:#22A9E2"/>
				<stop  offset="0.1515" style="stop-color:#26A9E0"/>
				<stop  offset="0.3273" style="stop-color:#1B75BB"/>
				<stop  offset="0.5212" style="stop-color:#2B388F"/>
				<stop  offset="0.7576" style="stop-color:#1C1651"/>
				<stop  offset="1" style="stop-color:#120742"/>
			</radialGradient>
			<path fill="url(#SVGID_7_)" d="M64.367,65.545c1.759,3.466,3.446,6.792,4.934,9.707l-14.466-0.264l-5.328,8.615v-8.417
				l3.997-9.642H64.367z"/>
			<radialGradient id="SVGID_8_" cx="49.0122" cy="-0.7451" r="177.5615" gradientUnits="userSpaceOnUse">
				<stop  offset="0" style="stop-color:#00ADEE"/>
				<stop  offset="0.0016" style="stop-color:#01ADEE"/>
				<stop  offset="0.0526" style="stop-color:#15ABE6"/>
				<stop  offset="0.1029" style="stop-color:#22A9E2"/>
				<stop  offset="0.1515" style="stop-color:#26A9E0"/>
				<stop  offset="0.3273" style="stop-color:#1B75BB"/>
				<stop  offset="0.5212" style="stop-color:#2B388F"/>
				<stop  offset="0.7576" style="stop-color:#1C1651"/>
				<stop  offset="1" style="stop-color:#120742"/>
			</radialGradient>
			<path fill="url(#SVGID_8_)" d="M58.057,53.081c1.622,3.214,3.33,6.583,5.003,9.885h-9.646l-3.907,8.944v-8.766l2.761-9.909
				L58.057,53.081z"/>
			<radialGradient id="SVGID_9_" cx="49.0127" cy="-0.7505" r="177.5719" gradientUnits="userSpaceOnUse">
				<stop  offset="0" style="stop-color:#00ADEE"/>
				<stop  offset="0.0016" style="stop-color:#01ADEE"/>
				<stop  offset="0.0526" style="stop-color:#15ABE6"/>
				<stop  offset="0.1029" style="stop-color:#22A9E2"/>
				<stop  offset="0.1515" style="stop-color:#26A9E0"/>
				<stop  offset="0.3273" style="stop-color:#1B75BB"/>
				<stop  offset="0.5212" style="stop-color:#2B388F"/>
				<stop  offset="0.7576" style="stop-color:#1C1651"/>
				<stop  offset="1" style="stop-color:#120742"/>
			</radialGradient>
			<path fill="url(#SVGID_9_)" d="M56.701,50.414h-4.785l-2.409,8.688V36.165C50.89,38.907,53.577,44.234,56.701,50.414z"/>
		</g>
	</g>
</g>
</svg>
