<?xml version="1.0" encoding="iso-8859-1"?>
<!-- Generator: Adobe Illustrator 13.0.0, SVG Export Plug-In . SVG Version: 6.00 Build 14948)  -->
<!DOCTYPE svg PUBLIC "-//W3C//DTD SVG 1.1//EN" "http://www.w3.org/Graphics/SVG/1.1/DTD/svg11.dtd">
<svg version="1.1" id="Layer_1" xmlns="http://www.w3.org/2000/svg" xmlns:xlink="http://www.w3.org/1999/xlink" x="0px" y="0px"
	 width="100px" height="100px" viewBox="0 0 100 100" enable-background="new 0 0 100 100" xml:space="preserve">
<g>
	<path fill="none" d="M76.814,46.844c7.889-19.145-2.39-34.222-17.404-38.734C69.92,14.837,79.859,30.731,76.814,46.844z"/>
	<path fill="none" d="M32.111,46.844C27.748,31.299,39.013,14.837,49.515,8.11C34.509,12.623,24.33,26.052,32.111,46.844z"/>
	
		<linearGradient id="SVGID_1_" gradientUnits="userSpaceOnUse" x1="-480.8794" y1="579.6221" x2="-472.3938" y2="579.6221" gradientTransform="matrix(0 -12.5087 -12.5087 0 7304.7334 -5920.2939)">
		<stop  offset="0" style="stop-color:#6D9D4D"/>
		<stop  offset="1" style="stop-color:#B2CD49"/>
	</linearGradient>
	<path fill="url(#SVGID_1_)" d="M53.147,78.275l14.533,3.404v-5.869H41.178v6.564l16.085,3.875c0.796,0.188,1.294,0.975,1.103,1.76
		c-0.19,0.787-0.962,1.289-1.767,1.102l-15.421-3.721c-0.009,1.324-0.009,2.506-0.009,3.51c0,3.074,2.921,1.912,5.244,2.457
		c1.675,0.396,2.571,1.721,3.774,2.82c1.17,1.068,2.778,1.381,4.239,1.381c1.46,0,3.069-0.312,4.246-1.381
		c1.194-1.1,2.091-2.424,3.767-2.82c2.322-0.545,5.242,0.617,5.242-2.457v-4.197l-15.196-3.574
		c-0.805-0.178-1.278-0.967-1.096-1.768C51.571,78.578,52.36,78.088,53.147,78.275z"/>
	
		<linearGradient id="SVGID_2_" gradientUnits="userSpaceOnUse" x1="-498.8965" y1="599.8848" x2="-490.4" y2="599.8848" gradientTransform="matrix(0 -7.4717 -7.4717 0 4536.6172 -3653.8838)">
		<stop  offset="0" style="stop-color:#6D9D4D"/>
		<stop  offset="1" style="stop-color:#B2CD49"/>
	</linearGradient>
	<path fill="url(#SVGID_2_)" d="M26.843,32.116c-0.165,15.782,14.26,24.155,14.26,39.251h26.728
		c0-15.096,14.432-23.469,14.25-39.251C82.023,17.114,69.913,4.949,54.923,4.817c0.058,3.347,0.332,9.146,4.297,15.135
		c3.883,5.876,9.209,10.655,12.359,17.619c5.51,12.182-3.01,29-17.079,29c-14.06,0-22.654-16.818-17.146-29
		c3.161-6.963,8.478-11.742,12.36-17.619c3.965-5.989,4.247-11.788,4.296-15.135C39.021,4.949,26.902,17.114,26.843,32.116z
		 M59.41,8.11c15.015,4.513,25.293,19.589,17.404,38.734C79.859,30.731,69.92,14.837,59.41,8.11z M49.515,8.11
		c-10.501,6.728-21.767,23.189-17.403,38.734C24.33,26.052,34.509,12.623,49.515,8.11z"/>
	
		<linearGradient id="SVGID_3_" gradientUnits="userSpaceOnUse" x1="-487.0063" y1="585.5723" x2="-478.5072" y2="585.5723" gradientTransform="matrix(0 -10.4484 -10.4484 0 6172.7158 -4991.8398)">
		<stop  offset="0" style="stop-color:#3A6791"/>
		<stop  offset="0.5" style="stop-color:#4478B6"/>
		<stop  offset="1" style="stop-color:#84BBD8"/>
	</linearGradient>
	<path fill="url(#SVGID_3_)" d="M60.705,28.362c-3.086-4.628-5.359-9.311-6.279-14.206c-0.905,4.895-3.187,9.577-6.272,14.206
		c-3.583,5.359-10.294,12.841-8.875,21.481c1.402,8.59,7.541,13.139,15.147,13.139c7.614,0,13.737-4.549,15.146-13.139
		C70.991,41.204,64.28,33.721,60.705,28.362z"/>
</g>
</svg>
